<svg id="Grupo_236132" data-name="Grupo 236132" xmlns="http://www.w3.org/2000/svg" xmlns:xlink="http://www.w3.org/1999/xlink" width="53.944" height="53.943" viewBox="0 0 53.944 53.943">
  <defs>
    <clipPath id="clip-path">
      <rect id="Rectángulo_294771" data-name="Rectángulo 294771" width="53.944" height="53.943" fill="none"/>
    </clipPath>
  </defs>
  <g id="Grupo_236131" data-name="Grupo 236131" clip-path="url(#clip-path)">
    <path id="Trazado_607508" data-name="Trazado 607508" d="M66.192,51.2c-2.878,0-5.757-.02-8.635,0-.5,0-.665-.123-.651-.64.034-1.256.008-1.257,1.282-1.256h8V7.383l-.043-.008-.044,0h0c-.163.151-.365.1-.552.1-2.07,0-4.14-.011-6.209.012-.486.005-.634-.144-.629-.629.023-2.087.009-4.175.011-6.262,0-.171-.042-.355.1-.5-.168-.143-.369-.085-.556-.085Q41.636.009,25,0c-.52,0-.635.163-.633.655.019,3.895,0,7.79.022,11.685,0,.517-.157.64-.653.636-3.088-.021-6.176-.012-9.263-.008-.2,0-.423-.062-.613.077q5.133.006,10.266.011,6.95,0,13.9,0a1.9,1.9,0,0,1,2.143,2.175q0,18.165.013,36.331A2.2,2.2,0,0,1,38.7,53.934h8.162q9.478,0,18.957.009c.314,0,.389-.062.378-.378-.028-.789-.009-1.58-.009-2.369M33.123,3.718h5.634c2.159,0,4.318.012,6.476-.01.424,0,.529.122.524.532-.015,1.353,0,1.353-1.371,1.353-4.019,0-8.039-.006-12.058.009-.429,0-.567-.1-.559-.547.023-1.337,0-1.337,1.353-1.337m-4.1,0c.926,0,.926,0,.926.944s0,.932-.984.932c-.893,0-.893,0-.893-.911,0-.965,0-.965.952-.965m12.6,5.58c-4.329,0-8.658-.007-12.987.011-.456,0-.594-.1-.582-.575.033-1.272.009-1.273,1.294-1.273H35.5c2.314,0,4.627.009,6.94-.008.387,0,.508.1.505.5C42.941,9.3,42.957,9.3,41.625,9.3m1.3,4.286c0-.458.155-.546.574-.545q9.688.017,19.376,0c.443,0,.559.13.558.564q-.02,8.741,0,17.481c0,.463-.162.541-.576.539-3.229-.015-6.459-.008-9.688-.008s-6.459-.008-9.688.01c-.438,0-.558-.12-.557-.558q.021-8.741,0-17.481m7.387,23.511c-.274.295-.861.092-1.31.095-1.857.011-3.715-.007-5.572.014-.392,0-.5-.1-.5-.5.01-1.377-.006-1.377,1.361-1.377h2.366c1.086,0,2.173.011,3.259-.007.344-.006.528.057.486.453-.047.449.181,1.03-.088,1.32m-1.327,3.812c-.647,0-1.294-.009-1.941,0-.27.005-.354-.091-.368-.363-.077-1.479-.085-1.479,1.4-1.479h.472c.507,0,1.015.01,1.522,0,.248-.006.32.084.335.332.093,1.51.1,1.51-1.415,1.51m-4.171-.934c0,.935,0,.935-.933.935s-.943,0-.943-.936c0-.9,0-.9.969-.9.907,0,.907,0,.907.9m6.152,4.676H47.548c-1.367,0-2.734-.012-4.1.008-.375.005-.52-.077-.519-.49,0-1.394-.013-1.394,1.382-1.394,2.471,0,4.942.011,7.413-.01.444,0,.554.128.547.559-.021,1.328,0,1.328-1.3,1.328m3.118,6.534c-1.016.007-.94.092-.94-.927,0-.956,0-.956.936-.956s.957,0,.949.939c-.01,1.092.155.936-.945.944m.5-6.525c-.34.006-.5-.058-.5-.453-.012-1.433-.027-1.433,1.4-1.433.649,0,1.3-.015,1.947.006.33.011.409-.115.417-.426.035-1.453.044-1.452-1.4-1.452-.438,0-.877.006-1.315,0a.947.947,0,0,1-1.037-1.049c0-.017,0-.035,0-.053q0-.842,0-1.684c0-.509,0-1.017,0-1.526,0-.928.333-1.256,1.275-1.262.684,0,1.368-.014,2.052,0,.321.009.443-.1.427-.424-.018-.35.008-.7-.007-1.052-.012-.278.108-.35.373-.365,1.441-.078,1.459-.085,1.449,1.322,0,.432.148.531.545.521.911-.024,1.824.006,2.736-.014.364-.008.483.112.488.482.017,1.4.03,1.4-1.338,1.4-.684,0-1.368.008-2.052,0-.265,0-.359.08-.374.358-.082,1.521-.09,1.521,1.422,1.521.456,0,.912-.01,1.368.006a.832.832,0,0,1,.915.82,25.471,25.471,0,0,1-.007,3.939.9.9,0,0,1-1,.812c-.719.014-1.439.022-2.157,0-.388-.013-.553.07-.549.512.013,1.419-.006,1.413-1.445,1.329-.264-.015-.385-.09-.375-.367.013-.35-.014-.7.007-1.052.019-.323-.106-.426-.425-.421-.947.016-1.894-.006-2.841.012" transform="translate(-12.258 0)" fill="#e2f8dd"/>
    <path id="Trazado_607509" data-name="Trazado 607509" d="M26.851,153.1a1.75,1.75,0,0,0,.858-1.481c.016-.21.009-.421.009-.631q0-17.89,0-35.78c0-.193,0-.386-.007-.579a1.7,1.7,0,0,0-1.812-1.752q-11.628-.011-23.256-.007c-.359,0-.744.085-1.058-.19,0-.011.007-.021.011-.031a1.865,1.865,0,0,0-1.583,2.024q0,18.277-.013,36.554a2.148,2.148,0,0,0,1.487,2.309h24.96c0-.265.232-.332.4-.435m-18.9-3.258q-1.447-.016-2.894,0c-.278,0-.418-.066-.414-.38.014-1.017.009-2.035,0-3.052,0-.247.1-.344.341-.343,1,.006,2,.007,3,0,.276,0,.371.115.365.379-.011.508,0,1.017,0,1.526,0,.491-.011.982,0,1.473.009.3-.11.4-.4.4m.4-7.9c0,.3-.079.442-.412.437q-1.443-.024-2.886,0c-.331.006-.424-.123-.412-.432.019-.472,0-.945,0-1.417s.012-.945,0-1.417c-.011-.3.069-.445.407-.44q1.443.025,2.886,0c.328-.005.421.126.416.434q-.02,1.417,0,2.834m-.447-7.026c-.489-.022-.98-.006-1.47-.006-.472,0-.945-.008-1.417,0-.264.006-.377-.089-.374-.365q.015-1.5,0-2.992c0-.291.138-.349.388-.348.98.007,1.96.012,2.94,0,.315,0,.381.141.379.415-.009.945-.014,1.89,0,2.835.006.335-.1.476-.448.46m4.207,4.133c0-.268.093-.376.367-.373.983.01,1.966.012,2.949,0,.308,0,.393.124.385.409-.015.491,0,.983,0,1.474s-.007.983,0,1.474c0,.245-.088.345-.338.343-1-.007-2-.009-3,0-.282,0-.362-.117-.36-.379q.013-1.474,0-2.949m3.7,8.9c0,.508-.009,1.017,0,1.525.007.269-.093.374-.367.372-.982-.01-1.963-.008-2.945,0-.253,0-.391-.063-.388-.352q.015-1.525,0-3.05c0-.269.1-.374.37-.372.982.009,1.963.012,2.945,0,.306,0,.4.121.386.407-.015.49,0,.982,0,1.472m-.4-13.032q-1.443-.017-2.887,0c-.278,0-.419-.07-.415-.381.013-.98.008-1.96,0-2.939,0-.251.06-.39.349-.387q1.5.015,2.992,0c.281,0,.365.115.358.377-.011.49,0,.98,0,1.47s-.012.98,0,1.47c.01.3-.111.4-.4.393m7.453,14.929c-.489-.013-.98,0-1.47,0-.472,0-.945-.012-1.417,0-.325.011-.482-.092-.476-.446.014-.962.011-1.924,0-2.887,0-.307.1-.446.426-.443.98.011,1.959.008,2.939,0,.289,0,.41.115.408.405-.007,1-.011,1.995,0,2.992,0,.314-.138.385-.415.378m-3.36-18.3c0-.246.1-.342.344-.34q1.552.011,3.1,0c.262,0,.325.128.324.359-.005.982-.009,1.964,0,2.946,0,.293-.1.41-.4.4-.508-.015-1.017,0-1.526,0-.491,0-.982-.008-1.473,0-.265.006-.38-.091-.378-.366.008-1,.007-2,0-3m0,7.468c0-.248.1-.34.347-.339q1.525.009,3.05,0c.265,0,.378.089.376.365-.01,1-.008,2,0,3,0,.25-.1.34-.347.336-.526-.009-1.052,0-1.578,0-.491,0-.982-.008-1.472,0-.265.006-.379-.084-.377-.362.01-1,.008-2,0-3M24.226,126.9c0,.475-.127.63-.621.629q-9.661-.024-19.321,0c-.467,0-.588-.126-.586-.589q.03-5,0-10c0-.459.112-.595.583-.592,3.229.021,6.458.011,9.687.011s6.458.007,9.687-.009c.424,0,.574.1.571.549q-.028,5,0,10" transform="translate(0 -99.604)" fill="#f88b95"/>
    <path id="Trazado_607510" data-name="Trazado 607510" d="M40.028,151.144q-.031-18.165-.013-36.331a1.9,1.9,0,0,0-2.143-2.175q-6.95,0-13.9,0-5.133,0-10.266-.011l-.01,0c0,.01-.008.02-.011.031.314.275.7.19,1.058.19q11.628.01,23.256.007a1.7,1.7,0,0,1,1.812,1.752c.008.193.007.386.007.579q0,17.89,0,35.78c0,.21.006.421-.009.631a1.75,1.75,0,0,1-.858,1.481c-.172.1-.4.17-.4.435a2.2,2.2,0,0,0,1.482-2.374" transform="translate(-12.1 -99.583)" fill="#f88b95"/>
    <path id="Trazado_607511" data-name="Trazado 607511" d="M464.492,63.309h0l.044,0,.043.008a.35.35,0,0,0-.139-.057l.052.052" transform="translate(-410.645 -55.93)" fill="#fefefe"/>
    <path id="Trazado_607512" data-name="Trazado 607512" d="M13.777,112.6l.01,0-.008,0,0,.007" transform="translate(-12.181 -99.551)" fill="#fefefe"/>
    <path id="Trazado_607513" data-name="Trazado 607513" d="M395.313,425.836c-2.451,0-4.9,0-7.354.008-.262,0-.624-.129-.753.2a1.716,1.716,0,0,0-.006,1.085c.066.23.308.194.5.2,1.015.013,2.031,0,3.047.005,1.541,0,3.082,0,4.622,0a1.112,1.112,0,0,1,.845.2v-1.9a1.184,1.184,0,0,1-.9.2" transform="translate(-342.277 -376.337)" fill="#a8d29f"/>
    <path id="Trazado_607514" data-name="Trazado 607514" d="M385.463,426.884c-.014.517.15.643.651.64,2.878-.019,5.757,0,8.635,0a1.112,1.112,0,0,0-.845-.2c-1.541-.005-3.082,0-4.622,0-1.016,0-2.031.007-3.047-.005-.188,0-.431.034-.5-.2a1.715,1.715,0,0,1,.006-1.085c.129-.328.491-.2.753-.2,2.451-.011,4.9,0,7.354-.008a1.184,1.184,0,0,0,.9-.2h-8c-1.274,0-1.249,0-1.282,1.256" transform="translate(-340.815 -376.329)" fill="#a8d29f"/>
    <path id="Trazado_607515" data-name="Trazado 607515" d="M265.314,131.137c3.229-.018,6.459-.01,9.688-.01s6.459-.007,9.688.008c.414,0,.577-.076.576-.539q-.024-8.741,0-17.481c0-.434-.115-.565-.558-.564q-9.688.02-19.376,0c-.419,0-.575.088-.574.545q.023,8.741,0,17.481c0,.438.118.56.557.558m17.138-16.749c.933,0,.933,0,.933.948,0,.933,0,.933-.946.933s-.934,0-.934-.946,0-.936.947-.936m-.416,3.741c1.349.017,1.349,0,1.349,1.335,0,3.083-.009,6.167.01,9.25,0,.448-.136.557-.565.552-1.324-.016-1.325,0-1.325-1.308V123.7c0-1.664.012-3.329-.008-4.993-.005-.412.076-.585.539-.579m-3.3-3.739c1.057.01.93-.159.937.952.006.929,0,.929-.945.929-.926,0-.926,0-.926-.943s0-.946.934-.938m-.448,3.74c1.385,0,1.385-.014,1.385,1.357,0,3.084-.005,6.169.007,9.253,0,.388-.062.546-.513.531-1.363-.048-1.364-.023-1.364-1.374V123.69c0-1.682.01-3.365-.008-5.047,0-.379.087-.515.493-.514m-3.2-3.741h.105c.814.009.725-.093.733.727,0,.07,0,.14,0,.21,0,.944,0,.944-.933.944-.895,0-.895,0-.895-.881,0-1,0-1,.99-1m-.442,3.741c1.281.017,1.281,0,1.281,1.3v4.317c0,1.667-.01,3.335.008,5,0,.383-.095.515-.5.515-1.338,0-1.338.015-1.338-1.3,0-3.089.008-6.178-.009-9.267,0-.431.112-.573.556-.567m-3.417-3.742c1,0,1,0,1,.987,0,.895,0,.895-.878.895-1,0-1,0-1-.985,0-.9,0-.9.882-.9m-.89,4.241c0-.406.135-.5.515-.5,1.373,0,1.373-.012,1.373,1.358v4.2c0,1.682-.014,3.364.01,5.046.006.425-.133.56-.537.521a4.565,4.565,0,0,0-.84,0c-.374.033-.523-.077-.521-.489q.023-5.072,0-10.144m-2.814-4.24c1,0,1,0,1,1,0,.879,0,.879-.893.879-.982,0-.982,0-.982-.993,0-.889,0-.889.88-.889m-.394,3.742c1.389,0,1.389-.013,1.389,1.357,0,3.071-.008,6.142.009,9.213,0,.431-.11.574-.556.568-1.327-.018-1.327,0-1.327-1.305V123.7c0-1.685.01-3.369-.008-5.054,0-.381.088-.515.494-.514" transform="translate(-234.091 -99.514)" fill="#78ae69"/>
    <path id="Trazado_607516" data-name="Trazado 607516" d="M364.851,300.481c-.02.35.007.7-.007,1.052-.011.277.111.351.375.367,1.439.084,1.458.09,1.445-1.329,0-.442.161-.525.549-.512.718.024,1.438.016,2.157,0a.9.9,0,0,0,1-.812,25.459,25.459,0,0,0,.007-3.939.831.831,0,0,0-.915-.82c-.456-.016-.912-.006-1.368-.006-1.512,0-1.5,0-1.422-1.521.015-.279.109-.363.374-.358.684.012,1.368,0,2.052,0,1.368,0,1.356,0,1.338-1.4,0-.369-.123-.489-.488-.482-.912.02-1.824-.01-2.736.014-.4.01-.548-.089-.545-.521.011-1.407-.007-1.4-1.449-1.322-.265.014-.384.087-.372.365.015.35-.011.7.007,1.052.016.319-.106.433-.427.424-.683-.018-1.368-.009-2.052,0-.942.006-1.272.334-1.275,1.262,0,.509,0,1.017,0,1.526q0,.842,0,1.684c0,.017,0,.035,0,.053a.947.947,0,0,0,1.037,1.049c.438.008.877,0,1.315,0,1.447,0,1.439,0,1.4,1.452-.007.312-.087.438-.417.427-.648-.022-1.3-.006-1.946-.006-1.431,0-1.416,0-1.4,1.433,0,.395.159.46.5.453.947-.017,1.894,0,2.841-.012.319-.005.444.1.425.421m2.758-4.169c.946,0,.946,0,.946.932s0,.942-.932.942c-.948,0-.948,0-.948-.927,0-.946,0-.946.934-.946m-3.682-1.829c-.951.008-.951,0-.951-.97,0-.905,0-.905.91-.905.962,0,.966,0,.961.962-.005,1.064.105.906-.92.914" transform="translate(-319.261 -255.414)" fill="#78ae69"/>
    <path id="Trazado_607517" data-name="Trazado 607517" d="M409.324,9.473q-3.218-3.213-6.43-6.431a1.633,1.633,0,0,1-.267-.294,7.076,7.076,0,0,1,.021.768c0,1.854-.008,3.708.005,5.562,0,.58.057.633.634.636,1.889.012,3.778,0,5.667,0,.223,0,.446.005.667.024a1.618,1.618,0,0,1-.3-.268" transform="translate(-355.992 -2.43)" fill="#a8d29e"/>
    <path id="Trazado_607518" data-name="Trazado 607518" d="M407.583,8.038c-1.889,0-3.778.009-5.667,0-.577,0-.629-.056-.634-.636-.014-1.854,0-3.708-.005-5.562a7.09,7.09,0,0,0-.021-.768.465.465,0,0,1-.069-.22c-.141.145-.1.328-.1.5,0,2.087.012,4.175-.011,6.262-.005.485.143.635.629.629,2.07-.023,4.139-.009,6.209-.012.187,0,.39.053.552-.1a.465.465,0,0,1-.217-.067c-.222-.019-.444-.024-.667-.024" transform="translate(-354.621 -0.75)" fill="#a8d29e"/>
    <path id="Trazado_607519" data-name="Trazado 607519" d="M402.693,1.685q3.212,3.218,6.43,6.431a1.621,1.621,0,0,0,.3.268l.118.01a.356.356,0,0,1,.048.005L402.4,1.213c.011.059.02.118.026.178a1.647,1.647,0,0,0,.267.294" transform="translate(-355.791 -1.073)" fill="#a8d29e"/>
    <path id="Trazado_607520" data-name="Trazado 607520" d="M402.078.891l-.042-.042a.465.465,0,0,0,.068.22c-.007-.059-.015-.119-.026-.178" transform="translate(-355.469 -0.751)" fill="#a8d29e"/>
    <path id="Trazado_607521" data-name="Trazado 607521" d="M463.13,63.134l-.118-.01a.465.465,0,0,0,.217.067l-.052-.052a.36.36,0,0,0-.048-.005" transform="translate(-409.382 -55.813)" fill="#a8d29e"/>
    <path id="Trazado_607522" data-name="Trazado 607522" d="M150.78,64.34c-2.313.017-4.627.008-6.94.008h-6.152c-1.286,0-1.262,0-1.294,1.273-.012.472.126.576.582.575,4.329-.018,8.658-.011,12.987-.011,1.332,0,1.315,0,1.323-1.349,0-.4-.119-.5-.505-.5" transform="translate(-120.595 -56.887)" fill="#5a6470"/>
    <path id="Trazado_607523" data-name="Trazado 607523" d="M169.018,33.9c4.019-.016,8.038-.009,12.058-.009,1.372,0,1.356,0,1.371-1.353,0-.409-.1-.536-.524-.532-2.159.022-4.318.01-6.476.01h-5.634c-1.35,0-1.33,0-1.353,1.337-.008.446.13.549.559.547" transform="translate(-148.946 -28.302)" fill="#5a6470"/>
    <path id="Trazado_607524" data-name="Trazado 607524" d="M273.579,369.183c-2.471.021-4.942.01-7.413.01-1.4,0-1.378,0-1.382,1.395,0,.413.145.495.519.49,1.367-.019,2.734-.008,4.1-.008h3.418c1.3,0,1.283,0,1.3-1.328.007-.431-.1-.563-.547-.559" transform="translate(-234.115 -326.422)" fill="#5a6470"/>
    <path id="Trazado_607525" data-name="Trazado 607525" d="M272.259,305.4c.042-.4-.142-.459-.486-.453-1.086.018-2.173.007-3.259.007h-2.366c-1.367,0-1.351,0-1.361,1.377,0,.4.109.5.5.5,1.857-.02,3.715,0,5.572-.014.449,0,1.035.2,1.31-.095s.04-.871.088-1.319" transform="translate(-234.118 -269.627)" fill="#5a6470"/>
    <path id="Trazado_607526" data-name="Trazado 607526" d="M300.319,337.273c-.507.013-1.014,0-1.522,0h-.472c-1.481,0-1.474,0-1.4,1.479.014.272.1.368.368.363.647-.012,1.294,0,1.941,0,1.515,0,1.508,0,1.415-1.509-.015-.247-.087-.338-.335-.332" transform="translate(-262.513 -298.207)" fill="#5a6470"/>
    <path id="Trazado_607527" data-name="Trazado 607527" d="M137.4,33.967c.984,0,.984,0,.984-.932s0-.944-.926-.944c-.952,0-.952,0-.952.965,0,.911,0,.911.894.911" transform="translate(-120.691 -28.374)" fill="#5b6571"/>
    <path id="Trazado_607528" data-name="Trazado 607528" d="M354.855,426.567c.009-.939,0-.939-.949-.939s-.936,0-.936.956c0,1.019-.076.934.94.927,1.1-.008.934.148.945-.944" transform="translate(-312.085 -376.329)" fill="#a9d29f"/>
    <path id="Trazado_607529" data-name="Trazado 607529" d="M264.868,338.2c0,.936,0,.936.943.936s.933,0,.933-.935c0-.9,0-.9-.907-.9-.969,0-.969,0-.969.9" transform="translate(-234.189 -298.227)" fill="#5b6671"/>
    <path id="Trazado_607530" data-name="Trazado 607530" d="M51.887,144.562c-3.229.016-6.458.009-9.687.009s-6.458.01-9.687-.011c-.471,0-.586.133-.583.592q.029,5,0,10c0,.463.118.59.586.589q9.661-.023,19.321,0c.494,0,.624-.153.621-.629q-.025-5,0-10c0-.453-.147-.552-.572-.549m-6.5,6.508c-.741.745-1.49,1.481-2.224,2.233-.2.209-.338.212-.558.009-1.088-1-1.094-1-.05-2.041.508-.508,1.023-1.008,1.519-1.526.2-.212.353-.232.556-.006.245.273.518.521.775.784.071.073.131.158.18.218,0,.174-.115.245-.2.329m4.642-.008c-.741.744-1.493,1.479-2.223,2.234-.234.242-.376.2-.6-.016-1.036-.994-1.042-.988-.028-2,.47-.47.966-.919,1.4-1.419.321-.368.541-.332.822.02.185.231.418.423.626.636.072.073.133.157.185.219,0,.172-.106.244-.19.328" transform="translate(-28.231 -127.816)" fill="#cfdce5"/>
    <path id="Trazado_607531" data-name="Trazado 607531" d="M172.162,401.574c0-.29-.12-.407-.408-.405-.98.007-1.96.01-2.939,0-.322,0-.429.136-.426.443.01.962.013,1.925,0,2.887-.005.354.151.457.476.446.472-.015.945,0,1.417,0,.49,0,.98-.01,1.469,0,.277.008.419-.063.415-.378-.013-1-.01-1.995,0-2.992" transform="translate(-148.883 -354.701)" fill="#fbef5a"/>
    <path id="Trazado_607532" data-name="Trazado 607532" d="M168.785,276.578c.491-.011.982,0,1.473,0,.509,0,1.018-.011,1.526,0,.3.009.4-.108.4-.4-.011-.982-.008-1.964,0-2.946,0-.231-.062-.361-.324-.359q-1.552.01-3.1,0c-.247,0-.345.094-.344.34q.009,1.5,0,3c0,.275.114.372.378.366" transform="translate(-148.901 -241.267)" fill="#fbef5a"/>
    <path id="Trazado_607533" data-name="Trazado 607533" d="M168.777,341.051c.491-.012.982,0,1.472,0,.526,0,1.052-.007,1.578,0,.243,0,.349-.086.347-.336-.006-1-.008-2,0-3,0-.276-.111-.367-.376-.365q-1.525.012-3.05,0c-.243,0-.349.091-.347.339.006,1,.008,2,0,3,0,.278.112.369.377.362" transform="translate(-148.895 -298.277)" fill="#fbef5a"/>
    <path id="Trazado_607534" data-name="Trazado 607534" d="M43.793,403.08c0-.509-.008-1.017,0-1.526.006-.264-.09-.381-.365-.379-1,.008-2,.007-3,0-.245,0-.343.1-.341.343.007,1.017.011,2.035,0,3.052,0,.314.136.383.414.38q1.447-.015,2.894,0c.292,0,.411-.1.4-.4-.015-.491,0-.982,0-1.473" transform="translate(-35.445 -354.708)" fill="#fbef5a"/>
    <path id="Trazado_607535" data-name="Trazado 607535" d="M107.9,401.157c-.981.013-1.963.011-2.945,0-.272,0-.372.1-.37.372q.013,1.525,0,3.05c0,.289.135.354.388.352.982-.007,1.963-.009,2.945,0,.274,0,.373-.1.367-.372-.012-.508,0-1.017,0-1.525,0-.491-.011-.982,0-1.472.009-.286-.081-.411-.386-.407" transform="translate(-92.471 -354.692)" fill="#fbef5a"/>
    <path id="Trazado_607536" data-name="Trazado 607536" d="M43.809,273.269c0-.275-.064-.42-.379-.415-.98.014-1.96.009-2.94,0-.25,0-.391.057-.388.348q.016,1.5,0,2.992c0,.276.11.371.374.365.472-.011.945,0,1.417,0,.49,0,.981-.016,1.47.006.35.016.453-.125.448-.46-.016-.945-.011-1.89,0-2.835" transform="translate(-35.458 -241.249)" fill="#fbef5a"/>
    <path id="Trazado_607537" data-name="Trazado 607537" d="M108.269,274.7c0-.49-.008-.98,0-1.47.006-.261-.077-.38-.358-.377q-1.5.017-2.992,0c-.289,0-.351.137-.349.387.007.98.011,1.96,0,2.939,0,.311.137.384.415.381q1.443-.014,2.887,0c.29,0,.411-.094.4-.393-.016-.489,0-.98,0-1.47" transform="translate(-92.459 -241.252)" fill="#fbee5a"/>
    <path id="Trazado_607538" data-name="Trazado 607538" d="M43.373,337.325q-1.443.023-2.886,0c-.337-.006-.418.138-.407.44.017.472,0,.945,0,1.417s.014.945,0,1.417c-.012.309.081.438.412.432q1.443-.026,2.886,0c.333.006.416-.132.412-.437q-.019-1.417,0-2.834c0-.308-.088-.44-.416-.434" transform="translate(-35.437 -298.253)" fill="#fbef5a"/>
    <path id="Trazado_607539" data-name="Trazado 607539" d="M104.943,341.036c1-.011,2-.009,3,0,.25,0,.343-.1.338-.343-.01-.491,0-.983,0-1.474s-.01-.983,0-1.474c.009-.284-.077-.413-.385-.409-.983.013-1.966.011-2.949,0-.275,0-.37.1-.367.373q.013,1.474,0,2.949c0,.261.078.382.36.379" transform="translate(-92.47 -298.262)" fill="#fbef5a"/>
    <path id="Trazado_607540" data-name="Trazado 607540" d="M377.363,166.273v4.206c0,1.351,0,1.327,1.364,1.374.452.016.515-.143.513-.531-.012-3.084-.007-6.168-.007-9.253,0-1.371,0-1.355-1.385-1.357-.406,0-.5.134-.493.514.018,1.682.008,3.365.008,5.047" transform="translate(-333.647 -142.097)" fill="#e2f8dd"/>
    <path id="Trazado_607541" data-name="Trazado 607541" d="M409.293,166.275v4.257c0,1.309,0,1.292,1.324,1.308.428.005.568-.1.565-.552-.019-3.083-.01-6.167-.01-9.25,0-1.339,0-1.318-1.349-1.335-.463-.006-.544.167-.539.579.02,1.664.008,3.329.008,4.993" transform="translate(-361.878 -142.089)" fill="#e2f8dd"/>
    <path id="Trazado_607542" data-name="Trazado 607542" d="M313.464,171.858a4.564,4.564,0,0,1,.84,0c.4.039.543-.1.537-.521-.024-1.682-.01-3.364-.01-5.046v-4.2c0-1.37,0-1.357-1.373-1.358-.38,0-.517.091-.515.5q.023,5.072,0,10.144c0,.412.147.522.521.489" transform="translate(-276.695 -142.111)" fill="#e2f8dd"/>
    <path id="Trazado_607543" data-name="Trazado 607543" d="M281,166.28v4.264c0,1.306,0,1.287,1.327,1.305.446.006.559-.136.556-.568-.017-3.071-.009-6.142-.009-9.213,0-1.37,0-1.353-1.389-1.357-.406,0-.5.133-.494.514.019,1.684.008,3.369.008,5.054" transform="translate(-248.443 -142.097)" fill="#e2f8dd"/>
    <path id="Trazado_607544" data-name="Trazado 607544" d="M345.337,170.544c0,1.318,0,1.3,1.338,1.3.4,0,.5-.132.5-.515-.018-1.667-.008-3.335-.008-5q0-2.159,0-4.317c0-1.305,0-1.286-1.281-1.3-.444-.006-.558.135-.556.567.017,3.089.009,6.178.009,9.267" transform="translate(-305.329 -142.096)" fill="#e2f8dd"/>
    <path id="Trazado_607545" data-name="Trazado 607545" d="M314.014,130.288c.878,0,.878,0,.878-.895,0-.987,0-.987-1-.987-.882,0-.882,0-.882.9,0,.985,0,.985,1,.985" transform="translate(-276.756 -113.533)" fill="#e0f7db"/>
    <path id="Trazado_607546" data-name="Trazado 607546" d="M410.289,130.291c.946,0,.946,0,.946-.933,0-.948,0-.948-.933-.948s-.947,0-.947.936,0,.946.934.946" transform="translate(-361.941 -113.537)" fill="#e1f7dc"/>
    <path id="Trazado_607547" data-name="Trazado 607547" d="M378.343,130.27c.946,0,.951,0,.945-.929-.007-1.111.12-.942-.937-.952-.934-.009-.934,0-.934.938s0,.943.926.943" transform="translate(-333.702 -113.514)" fill="#e0f7db"/>
    <path id="Trazado_607548" data-name="Trazado 607548" d="M282.038,130.29c.893,0,.893,0,.893-.879,0-1,0-1-1-1-.88,0-.88,0-.88.889,0,.993,0,.993.982.993" transform="translate(-248.502 -113.536)" fill="#e1f7dc"/>
    <path id="Trazado_607549" data-name="Trazado 607549" d="M346.3,130.293c.933,0,.933,0,.933-.944,0-.07,0-.14,0-.21-.008-.82.08-.718-.733-.727h-.105c-.99,0-.99,0-.99,1,0,.881,0,.881.9.881" transform="translate(-305.397 -113.538)" fill="#e2f8dd"/>
    <path id="Trazado_607550" data-name="Trazado 607550" d="M410.3,354.972c.932,0,.932,0,.932-.942s0-.932-.946-.932-.933,0-.933.946c0,.927,0,.927.948.927" transform="translate(-361.941 -312.2)" fill="#e1f7dc"/>
    <path id="Trazado_607551" data-name="Trazado 607551" d="M379.288,322.076c0-.962,0-.962-.961-.962-.91,0-.91,0-.91.905,0,.972,0,.978.951.97,1.025-.008.914.15.92-.914" transform="translate(-333.702 -283.92)" fill="#e1f7dc"/>
    <path id="Trazado_607552" data-name="Trazado 607552" d="M160.077,188.347c-.281-.352-.5-.387-.822-.02-.437.5-.933.948-1.4,1.419-1.014,1.015-1.009,1.009.028,2,.22.211.362.258.6.016.73-.756,1.481-1.49,2.223-2.234.084-.084.194-.156.19-.328-.052-.062-.113-.145-.185-.219-.208-.213-.441-.405-.626-.636" transform="translate(-138.9 -166.284)" fill="#f3f3e5"/>
    <path id="Trazado_607553" data-name="Trazado 607553" d="M119.83,188.048c-.2-.226-.354-.206-.556.006-.5.518-1.012,1.019-1.519,1.526-1.044,1.044-1.038,1.037.05,2.041.221.2.354.2.558-.009.734-.752,1.483-1.488,2.224-2.233.084-.084.2-.155.2-.329-.05-.061-.109-.145-.18-.218-.257-.262-.53-.511-.775-.784" transform="translate(-103.431 -166.124)" fill="#f3f3e5"/>
  </g>
</svg>
