<svg id="Grupo_235976" data-name="Grupo 235976" xmlns="http://www.w3.org/2000/svg" xmlns:xlink="http://www.w3.org/1999/xlink" width="85.988" height="86.021" viewBox="0 0 85.988 86.021">
  <defs>
    <clipPath id="clip-path">
      <rect id="Rectángulo_294667" data-name="Rectángulo 294667" width="85.988" height="86.021" fill="none"/>
    </clipPath>
  </defs>
  <g id="Grupo_235976-2" data-name="Grupo 235976" clip-path="url(#clip-path)">
    <path id="Trazado_605842" data-name="Trazado 605842" d="M81.237,28.144c-.666-.207-.855-.44-.832-1.157a15.156,15.156,0,0,0-13.24-15.706c-.575-.08-.606-.336-.6-.792.014-3.207-.021-6.415.028-9.621C66.6.114,66.372,0,65.683,0Q50.994.037,36.3.017q-14.56,0-29.119,0A6.92,6.92,0,0,0,.006,7.152q-.011,22.016,0,44.033a6.922,6.922,0,0,0,7.055,7.085c2.022.013,4.045-.023,6.066.018.6.012.765-.133.759-.749-.034-3.236-.016-6.472-.015-9.708,0-.329-.117-.676.474-.668,2.282.032,4.564.018,6.846.009.445,0,.546.1.369.556-1.068,2.744-1.057,2.748-3.9,3.65-.165.052-.325.123-.492.162-.384.088-.537.275-.533.71q.036,4.637,0,9.274a.626.626,0,0,0,.534.714c.937.281,1.864.6,2.8.877a.864.864,0,0,1,.612.534c1.153,2.671,1.157,2.67-.177,5.268a3.645,3.645,0,0,1-.249.454c-.263.37-.186.629.142.952q3.273,3.223,6.5,6.5a.673.673,0,0,0,.958.136c.831-.46,1.68-.889,2.526-1.323a.989.989,0,0,1,.8-.1c2.036.564,3.454,1.659,3.645,3.922.012.139.106.27.131.41.083.472.324.62.826.614,2.686-.032,5.373,0,8.059-.03a.843.843,0,0,1,1,.72A6.765,6.765,0,0,0,51.128,86q14.039.042,28.079,0a6.822,6.822,0,0,0,6.76-6.748q.046-22.363,0-44.726a6.778,6.778,0,0,0-4.734-6.379m-3.56,15.61c.008.551-.158.663-.678.66-3.954-.022-7.908-.012-11.862-.012-3.9,0-7.793-.014-11.689.015-.6,0-.773-.139-.762-.754.04-2.222.005-4.445.028-6.668,0-.3-.238-.731.2-.9.418-.157.667.168.928.457a14.685,14.685,0,0,0,8.842,4.856,14.983,14.983,0,0,0,13.783-4.788,2.891,2.891,0,0,0,.282-.328.638.638,0,0,1,.7-.2c.356.059.2.367.2.56.012,2.367-.011,4.735.022,7.1M77.662,26.4A12.48,12.48,0,1,1,65.255,13.888,12.506,12.506,0,0,1,77.662,26.4M11.1,54.387c0,1.11,0,1.11-1.152,1.11-1.039,0-2.079.022-3.118-.007a4.108,4.108,0,0,1-4.04-4.046Q2.758,32.129,2.78,12.812a1.476,1.476,0,0,1,.087-.276c1.844,1.431,3.928,1.388,6.017,1.36.712-.009,1.644-.314,2.081.123s.126,1.369.126,2.082q.012,19.143.006,38.286M43.925,77.694q-3.2-.014-6.41,0a.537.537,0,0,1-.6-.467c-.214-.747-.487-1.478-.688-2.228a.98.98,0,0,0-.8-.769,16.32,16.32,0,0,1-4.14-1.709.948.948,0,0,0-1.033-.006c-.812.429-1.68,1.19-2.461,1.119-.846-.078-1.386-1.2-2.073-1.846-.672-.634-1.292-1.322-1.969-1.95-.351-.325-.489-.623-.172-1.027a3.656,3.656,0,0,0,.127-4.821,5.809,5.809,0,0,1-.768-2.1,1.351,1.351,0,0,0-1.113-1.11c-.8-.232-1.893-.24-2.275-.861s-.118-1.62-.124-2.455c-.008-1.04.015-2.08-.01-3.118-.01-.434.07-.716.561-.787a3.784,3.784,0,0,0,3.569-3.36,14.314,14.314,0,0,1,1.25-2.826c.1-.237.249-.2.4-.2,1.028-.006,2.055,0,3.138,0-4.116,5.885-4.624,11.888-.871,18.02a14.406,14.406,0,0,0,7.419,5.969,15.08,15.08,0,0,0,9.5.393c0,1.957-.007,3.83.006,5.7,0,.351-.139.435-.46.434m-.191-8.838A12.473,12.473,0,0,1,31.953,47.548a1.3,1.3,0,0,1,.916-.382c3.638.016,7.276.027,10.913-.008.627-.006.6.282.6.721-.01,3.35-.005,6.7-.005,10.049s-.014,6.7.014,10.049a.762.762,0,0,1-.66.879m.651-34.237c-.023,3-.03,6.009.013,9.012.01.676-.194.785-.815.784q-14.47-.031-28.94,0c-.667,0-.789-.181-.788-.81.021-10.515,0-21.03.035-31.545,0-.8-.2-.994-.981-.97-1.933.059-3.87.027-5.8.017a4.162,4.162,0,1,1,.012-8.318q13.95-.009,27.9,0t27.9-.017c.705,0,.916.141.9.879-.055,2.281-.031,4.564-.011,6.846,0,.471-.057.706-.617.783A15.157,15.157,0,0,0,49.951,26.822c.018.76-.1,1.1-.914,1.362a6.775,6.775,0,0,0-4.651,6.435M83.21,35.2q0,21.667,0,43.335c0,3.055-1.65,4.7-4.709,4.7q-13.388,0-26.776,0a4.193,4.193,0,0,1-4.57-4.58q0-21.841,0-43.681a4.208,4.208,0,0,1,2.664-4.16c.51-.2.775-.16.942.423.188.658.485,1.285.767,2.01-1.6.144-1.6.144-1.6,1.754,0,3.756.017,7.512-.015,11.267-.006.677.1.928.867.926q14.428-.046,28.856-.006c.63,0,.825-.129.819-.8q-.052-6.11,0-12.22c.007-.737-.2-.988-.907-.871-.726.119-.753-.182-.461-.743a6.958,6.958,0,0,0,.535-1.366c.149-.54.42-.564.887-.391A4.231,4.231,0,0,1,83.2,34.42c.016.259.007.52.007.78" transform="translate(0 -0.001)"/>
    <path id="Trazado_605843" data-name="Trazado 605843" d="M59.161,36.018A15.157,15.157,0,0,1,72.4,20.477c.56-.077.621-.312.617-.783-.02-2.282-.044-4.565.011-6.846.018-.738-.192-.881-.9-.879q-13.95.039-27.9.017-13.95,0-27.9,0a4.162,4.162,0,1,0-.012,8.318c1.935.01,3.872.041,5.8-.017.777-.024.983.174.981.97-.03,10.515-.014,21.03-.035,31.545,0,.628.121.811.788.81q14.47-.038,28.94,0c.621,0,.824-.108.815-.784-.043-3-.036-6.008-.013-9.012a6.775,6.775,0,0,1,4.651-6.435c.815-.26.932-.6.914-1.362m-10.3,14.805H38.292c-3.9,0-7.8-.015-11.7.015-.606,0-.766-.142-.757-.753.028-2.035,0-2.036,2.058-2.036,7.364,0,14.729.01,22.093-.016.673,0,.861.16.845.841-.045,1.948-.013,1.949-1.973,1.949M27.818,42.5h10.57c3.9,0,7.8.016,11.7-.016.62-.005.756.166.748.763-.027,2.027,0,2.027-2.066,2.027-7.364,0-14.729-.011-22.093.018-.692,0-.849-.189-.835-.851.041-1.94.012-1.941,1.98-1.941m-1.979-3.47c.012-2.077-.011-2.078,2.1-2.078h4.937c2.079,0,4.158.016,6.236-.011.49-.006.616.134.622.621.027,2.165.044,2.165-2.1,2.165-3.7,0-7.391-.013-11.087.013-.566,0-.713-.145-.71-.71M42.5,38.385c0-1.432,0-1.432,1.428-1.432,1.345,0,1.345,0,1.345,1.342,0,1.432,0,1.432-1.428,1.432-1.345,0-1.345,0-1.345-1.342m5.547-.048c0-1.384,0-1.384,1.39-1.384s1.384,0,1.384,1.39,0,1.384-1.39,1.384-1.384,0-1.384-1.39m.861-4.158H38.247c-3.87,0-7.74-.017-11.609.017-.647.006-.814-.149-.8-.8.039-1.991.008-1.991,2.017-1.991,7.364,0,14.729.012,22.093-.018.72,0,.91.164.889.888-.054,1.9-.016,1.9-1.932,1.9m4.7-6.332c.005.647-.149.805-.8.8-4.361-.032-8.723-.017-13.084-.017S31,28.616,26.64,28.648c-.643,0-.808-.143-.8-.8q.051-6.153,0-12.306c-.005-.647.149-.8.8-.8q13.084.036,26.168,0c.642,0,.808.143.8.8q-.051,6.153,0,12.306" transform="translate(-9.21 -9.197)" fill="#e5e8ec"/>
    <path id="Trazado_605844" data-name="Trazado 605844" d="M236.889,132.637c-.466-.173-.738-.15-.887.39a6.965,6.965,0,0,1-.535,1.366c-.293.56-.266.862.461.743.709-.116.914.134.907.872q-.06,6.11,0,12.22c.006.667-.189.8-.819.8q-14.428-.031-28.856.006c-.769,0-.872-.249-.867-.926.032-3.755.015-7.511.015-11.267,0-1.61,0-1.61,1.6-1.754-.282-.725-.579-1.352-.767-2.01-.166-.583-.431-.619-.942-.423a4.208,4.208,0,0,0-2.664,4.16q0,21.841,0,43.682a4.193,4.193,0,0,0,4.57,4.579q13.388,0,26.776,0c3.059,0,4.709-1.648,4.709-4.7q0-21.667,0-43.335c0-.26.009-.521-.007-.78a4.23,4.23,0,0,0-2.693-3.617m-18.837,19.138c1.184.025,2.368.008,3.553.008,1.155,0,2.311.017,3.466-.008.449-.01.67.056.664.594-.029,2.4-.02,4.8-.005,7.193,0,.4-.1.554-.528.551q-3.639-.027-7.279,0c-.429,0-.531-.15-.528-.551.015-2.4.023-4.8-.005-7.193-.006-.538.214-.6.663-.594m-3.416,30c0,.429-.15.531-.551.528-2.4-.015-4.795-.023-7.192.005-.538.007-.6-.215-.594-.663.025-1.184.008-2.369.008-3.553,0-1.156.017-2.312-.008-3.467-.01-.449.057-.67.594-.664,2.4.029,4.795.02,7.192.005.4,0,.554.1.551.528q-.027,3.64,0,7.28m0-11.1c0,.429-.15.531-.551.528-2.4-.015-4.795-.023-7.192.005-.538.007-.6-.215-.594-.663.025-1.184.008-2.369.008-3.553,0-1.156.017-2.312-.008-3.467-.01-.449.057-.67.594-.664,2.4.029,4.795.02,7.192.005.4,0,.554.1.551.528q-.027,3.64,0,7.28m0-11.139c0,.471-.157.576-.6.573q-3.553-.028-7.105,0c-.477,0-.657-.108-.641-.618.037-1.183.012-2.369.012-3.553s.025-2.37-.012-3.553c-.016-.51.164-.622.641-.618q3.553.033,7.105,0c.439,0,.6.1.6.573q-.034,3.6,0,7.193m10.433,22.765c-1.184-.025-2.368-.008-3.553-.008-1.155,0-2.311-.017-3.466.008-.449.01-.67-.056-.663-.594.029-2.4.02-4.8.005-7.193,0-.4.1-.554.528-.551q3.639.027,7.279,0c.429,0,.531.15.528.551-.015,2.4-.023,4.8.005,7.193.006.538-.215.6-.663.594m-.038-11.095c-1.184-.029-2.368-.009-3.553-.009-1.155,0-2.311-.012-3.466.006-.4.006-.629-.036-.624-.543.025-2.427.022-4.853,0-7.28,0-.45.186-.513.567-.511,2.4.012,4.795.018,7.192,0,.463,0,.583.142.579.59-.02,2.369-.03,4.738.006,7.107.009.578-.212.657-.7.645m3.453-18.85c0-.451.121-.592.581-.588q3.6.032,7.192,0c.482,0,.567.177.564.6-.017,2.369-.021,4.738,0,7.107,0,.489-.128.647-.626.633-1.183-.035-2.368-.011-3.552-.011-1.155,0-2.311-.021-3.466.01-.494.013-.71-.072-.7-.647.035-2.369.025-4.738.005-7.107m7.527,29.951c-2.282-.038-4.564-.03-6.846,0-.518.006-.686-.112-.685-.664q.032-9.058,0-18.115c0-.554.171-.668.686-.662,2.282.026,4.564.035,6.846,0,.632-.011.828.13.819.8-.04,3-.018,6.009-.018,9.014,0,2.947-.023,5.894.018,8.841.009.67-.191.807-.821.8" transform="translate(-156.379 -101.835)" fill="#959ea9"/>
    <path id="Trazado_605845" data-name="Trazado 605845" d="M227.48,72.393a12.48,12.48,0,1,0,12.553-12.451A12.509,12.509,0,0,0,227.48,72.393m13.077,1.883q-1.2-.594-2.4-1.2a3.878,3.878,0,0,1-2.348-3.639,3.767,3.767,0,0,1,2.315-3.558.652.652,0,0,0,.452-.712c-.024-.576.04-1.159-.019-1.73-.066-.639.192-.746.772-.74,2.013.022,2.037,0,2,1.994a1.247,1.247,0,0,0,.794,1.387,3.663,3.663,0,0,1,1.979,2.97c.059.408,0,.668-.518.607a7.2,7.2,0,0,0-1.124-.006c-.594.023-1.1.085-1.309-.749-.174-.686-.918-.708-1.541-.624a1.119,1.119,0,0,0-1.023,1.019,1.216,1.216,0,0,0,.806,1.3c.825.409,1.651.816,2.469,1.239a3.816,3.816,0,0,1,2.239,3.614,3.752,3.752,0,0,1-2.273,3.5c-.38.186-.539.376-.488.773a2.779,2.779,0,0,1,0,.346c0,2.1,0,2.087-2.1,2.08-.5,0-.768-.076-.682-.648a8.122,8.122,0,0,0,.007-1.043c.18-.765-.06-1.379-1.031-1.855a3.467,3.467,0,0,1-1.729-2.756c-.072-.455.012-.713.559-.652a7.569,7.569,0,0,0,1.211,0c.555-.028.978-.042,1.16.711.166.689.885.741,1.519.669a1.129,1.129,0,0,0,1.059-.984,1.183,1.183,0,0,0-.764-1.314" transform="translate(-174.779 -46.055)" fill="#fbd670"/>
    <path id="Trazado_605846" data-name="Trazado 605846" d="M20.172,55.59c-.437-.438-1.369-.133-2.081-.123-2.089.028-4.172.071-6.017-1.36a1.485,1.485,0,0,0-.087.276q0,19.317.007,38.633a4.108,4.108,0,0,0,4.04,4.046c1.038.028,2.078.006,3.118.007,1.151,0,1.151,0,1.151-1.11q0-19.143-.006-38.286c0-.713.311-1.644-.126-2.082" transform="translate(-9.207 -41.571)" fill="#efcfb3"/>
    <path id="Trazado_605847" data-name="Trazado 605847" d="M108.515,228.006a15.08,15.08,0,0,1-9.5-.393,14.407,14.407,0,0,1-7.419-5.969c-3.754-6.132-3.245-12.135.871-18.02-1.083,0-2.11,0-3.138,0-.152,0-.3-.041-.4.2a14.316,14.316,0,0,0-1.25,2.826,3.784,3.784,0,0,1-3.568,3.36c-.491.07-.571.353-.561.787.025,1.039,0,2.079.01,3.118.006.834-.253,1.843.124,2.455s1.48.629,2.275.861a1.351,1.351,0,0,1,1.113,1.11,5.806,5.806,0,0,0,.768,2.1,3.657,3.657,0,0,1-.126,4.821c-.317.4-.179.7.172,1.027.677.627,1.3,1.316,1.969,1.95.688.649,1.227,1.768,2.073,1.846.781.072,1.65-.689,2.461-1.119a.947.947,0,0,1,1.033.006,16.32,16.32,0,0,0,4.14,1.709.98.98,0,0,1,.8.769c.2.75.474,1.481.689,2.228a.537.537,0,0,0,.6.467q3.2-.02,6.41,0c.322,0,.462-.083.46-.434-.013-1.873-.006-3.746-.006-5.7" transform="translate(-64.135 -156.449)" fill="#b3dc7e"/>
    <path id="Trazado_605848" data-name="Trazado 605848" d="M252.066,155.667a.638.638,0,0,0-.7.2,2.916,2.916,0,0,1-.282.328,14.984,14.984,0,0,1-13.783,4.788,14.684,14.684,0,0,1-8.842-4.856c-.262-.29-.511-.614-.928-.457-.44.165-.2.6-.2.9-.023,2.223.012,4.446-.029,6.668-.011.615.16.758.762.754,3.9-.029,7.793-.015,11.689-.015,3.954,0,7.908-.01,11.863.012.52,0,.686-.109.678-.66-.033-2.367-.01-4.734-.022-7.1,0-.193.157-.5-.2-.56" transform="translate(-174.61 -119.576)" fill="#69d5f3"/>
    <path id="Trazado_605849" data-name="Trazado 605849" d="M98.737,23.948q-13.084.035-26.168,0c-.649,0-.8.153-.8.8q.049,6.153,0,12.306c-.006.654.16.8.8.8,4.361-.032,8.723-.016,13.084-.016s8.723-.016,13.084.017c.65,0,.8-.154.8-.8q-.049-6.153,0-12.306c.005-.654-.16-.8-.8-.8M96.762,34.357c.008.565-.146.721-.714.716-3.463-.026-6.925-.013-10.388-.013s-6.926-.012-10.388.012c-.55,0-.734-.121-.725-.7q.052-3.463,0-6.926c-.008-.565.147-.717.714-.716q10.388.03,20.777,0c.549,0,.734.121.725.7q-.052,3.463,0,6.926" transform="translate(-55.142 -18.4)"/>
    <path id="Trazado_605850" data-name="Trazado 605850" d="M95.875,95.782c-7.364.03-14.729.018-22.093.018-2.01,0-1.978,0-2.017,1.991-.013.65.154.805.8.8,3.869-.034,7.74-.017,11.609-.017H94.832c1.916,0,1.877,0,1.932-1.9.021-.724-.17-.891-.889-.888" transform="translate(-55.138 -73.592)"/>
    <path id="Trazado_605851" data-name="Trazado 605851" d="M72.606,146.5c7.364-.028,14.729-.018,22.093-.018,2.065,0,2.039,0,2.066-2.027.008-.6-.128-.768-.748-.763-3.9.032-7.8.016-11.7.016H73.751c-1.968,0-1.939,0-1.98,1.941-.014.662.142.853.835.851" transform="translate(-55.143 -110.399)"/>
    <path id="Trazado_605852" data-name="Trazado 605852" d="M95.923,167.634c-7.364.026-14.729.016-22.093.016-2.057,0-2.03,0-2.058,2.036-.009.611.152.758.757.753,3.9-.03,7.8-.015,11.7-.015H94.8c1.96,0,1.927,0,1.973-1.949.016-.681-.171-.844-.845-.841" transform="translate(-55.144 -128.797)"/>
    <path id="Trazado_605853" data-name="Trazado 605853" d="M83.577,122.545c2.142,0,2.125,0,2.1-2.165-.006-.487-.131-.627-.622-.621-2.079.027-4.158.011-6.236.011H73.88c-2.111,0-2.089,0-2.1,2.078,0,.564.144.714.71.71,3.7-.026,7.391-.014,11.087-.014" transform="translate(-55.15 -92.014)"/>
    <path id="Trazado_605854" data-name="Trazado 605854" d="M170.392,121.2c0-1.39,0-1.39-1.384-1.39s-1.39,0-1.39,1.384,0,1.39,1.384,1.39,1.39,0,1.39-1.384" transform="translate(-128.785 -92.052)"/>
    <path id="Trazado_605855" data-name="Trazado 605855" d="M146.448,121.151c0-1.342,0-1.342-1.345-1.342-1.428,0-1.428,0-1.428,1.432,0,1.342,0,1.342,1.345,1.342,1.429,0,1.429,0,1.429-1.432" transform="translate(-110.388 -92.052)"/>
    <path id="Trazado_605856" data-name="Trazado 605856" d="M319.557,273.238c0-3-.023-6.01.017-9.014.009-.667-.187-.809-.819-.8-2.282.039-4.564.03-6.846,0-.515-.006-.688.108-.686.662q.032,9.058,0,18.115c0,.552.167.67.685.664,2.282-.027,4.564-.035,6.846,0,.629.011.83-.126.821-.8-.041-2.946-.018-5.894-.018-8.841m-3.564,6.865c-1.982-.034-1.983,0-1.983-1.944v-5.1c0-2.047.021-4.095-.014-6.141-.01-.571.157-.714.717-.713,2.07.005,2.07-.016,2.07,2.028,0,3.691-.018,7.381.017,11.072.006.653-.164.813-.807.8" transform="translate(-239.12 -202.397)"/>
    <path id="Trazado_605857" data-name="Trazado 605857" d="M223.2,215.557q-3.553.028-7.105,0c-.477,0-.657.108-.641.618.037,1.183.012,2.369.012,3.553s.025,2.37-.012,3.553c-.016.51.164.622.641.618q3.553-.033,7.105,0c.439,0,.6-.1.6-.573q-.034-3.6,0-7.193c0-.471-.157-.576-.6-.573m-3.644,5.557c-1.318,0-1.318,0-1.318-1.37,0-1.4,0-1.4,1.37-1.4,1.4,0,1.4,0,1.4,1.37,0,1.4,0,1.4-1.456,1.4" transform="translate(-165.537 -165.617)"/>
    <path id="Trazado_605858" data-name="Trazado 605858" d="M311.917,223.9c1.155-.031,2.31-.01,3.466-.01,1.184,0,2.369-.023,3.552.011.5.015.631-.144.626-.632-.024-2.369-.019-4.738,0-7.107,0-.428-.083-.609-.564-.6q-3.6.035-7.192,0c-.46,0-.585.137-.582.588.02,2.369.03,4.738-.005,7.106-.009.575.207.661.7.647m3.481-5.558c1.38,0,1.38,0,1.38,1.394s0,1.38-1.394,1.38-1.38,0-1.38-1.394,0-1.38,1.394-1.38" transform="translate(-239.115 -165.615)"/>
    <path id="Trazado_605859" data-name="Trazado 605859" d="M223.253,263.447c-2.4.015-4.795.023-7.192-.005-.538-.007-.6.215-.594.663.025,1.155.008,2.311.008,3.467,0,1.185.016,2.369-.008,3.553-.009.449.057.67.594.663,2.4-.029,4.795-.02,7.192,0,.4,0,.554-.1.551-.528q-.027-3.64,0-7.28c0-.429-.151-.531-.551-.528M219.724,269c-1.476,0-1.476,0-1.476-1.47,0-1.3,0-1.3,1.3-1.3,1.476,0,1.476,0,1.476,1.471,0,1.3,0,1.3-1.3,1.3" transform="translate(-165.547 -202.409)"/>
    <path id="Trazado_605860" data-name="Trazado 605860" d="M271.686,264.041c0-.448-.116-.594-.579-.59-2.4.022-4.795.016-7.192,0-.381,0-.571.061-.567.511.02,2.427.023,4.854,0,7.28-.005.507.223.549.624.543,1.155-.018,2.311-.006,3.466-.006,1.184,0,2.369-.02,3.552.01.491.012.712-.066.7-.645-.035-2.368-.025-4.738-.006-7.106m-4.118,4.968c-1.438,0-1.438,0-1.438-1.422,0-1.352,0-1.352,1.336-1.352,1.438,0,1.438,0,1.438,1.422,0,1.352,0,1.352-1.336,1.352" transform="translate(-202.335 -202.416)"/>
    <path id="Trazado_605861" data-name="Trazado 605861" d="M223.253,311.342c-2.4.015-4.795.023-7.192-.005-.538-.007-.6.215-.594.663.025,1.155.008,2.311.008,3.467,0,1.185.016,2.369-.008,3.553-.009.449.057.67.594.664,2.4-.029,4.795-.02,7.192-.005.4,0,.554-.1.551-.528q-.027-3.64,0-7.28c0-.429-.151-.531-.551-.528M219.68,316.9c-1.432,0-1.432,0-1.432-1.428,0-1.346,0-1.346,1.342-1.346,1.431,0,1.431,0,1.431,1.428,0,1.346,0,1.346-1.342,1.346" transform="translate(-165.547 -239.208)"/>
    <path id="Trazado_605862" data-name="Trazado 605862" d="M271.68,311.9c0-.4-.1-.554-.528-.551q-3.639.027-7.279,0c-.429,0-.531.151-.528.551.015,2.4.023,4.8-.005,7.193-.007.538.215.6.663.594,1.155-.025,2.31-.008,3.466-.008,1.184,0,2.369-.016,3.553.008.449.009.67-.057.663-.594-.029-2.4-.02-4.8-.005-7.193m-4.209,5.005c-1.345,0-1.345,0-1.345-1.342,0-1.432,0-1.432,1.428-1.432,1.345,0,1.345,0,1.345,1.343,0,1.432,0,1.432-1.428,1.432" transform="translate(-202.33 -239.22)"/>
    <path id="Trazado_605863" data-name="Trazado 605863" d="M263.344,223.348c0,.4.1.554.528.551q3.639-.026,7.279,0c.429,0,.531-.151.528-.551-.015-2.4-.024-4.8,0-7.193.007-.538-.215-.6-.663-.594-1.155.025-2.311.008-3.466.008-1.184,0-2.369.016-3.553-.008-.449-.009-.67.057-.663.594.029,2.4.02,4.8,0,7.193m4.213-5.005c1.341,0,1.341,0,1.341,1.347,0,1.427,0,1.427-1.433,1.427-1.341,0-1.341,0-1.341-1.346,0-1.428,0-1.428,1.432-1.428" transform="translate(-202.33 -165.62)"/>
    <path id="Trazado_605864" data-name="Trazado 605864" d="M267.829,85.723c-.634.072-1.353.021-1.519-.669-.181-.753-.6-.739-1.16-.711a7.544,7.544,0,0,1-1.211,0c-.547-.06-.631.2-.559.652a3.466,3.466,0,0,0,1.729,2.756c.971.476,1.211,1.09,1.031,1.855a8.122,8.122,0,0,1-.007,1.043c-.086.572.184.647.682.648,2.1.007,2.1.023,2.1-2.08a2.688,2.688,0,0,0,0-.346c-.051-.4.108-.587.488-.773a3.752,3.752,0,0,0,2.274-3.5,3.817,3.817,0,0,0-2.239-3.614c-.818-.423-1.644-.83-2.469-1.239a1.216,1.216,0,0,1-.806-1.3,1.119,1.119,0,0,1,1.023-1.019c.623-.084,1.367-.062,1.541.624.211.833.715.772,1.309.749a7.2,7.2,0,0,1,1.124.006c.517.061.578-.2.518-.607a3.663,3.663,0,0,0-1.98-2.97,1.248,1.248,0,0,1-.794-1.387c.036-1.994.012-1.972-2-1.994-.58-.006-.838.1-.772.74.059.571-.005,1.154.019,1.73a.652.652,0,0,1-.452.712,3.767,3.767,0,0,0-2.315,3.558,3.879,3.879,0,0,0,2.348,3.639q1.195.6,2.395,1.2a1.182,1.182,0,0,1,.764,1.314,1.129,1.129,0,0,1-1.059.984" transform="translate(-202.345 -55.204)"/>
    <path id="Trazado_605865" data-name="Trazado 605865" d="M105.244,35.938q-10.389.026-20.777,0c-.567,0-.722.151-.714.716q.048,3.463,0,6.927c-.009.583.176.708.725.7,3.463-.024,6.926-.012,10.389-.012s6.926-.013,10.388.013c.568,0,.722-.152.714-.716q-.048-3.463,0-6.926c.009-.583-.176-.706-.725-.7" transform="translate(-64.349 -27.611)" fill="#fe816e"/>
    <path id="Trazado_605866" data-name="Trazado 605866" d="M325.979,277.435c0-2.044,0-2.023-2.07-2.028-.56,0-.727.142-.717.713.035,2.047.013,4.094.013,6.141v5.1c0,1.94,0,1.91,1.983,1.944.644.011.814-.149.807-.8-.035-3.69-.017-7.381-.017-11.072" transform="translate(-248.316 -211.602)" fill="#fe816e"/>
    <path id="Trazado_605867" data-name="Trazado 605867" d="M228.848,227.573c-1.37,0-1.37,0-1.37,1.4,0,1.37,0,1.37,1.318,1.37,1.456,0,1.456,0,1.456-1.4,0-1.37,0-1.37-1.4-1.37" transform="translate(-174.777 -174.85)" fill="#fe816e"/>
    <path id="Trazado_605868" data-name="Trazado 605868" d="M324.631,230.347c1.394,0,1.394,0,1.394-1.38s0-1.394-1.38-1.394-1.394,0-1.394,1.38,0,1.394,1.38,1.394" transform="translate(-248.362 -174.85)" fill="#fe816e"/>
    <path id="Trazado_605869" data-name="Trazado 605869" d="M228.775,275.468c-1.3,0-1.3,0-1.3,1.3,0,1.47,0,1.47,1.476,1.47,1.3,0,1.3,0,1.3-1.3,0-1.47,0-1.47-1.476-1.47" transform="translate(-174.776 -211.649)" fill="#fe816e"/>
    <path id="Trazado_605870" data-name="Trazado 605870" d="M276.7,275.468c-1.336,0-1.336,0-1.336,1.352,0,1.422,0,1.422,1.438,1.422,1.336,0,1.336,0,1.336-1.352,0-1.422,0-1.422-1.438-1.422" transform="translate(-211.57 -211.649)" fill="#fe816e"/>
    <path id="Trazado_605871" data-name="Trazado 605871" d="M228.819,323.363c-1.342,0-1.342,0-1.342,1.346,0,1.428,0,1.428,1.432,1.428,1.342,0,1.342,0,1.342-1.346,0-1.428,0-1.428-1.431-1.428" transform="translate(-174.776 -248.448)" fill="#fe816e"/>
    <path id="Trazado_605872" data-name="Trazado 605872" d="M276.792,323.363c-1.428,0-1.428,0-1.428,1.432,0,1.342,0,1.342,1.346,1.342,1.428,0,1.428,0,1.428-1.432,0-1.343,0-1.343-1.345-1.343" transform="translate(-211.569 -248.448)" fill="#fe816e"/>
    <path id="Trazado_605873" data-name="Trazado 605873" d="M276.7,230.347c1.433,0,1.433,0,1.433-1.427,0-1.347,0-1.347-1.341-1.347-1.432,0-1.432,0-1.432,1.428,0,1.346,0,1.346,1.341,1.346" transform="translate(-211.569 -174.85)" fill="#fe816e"/>
  </g>
</svg>
