<svg xmlns="http://www.w3.org/2000/svg" xmlns:xlink="http://www.w3.org/1999/xlink" width="101" height="101" viewBox="0 0 101 101">
  <defs>
    <clipPath id="clip-path">
      <rect id="Rectángulo_294779" data-name="Rectángulo 294779" width="67.288" height="67.295" fill="#fff"/>
    </clipPath>
  </defs>
  <g id="Grupo_236163" data-name="Grupo 236163" transform="translate(-809.948 -5165)">
    <circle id="Elipse_4714" data-name="Elipse 4714" cx="50.5" cy="50.5" r="50.5" transform="translate(809.948 5165)" fill="#6e2034"/>
    <g id="Grupo_236150" data-name="Grupo 236150" transform="translate(825.254 5179.306)">
      <g id="Grupo_236149" data-name="Grupo 236149" clip-path="url(#clip-path)">
        <path id="Trazado_607641" data-name="Trazado 607641" d="M20.337,62.171c.812.173,1.63.327,2.453.427.472.057.588.23.589.7A3.8,3.8,0,0,0,26.6,67.234a5.534,5.534,0,0,0,.981.058q17.742,0,35.483,0a3.9,3.9,0,0,0,4.218-4.209q0-7.82,0-15.641a3.9,3.9,0,0,0-4.179-4.185q-5.421-.005-10.842,0H51.5a26.523,26.523,0,0,0-1.716-17.9h.838q5.06,0,10.119,0a2.916,2.916,0,0,0,2.624-4.573C59.81,14.619,56.23,8.461,52.687,2.282A4.114,4.114,0,0,0,50.2,0H48.888A5.463,5.463,0,0,0,46.4,2.723C44.3,6.4,42.163,10.061,40.059,13.74c-.251.439-.429.488-.877.226a24.274,24.274,0,0,0-8.512-3.075c-.558-.088-.755-.309-.656-.839a.373.373,0,0,0,0-.066,3.264,3.264,0,0,1,.043-1.234c.195-.425.736-.142,1.119-.229a2.847,2.847,0,0,0,2.206-3.066,2.745,2.745,0,0,0-2.755-2.482c-2.387-.031-4.774-.009-7.161-.009-.613,0-1.227-.021-1.839.008a2.785,2.785,0,0,0,.058,5.569c.514,0,.659.133.648.653-.031,1.54-.008,1.538-1.506,1.834a24.887,24.887,0,0,0-5.346,1.726c-.67.3-.882.783-.623,1.358a.97.97,0,0,0,1.431.442A23.834,23.834,0,0,1,26.274,12.4,24.622,24.622,0,0,1,50.1,32.806a24.316,24.316,0,0,1-.5,9.957c-.105.409-.264.534-.659.5-.478-.038-1.151.155-1.387-.091s.166-.86.265-1.319c1.812-8.338-.453-15.519-6.524-21.359-6.173-5.939-13.646-7.556-21.745-5.017C11.343,18.052,6.205,23.818,4.4,32.233A22.241,22.241,0,0,0,21.433,58.406c.278.061.559.105.835.171.355.085.932-.069,1.027.244a5.361,5.361,0,0,1,.055,1.692c-.011.3-.252.149-.4.128A23.5,23.5,0,0,1,7.509,52.067,23.907,23.907,0,0,1,2.023,35.251,23.429,23.429,0,0,1,11.34,17.536c.171-.136.352-.261.515-.406a.947.947,0,0,0,.15-1.39.923.923,0,0,0-1.342-.167,21.857,21.857,0,0,0-2.372,1.97,25.936,25.936,0,0,0-8.156,16.3c-.013.12.036.272-.136.328V38.9a20.458,20.458,0,0,1,.506,2.862,26.18,26.18,0,0,0,19.831,20.4m7.7-52.053c.085.278-.028.433-.375.408-.5-.036-1-.009-1.5-.009v0H24.849c-.109,0-.259.053-.321,0-.49-.415-.146-.976-.227-1.467-.034-.2-.112-.5.3-.492a17.357,17.357,0,0,1,3.129.056c.732.148.145,1,.3,1.507M26.1,6.588c-1.376,0-2.753,0-4.13,0-.689,0-1.049-.274-1.072-.787-.024-.533.364-.859,1.068-.86q4.2-.008,8.39,0c.736,0,1.079.293,1.059.856-.019.536-.346.788-1.055.791-1.42.005-2.841,0-4.261,0M48.454,22.964A25.561,25.561,0,0,0,41.809,15.7c-.362-.268-.381-.44-.159-.821q3.533-6.053,7.028-12.128c.629-1.087,1.357-1.086,1.987,0q5.463,9.44,10.923,18.881c.648,1.121.287,1.757-1,1.759q-2.824,0-5.647,0c-1.9,0-3.809-.01-5.713.009a.784.784,0,0,1-.778-.436M30,65.328c-.939-.031-1.88.009-2.819-.016a1.809,1.809,0,0,1-1.811-1.649c-.052-1.131-.012-2.266-.012-3.4a6.094,6.094,0,0,1,4.993,4.606c.058.3.058.476-.35.462m35.284-1.64A1.768,1.768,0,0,1,63.634,65.3c-1.128.056-2.26.014-3.4.014A6.068,6.068,0,0,1,65.3,60.234c0,1.157.051,2.309-.017,3.454M63.464,45.244A1.854,1.854,0,0,1,65.3,47.025c.038.917.01,1.836.011,2.754,0,.173,0,.346,0,.523a5.99,5.99,0,0,1-5.064-5.068c1.073,0,2.144-.032,3.212.009m-5.692-.021c.312,0,.442.071.512.4A8.036,8.036,0,0,0,65,52.287c.241.05.324.118.323.365-.009,1.752-.016,3.5,0,5.256.005.486-.372.357-.592.4a8.1,8.1,0,0,0-5.636,4.216,6.42,6.42,0,0,0-.767,2.217c-.06.443-.216.591-.7.588-4.095-.025-8.189-.015-12.284-.015-4.117,0-8.234-.006-12.35.008-.418,0-.6-.081-.675-.542a8.034,8.034,0,0,0-6.309-6.431c-.51-.1-.711-.248-.692-.819.052-1.575.027-3.153.01-4.73,0-.342.08-.463.44-.544a7.988,7.988,0,0,0,6.575-6.634c.068-.331.216-.4.531-.4q12.449.012,24.9,0M25.358,46.984a1.843,1.843,0,0,1,1.862-1.748c.48-.024.962,0,1.443,0v0c.437,0,.876.023,1.311-.007.363-.025.444.092.383.442a6.343,6.343,0,0,1-4.692,4.627c-.295.046-.333-.048-.331-.292.011-1.006-.019-2.012.024-3.016M23.38,55.973c.008.622-.151.789-.752.657C14.357,54.819,8.81,49.95,6.551,41.762,3.616,31.124,10.512,19.6,21.165,16.976a20.357,20.357,0,0,1,24.69,14.93,19.435,19.435,0,0,1-.333,10.806.662.662,0,0,1-.771.558c-2.912-.023-5.824-.012-8.736-.012q-4.237,0-8.473,0a3.88,3.88,0,0,0-4.176,4.174c-.006,2.847-.021,5.694.014,8.54" fill="#fff"/>
        <path id="Trazado_607642" data-name="Trazado 607642" d="M132.295,162.595a3.195,3.195,0,0,0,4.185-4.586.628.628,0,0,1-.008-.8c1.212-2.05,2.407-4.11,3.621-6.159.309-.523.428-1.019-.065-1.481a1,1,0,0,0-1.583.388c-1.2,2.033-2.393,4.068-3.568,6.114-.229.4-.448.7-.894.525a3.2,3.2,0,0,0-1.688,6m1.559-4.029a1.222,1.222,0,1,1-1.231,1.171,1.195,1.195,0,0,1,1.231-1.171" transform="translate(-107.686 -123.086)" fill="#fff"/>
        <path id="Trazado_607643" data-name="Trazado 607643" d="M188,122.323a.838.838,0,0,0,1.044.04,4.628,4.628,0,0,0,1.222-1.934.992.992,0,0,0-.571-1.042.863.863,0,0,0-1.035.159,5.449,5.449,0,0,0-1.023,1.737.869.869,0,0,0,.362,1.041" transform="translate(-154.632 -98.334)" fill="#fff"/>
        <path id="Trazado_607644" data-name="Trazado 607644" d="M221.146,157.389a4.95,4.95,0,0,0,1.872-1.165.861.861,0,0,0-.062-1.147.908.908,0,0,0-1.18-.242,14.26,14.26,0,0,0-1.357.78.9.9,0,0,0-.407,1.08c.147.479.533.659,1.133.695" transform="translate(-181.33 -127.541)" fill="#fff"/>
        <path id="Trazado_607645" data-name="Trazado 607645" d="M231.938,203.986a.876.876,0,0,0,.82.873,6.611,6.611,0,0,0,.852.007v0c.284,0,.57.02.852,0a.884.884,0,0,0,.862-.906.87.87,0,0,0-.761-.99,5.258,5.258,0,0,0-1.891.006.873.873,0,0,0-.734,1.01" transform="translate(-191.198 -167.253)" fill="#fff"/>
        <path id="Trazado_607646" data-name="Trazado 607646" d="M143.459,108.943a.888.888,0,0,0,.907.858.858.858,0,0,0,.971-.7,4.682,4.682,0,0,0-.009-2.017.859.859,0,0,0-.993-.67.875.875,0,0,0-.871.825,8.4,8.4,0,0,0-.005.852h-.005a7.788,7.788,0,0,0,.005.852" transform="translate(-118.249 -87.719)" fill="#fff"/>
        <path id="Trazado_607647" data-name="Trazado 607647" d="M95.992,122.191a.867.867,0,0,0,1.087.168,1.012,1.012,0,0,0,.532-1.047,4.858,4.858,0,0,0-1.2-1.906.964.964,0,0,0-1.442,1.047,5.353,5.353,0,0,0,1.02,1.738" transform="translate(-78.249 -98.291)" fill="#fff"/>
        <path id="Trazado_607648" data-name="Trazado 607648" d="M59.991,156.484a10.433,10.433,0,0,0,1.412.82.969.969,0,0,0,1.4-.9.694.694,0,0,0-.2-.572,5.01,5.01,0,0,0-1.849-1.069.85.85,0,0,0-1.066.55.9.9,0,0,0,.308,1.168" transform="translate(-49.122 -127.548)" fill="#fff"/>
        <path id="Trazado_607649" data-name="Trazado 607649" d="M96.979,279.8a.892.892,0,0,0-1.1.338,13.349,13.349,0,0,0-.845,1.473.873.873,0,0,0,.282,1.115.846.846,0,0,0,1.094.07,4.375,4.375,0,0,0,1.221-1.957.984.984,0,0,0-.648-1.038" transform="translate(-78.258 -230.606)" fill="#fff"/>
        <path id="Trazado_607650" data-name="Trazado 607650" d="M50.1,203.964a.881.881,0,0,0-.827-1,5.64,5.64,0,0,0-1.826.024.962.962,0,0,0,.1,1.885c.3.03.611.005.917.005v.011c.24,0,.482.017.721,0a.894.894,0,0,0,.912-.922" transform="translate(-38.517 -167.265)" fill="#fff"/>
        <path id="Trazado_607651" data-name="Trazado 607651" d="M61.462,247.44a9.4,9.4,0,0,0-1.468.851.891.891,0,0,0-.308,1.114,1.019,1.019,0,0,0,.994.634,5.941,5.941,0,0,0,1.716-.915.967.967,0,0,0-.934-1.683" transform="translate(-49.141 -203.898)" fill="#fff"/>
        <path id="Trazado_607652" data-name="Trazado 607652" d="M213.126,276.569c.038,7.107,6.345,9.749,10.669,8.047.967-.38,1.3-.849,1.036-1.5-.245-.6-.778-.684-1.744-.342a5.7,5.7,0,0,1-6.326-1.453,5.562,5.562,0,0,1-1.292-6.3,5.622,5.622,0,0,1,5.181-3.819,5.971,5.971,0,0,1,5.913,8.162c-.265.716-.092,1.273.466,1.493s1.073-.055,1.366-.766c.042-.1.087-.2.12-.3a7.737,7.737,0,0,0-2.208-8.5,7.442,7.442,0,0,0-8.537-1.363,7.319,7.319,0,0,0-4.644,6.647" transform="translate(-175.693 -221.887)" fill="#fff"/>
        <path id="Trazado_607653" data-name="Trazado 607653" d="M245.3,293.3a2.4,2.4,0,0,1-1.107-.344.927.927,0,0,0-1.26.361.952.952,0,0,0,.293,1.325,3.983,3.983,0,0,0,.81.418c.229.091.416.171.5.442a.874.874,0,0,0,.933.673.9.9,0,0,0,.863-.771c.063-.314.268-.4.487-.545a2.61,2.61,0,0,0,1.285-2.613,2.4,2.4,0,0,0-1.747-2.082,4.909,4.909,0,0,1-1.139-.486c-.143-.1-.308-.213-.244-.42s.254-.269.465-.29a1.6,1.6,0,0,1,.855.284.931.931,0,0,0,1.422-.845,1.173,1.173,0,0,0-.781-1.043,1.175,1.175,0,0,1-.693-.7.9.9,0,0,0-1.653.015,1.561,1.561,0,0,1-.684.809,2.274,2.274,0,0,0,.128,3.767,7.51,7.51,0,0,0,1.54.713c.355.129.669.274.557.733a.771.771,0,0,1-.828.6" transform="translate(-200.139 -235.874)" fill="#fff"/>
        <path id="Trazado_607654" data-name="Trazado 607654" d="M279.116,46.085c-.008-.8-.35-1.193-.99-1.187s-.972.405-.975,1.208q-.014,3.408,0,6.817c0,.783.367,1.2,1,1.19s.963-.406.97-1.21c.01-1.136,0-2.272,0-3.408s.009-2.272,0-3.408" transform="translate(-228.466 -37.012)" fill="#fff"/>
        <path id="Trazado_607655" data-name="Trazado 607655" d="M278.4,107.762a.985.985,0,0,0,.012,1.967.985.985,0,0,0-.012-1.967" transform="translate(-228.734 -88.835)" fill="#fff"/>
      </g>
    </g>
  </g>
</svg>
