<svg id="Grupo_236065" data-name="Grupo 236065" xmlns="http://www.w3.org/2000/svg" xmlns:xlink="http://www.w3.org/1999/xlink" width="101.897" height="102" viewBox="0 0 101.897 102">
  <defs>
    <clipPath id="clip-path">
      <rect id="Rectángulo_294754" data-name="Rectángulo 294754" width="101.897" height="102" fill="none"/>
    </clipPath>
  </defs>
  <g id="Grupo_236064" data-name="Grupo 236064" clip-path="url(#clip-path)">
    <path id="Trazado_607401" data-name="Trazado 607401" d="M71.24,101.981q-35.212,0-70.424.019c-.681,0-.815-.133-.814-.815Q.034,56.72.02,12.254a.616.616,0,0,1,.333-.114c2.516-.061,5.033-.009,7.549-.027,2.881-.022,4.092-1.233,4.109-4.136.012-2.153,0-4.305,0-6.458A4.309,4.309,0,0,1,12.126.142,1.735,1.735,0,0,1,13.191.026Q41.619.017,70.046.021c2.622,0,3.964,1.267,4.127,3.887.024.4.019.795.019,1.192q0,23.907,0,47.814a4.587,4.587,0,0,1-.037.889c.106.682-.322,1.1-.75,1.53l-8.432,8.432q-7.1,7.1-14.193,14.195a4.856,4.856,0,0,0-1.07,1.3c-1.1,2.3-1.808,4.747-2.737,7.111-.325.779-.612,1.571-.888,2.367a1.6,1.6,0,0,1-.947,1.16A7.391,7.391,0,0,1,43.259,90q-15.508,0-31.017,0c-.464,0-.928-.012-1.391.023-1.02.078-1.675.669-1.656,1.487.017.747.668,1.256,1.7,1.328q.248.017.5.018c11.564,0,23.128.018,34.689-.011,2.026.189,3.736-.841,5.554-1.453,2.521-.934,5.07-1.8,7.523-2.9a4.636,4.636,0,0,0,1.222-1q6.034-6.034,12.068-12.067a6.026,6.026,0,0,1,.877-.8c.352-.235.617-.194.756.246a5.176,5.176,0,0,1,.1,1.382q0,10.561,0,21.122c0,.265,0,.529-.015.793a3.678,3.678,0,0,1-2.925,3.812" transform="translate(-0.001 0)" fill="#fff"/>
    <path id="Trazado_607402" data-name="Trazado 607402" d="M124.175,78.621c-.675-.833-1.345-1.671-2.029-2.5-.2-.238-.322-.595-.735-.556a18.568,18.568,0,0,1-2.333-2.805c-2.531-3.1-4.979-6.259-7.447-9.406-.21-.267-.575-.5-.382-.937l-2.793-3.7a1.369,1.369,0,0,1,.638-.849c4.03-3.285,8.1-6.52,12.162-9.766.32-.256.617-.628,1.119-.53l15.743,19.912c.108.5-.281.707-.576.947q-6.007,4.889-12.079,9.7c-.356.282-.686.787-1.287.495" transform="translate(-79.618 -34.911)" fill="#a46a43"/>
    <path id="Trazado_607403" data-name="Trazado 607403" d="M210.845,183.045q3.431-3.4,6.864-6.8c.278-.275.583-.521.876-.781a1.083,1.083,0,0,1,.661.4q1.891,1.871,3.762,3.763a1.363,1.363,0,0,1,.5.827c-.049.513-.444.8-.766,1.119q-15.26,15.271-30.529,30.533a2.3,2.3,0,0,1-.851.666.965.965,0,0,1-.771-.372q-1.971-1.932-3.9-3.9a.951.951,0,0,1-.315-.6c.047-.525.487-.769.8-1.087q11.569-11.592,23.15-23.173c.185-.185.349-.391.524-.587" transform="translate(-136.815 -128.808)" fill="#ced371"/>
    <path id="Trazado_607404" data-name="Trazado 607404" d="M205.043,226.432c.283-.321.551-.658.852-.96q15.2-15.207,30.4-30.409c.279-.28.534-.584.8-.876.353-.136.566.113.77.312q1.951,1.9,3.855,3.852c.2.208.434.423.345.771q-6.122,6.151-12.242,12.3-2.76,2.777-5.5,5.57-5.915,5.883-11.837,11.76a15.921,15.921,0,0,1-2.676,2.494,16.022,16.022,0,0,1-4.765-4.815" transform="translate(-150.525 -142.527)" fill="#9ea257"/>
    <path id="Trazado_607405" data-name="Trazado 607405" d="M62.539,141.672c-.408.019-.629.346-.9.568q-7.977,6.421-15.948,12.849a3.585,3.585,0,1,1-4.577-5.5c4.734-3.843,9.5-7.653,14.226-11.5a11.494,11.494,0,0,0,2.511-2.209c.357-.069.548.178.73.407,1.228,1.548,2.515,3.047,3.723,4.611.17.221.44.434.241.779" transform="translate(-29.12 -99.74)" fill="#a46a43"/>
    <path id="Trazado_607406" data-name="Trazado 607406" d="M54.945,241.773q-9.592,0-19.184,0a10.03,10.03,0,0,1-1.092-.027,1.72,1.72,0,0,1-1.581-1.73,1.761,1.761,0,0,1,1.624-1.7c.3-.028.6-.015.894-.015H74.47c1.663,0,2.507.573,2.526,1.708.019,1.181-.825,1.764-2.568,1.765q-9.741,0-19.482,0" transform="translate(-24.29 -174.937)" fill="#3d4012"/>
    <path id="Trazado_607407" data-name="Trazado 607407" d="M109.149,32.33,95.229,43.475c-1.5.7-2.065.571-3.068-.7-.429-.546-.874-1.082-1.285-1.642a1.722,1.722,0,0,1,.283-2.556q7.031-5.673,14.093-11.309a1.693,1.693,0,0,1,2.61.336c.4.481.783.984,1.171,1.479,1.066,1.356,1.084,1.879.114,3.252" transform="translate(-66.393 -19.669)" fill="#ca8252"/>
    <path id="Trazado_607408" data-name="Trazado 607408" d="M165.627,132.966a18.058,18.058,0,0,0,3.39-2.521c3.315-2.6,6.585-5.264,9.867-7.91a7.868,7.868,0,0,0,.686-.706,2.434,2.434,0,0,1,3.321,1.251,3.511,3.511,0,0,0,.3.4c1.637,2.056,1.57,2.493-.525,4.169q-6.324,5.06-12.628,10.145c-1.571,1.263-2.306,1.182-3.54-.4a3.191,3.191,0,0,0-.239-.317c-1.22-1.215-1.96-2.5-.631-4.105" transform="translate(-121.071 -89.256)" fill="#ca8252"/>
    <path id="Trazado_607409" data-name="Trazado 607409" d="M70.473,340.568a1.623,1.623,0,0,1-1.053.195q-17.19,0-34.381.007a2.041,2.041,0,0,1-1.962-.907,1.752,1.752,0,0,1,1.331-2.617,7.493,7.493,0,0,1,1.091-.026l33.983-.01a.468.468,0,0,1,.169.434,2.64,2.64,0,0,0,.794,2.648c.07.065.052.18.027.276" transform="translate(-24.103 -247.551)" fill="#3d4012"/>
    <path id="Trazado_607410" data-name="Trazado 607410" d="M50.681,271.3q7.748,0,15.5,0c1.507,0,2.4,1.135,1.894,2.377a1.673,1.673,0,0,1-1.13,1.028,4.709,4.709,0,0,1-1.379.119q-14.9,0-29.8,0a7.6,7.6,0,0,1-.991-.029,1.8,1.8,0,0,1-1.684-1.864,1.778,1.778,0,0,1,1.9-1.629c1.821-.015,3.642-.005,5.464-.005H50.681" transform="translate(-24.286 -199.161)" fill="#3d4012"/>
    <path id="Trazado_607411" data-name="Trazado 607411" d="M108.114,117.885l-4.693-5.8c-.335-.408-.7-.795-1-1.228a3.486,3.486,0,0,1,.506-4.677c1.083-.963,2.262-1.818,3.4-2.721,2.4,3.043,4.806,6.074,7.179,9.134a24.286,24.286,0,0,1,2.984,4.014c-.762.675-1.521,1.355-2.288,2.025-2.231,1.944-4.33,1.684-6.085-.749" transform="translate(-74.695 -75.953)" fill="#805333"/>
    <path id="Trazado_607412" data-name="Trazado 607412" d="M47.963,304.242q6.455,0,12.911,0a1.8,1.8,0,0,1,2.031,1.594,1.687,1.687,0,0,1-1.4,1.874,5.151,5.151,0,0,1-1.085.072q-12.414.006-24.829,0c-.2,0-.4.007-.6,0a1.836,1.836,0,0,1-1.91-1.855,1.815,1.815,0,0,1,1.969-1.681c4.3-.013,8.607-.005,12.911-.005" transform="translate(-24.286 -223.347)" fill="#3d4012"/>
    <path id="Trazado_607413" data-name="Trazado 607413" d="M.745,13.071Q6.635,7.012,12.694,1.122c.31.3.2.683.2,1.035q.013,3.579,0,7.159a3.65,3.65,0,0,1-3.959,3.959q-3.579.013-7.158,0c-.352,0-.738.11-1.035-.2" transform="translate(-0.547 -0.824)" fill="#ced371"/>
    <path id="Trazado_607414" data-name="Trazado 607414" d="M183.619,302.255l4.765,4.815c-2.415,1.191-4.99,1.972-7.5,2.916-.29-.186-.287-.493-.332-.785a4.8,4.8,0,0,0-3.926-4.264c-.28-.07-.6-.061-.764-.373.765-2.1,1.526-4.2,2.3-6.291a1.729,1.729,0,0,1,.492-.841l4.965,4.822" transform="translate(-129.101 -218.35)" fill="#fcd6ac"/>
    <path id="Trazado_607415" data-name="Trazado 607415" d="M171.5,324.256a5.113,5.113,0,0,1,5.023,5.421c-1.332.488-2.662.981-4,1.463a1.426,1.426,0,0,1-1.413-.081c-1.377-.811-1.332-2.041-.99-3.358l1.377-3.444" transform="translate(-124.74 -238.041)" fill="#3d4012"/>
    <path id="Trazado_607416" data-name="Trazado 607416" d="M326.123,142.072c1.344-1.364,2.62-2.8,4.049-4.072a5.157,5.157,0,0,1,6.889.134c1,.913,1.965,1.873,2.875,2.876a5.156,5.156,0,0,1,.008,6.966c-1.231,1.377-2.61,2.622-3.923,3.926a1.108,1.108,0,0,1-.756-.428c-2.976-2.74-5.831-5.6-8.674-8.478-.248-.251-.571-.485-.468-.923" transform="translate(-239.397 -100.387)" fill="#a3314f"/>
    <path id="Trazado_607417" data-name="Trazado 607417" d="M312.492,156.777q4.95,4.914,9.9,9.829c-1.627,1.763-3.333,3.444-5.083,5.082-1.6-1.7-3.227-3.377-4.969-4.936q-2.007-2.06-4.014-4.122c-.275-.284-.527-.589-.789-.885,1.575-1.733,3.239-3.378,4.956-4.968" transform="translate(-225.767 -115.092)" fill="#94a4a4"/>
  </g>
</svg>
