<svg id="Grupo_235845" data-name="Grupo 235845" xmlns="http://www.w3.org/2000/svg" xmlns:xlink="http://www.w3.org/1999/xlink" width="148.85" height="112.744" viewBox="0 0 148.85 112.744">
  <defs>
    <clipPath id="clip-path">
      <rect id="Rectángulo_294537" data-name="Rectángulo 294537" width="148.85" height="112.744" fill="none"/>
    </clipPath>
  </defs>
  <g id="Grupo_235845-2" data-name="Grupo 235845" clip-path="url(#clip-path)">
    <path id="Trazado_275124" data-name="Trazado 275124" d="M40.839,73.208,5.647,104.342a12.639,12.639,0,1,0,17.075,18.641L54.062,94.059Z" transform="translate(-0.312 -14.79)" fill="#a3314f"/>
    <path id="Trazado_275125" data-name="Trazado 275125" d="M13.877,127.221A13.872,13.872,0,0,1,4.5,103.114L39.705,71.966a1.239,1.239,0,1,1,1.642,1.856L6.156,104.956a11.4,11.4,0,0,0,15.417,16.8l31.336-28.92a1.24,1.24,0,1,1,1.681,1.822L23.251,123.58a13.841,13.841,0,0,1-9.374,3.64" transform="translate(0 -14.476)" fill="#390a93"/>
    <path id="Trazado_275126" data-name="Trazado 275126" d="M33.952,44.024A44.417,44.417,0,1,0,80.273,1.6,44.417,44.417,0,0,0,33.952,44.024" transform="translate(-6.851 -0.314)" fill="#fff"/>
    <path id="Trazado_275127" data-name="Trazado 275127" d="M78.061,91.315q-1.021,0-2.049-.045a45.657,45.657,0,0,1,4-91.227,45.657,45.657,0,0,1,28.838,79.282,45.33,45.33,0,0,1-30.79,11.989M33.638,43.709l1.238.054A43.178,43.178,0,1,0,79.905,2.52,42.9,42.9,0,0,0,34.876,43.764Z" transform="translate(-6.537)" fill="#390a93"/>
    <path id="Trazado_275132" data-name="Trazado 275132" d="M152.464,101.185h20.072a2.121,2.121,0,0,0,2.105-2.14V32.488a2.121,2.121,0,0,0-2.105-2.139H135.9a2.121,2.121,0,0,0-2.105,2.139V81.4Z" transform="translate(-27.032 -6.131)" fill="#fff5ab"/>
    <path id="Trazado_275133" data-name="Trazado 275133" d="M172.221,102.111H152.15a1.24,1.24,0,0,1,0-2.48h20.071a.884.884,0,0,0,.866-.9V32.175a.885.885,0,0,0-.866-.9H135.59a.885.885,0,0,0-.866.9V81.09a1.24,1.24,0,1,1-2.48,0V32.175a3.367,3.367,0,0,1,3.346-3.38h36.632a3.367,3.367,0,0,1,3.346,3.38V98.732a3.367,3.367,0,0,1-3.346,3.379" transform="translate(-26.718 -5.818)" fill="#390a93"/>
    <path id="Trazado_275134" data-name="Trazado 275134" d="M147.862,76.666H133.484a1.24,1.24,0,0,1,0-2.48h14.378a1.24,1.24,0,0,1,0,2.48" transform="translate(-26.718 -14.988)" fill="#390a93"/>
    <path id="Trazado_275135" data-name="Trazado 275135" d="M181.029,76.666H166.651a1.24,1.24,0,0,1,0-2.48h14.378a1.24,1.24,0,1,1,0,2.48" transform="translate(-33.418 -14.988)" fill="#390a93"/>
    <path id="Trazado_275136" data-name="Trazado 275136" d="M147.862,60.887H133.484a1.24,1.24,0,0,1,0-2.48h14.378a1.24,1.24,0,0,1,0,2.48" transform="translate(-26.718 -11.8)" fill="#390a93"/>
    <path id="Trazado_275137" data-name="Trazado 275137" d="M181.029,60.887H166.651a1.24,1.24,0,0,1,0-2.48h14.378a1.24,1.24,0,1,1,0,2.48" transform="translate(-33.418 -11.8)" fill="#390a93"/>
    <path id="Trazado_275138" data-name="Trazado 275138" d="M147.862,45.108H133.484a1.24,1.24,0,0,1,0-2.48h14.378a1.24,1.24,0,0,1,0,2.48" transform="translate(-26.718 -8.612)" fill="#390a93"/>
    <path id="Trazado_275139" data-name="Trazado 275139" d="M181.029,45.108H166.651a1.24,1.24,0,0,1,0-2.48h14.378a1.24,1.24,0,1,1,0,2.48" transform="translate(-33.418 -8.612)" fill="#390a93"/>
    <path id="Trazado_275140" data-name="Trazado 275140" d="M181.029,92.445H166.651a1.24,1.24,0,0,1,0-2.48h14.378a1.24,1.24,0,1,1,0,2.48" transform="translate(-33.418 -18.176)" fill="#390a93"/>
    <path id="Trazado_275141" data-name="Trazado 275141" d="M107.718,111.927a2.162,2.162,0,0,0,2.144,2.18h37.332a2.162,2.162,0,0,0,2.144-2.18V96.509a2.162,2.162,0,0,0-2.144-2.18H109.862a2.162,2.162,0,0,0-2.144,2.18Z" transform="translate(-21.763 -19.058)" fill="#fff5ab"/>
    <path id="Trazado_275142" data-name="Trazado 275142" d="M146.881,115.034H109.548a3.407,3.407,0,0,1-3.384-3.42V96.2a3.407,3.407,0,0,1,3.384-3.42h37.333a3.406,3.406,0,0,1,3.383,3.42v15.418a3.406,3.406,0,0,1-3.383,3.42M109.548,95.255a.923.923,0,0,0-.9.94v15.418a.923.923,0,0,0,.9.94h37.333a.923.923,0,0,0,.9-.94V96.2a.923.923,0,0,0-.9-.94Z" transform="translate(-21.449 -18.744)" fill="#390a93"/>
    <path id="Trazado_275143" data-name="Trazado 275143" d="M122.056,107.291H107.4a1.24,1.24,0,0,1,0-2.48h14.651a1.24,1.24,0,0,1,0,2.48" transform="translate(-21.449 -21.175)" fill="#390a93"/>
    <path id="Trazado_275144" data-name="Trazado 275144" d="M155.853,107.291H141.2a1.24,1.24,0,0,1,0-2.48h14.651a1.24,1.24,0,1,1,0,2.48" transform="translate(-28.277 -21.175)" fill="#390a93"/>
    <g id="Grupo_236120" data-name="Grupo 236120" transform="translate(0 -5.125)">
      <rect id="Rectángulo_294535" data-name="Rectángulo 294535" width="11.039" height="29.076" transform="translate(65.956 29.342)" fill="#ced371"/>
      <path id="Trazado_275129" data-name="Trazado 275129" d="M93.381,66.773a1.24,1.24,0,0,1-1.24-1.24V37.7h-8.56V65.533a1.24,1.24,0,1,1-2.479,0V36.457a1.24,1.24,0,0,1,1.24-1.239H93.381a1.239,1.239,0,0,1,1.239,1.239V65.533a1.24,1.24,0,0,1-1.239,1.24" transform="translate(-16.385 -7.115)" fill="#390a93"/>
      <g id="Polígono_18" data-name="Polígono 18" transform="translate(85.851 70) rotate(180)" fill="#ced371">
        <path d="M 26.52460289001465 13 L 2.475397109985352 13 L 14.5 1.3900386095047 L 26.52460289001465 13 Z" stroke="none"/>
        <path d="M 14.5 2.780086517333984 L 4.950803756713867 12 L 24.04919624328613 12 L 14.5 2.780086517333984 M 14.5 0 L 29 14 L 0 14 L 14.5 0 Z" stroke="none" fill="#390e93"/>
      </g>
    </g>
  </g>
</svg>
