<svg id="Grupo_235842" data-name="Grupo 235842" xmlns="http://www.w3.org/2000/svg" xmlns:xlink="http://www.w3.org/1999/xlink" width="148.851" height="119.934" viewBox="0 0 148.851 119.934">
  <defs>
    <clipPath id="clip-path">
      <rect id="Rect치ngulo_294531" data-name="Rect치ngulo 294531" width="148.851" height="119.934" fill="none"/>
    </clipPath>
  </defs>
  <g id="Grupo_235841" data-name="Grupo 235841" clip-path="url(#clip-path)">
    <path id="Trazado_275073" data-name="Trazado 275073" d="M10.6,65.635A55.037,55.037,0,1,0,65.636,10.6V65.635Z" transform="translate(-2 -2)" fill="#fff"/>
    <path id="Trazado_275074" data-name="Trazado 275074" d="M65.342,121.64a56.361,56.361,0,0,1-56.3-56.3,1.26,1.26,0,0,1,1.26-1.261H64.082V10.306a1.26,1.26,0,0,1,1.26-1.261,56.3,56.3,0,1,1,0,112.6M11.58,66.6A53.777,53.777,0,1,0,66.6,11.581V65.342A1.261,1.261,0,0,1,65.342,66.6Z" transform="translate(-1.707 -1.707)" fill="#390a93"/>
    <path id="Trazado_275075" data-name="Trazado 275075" d="M117.349,117.355l0-.009L78.435,78.435h55.037a54.866,54.866,0,0,1-16.123,38.92" transform="translate(-14.799 -14.799)" fill="#ffa6c6"/>
    <path id="Trazado_275076" data-name="Trazado 275076" d="M117.056,118.323a1.3,1.3,0,0,1-.324-.042,1.259,1.259,0,0,1-.64-.406L77.25,79.033a1.261,1.261,0,0,1,.892-2.152h55.037a1.26,1.26,0,0,1,1.26,1.261,55.929,55.929,0,0,1-16.492,39.812,1.259,1.259,0,0,1-.891.369M81.185,79.4l35.864,35.863A53.382,53.382,0,0,0,131.9,79.4Z" transform="translate(-14.506 -14.506)" fill="#390a93"/>
    <path id="Trazado_275077" data-name="Trazado 275077" d="M117.347,117.358a54.865,54.865,0,0,1-38.911,16.114V78.436l38.911,38.911Z" transform="translate(-14.8 -14.8)" fill="#fff5ab"/>
    <path id="Trazado_275078" data-name="Trazado 275078" d="M78.142,134.44a1.26,1.26,0,0,1-1.26-1.261V78.142a1.261,1.261,0,0,1,2.152-.892l38.912,38.912a1.266,1.266,0,0,1,.368.845,1.281,1.281,0,0,1-.368.948,55.931,55.931,0,0,1-39.8,16.484M79.4,81.185V131.9a53.381,53.381,0,0,0,35.863-14.855Z" transform="translate(-14.506 -14.506)" fill="#390a93"/>
    <path id="Trazado_275079" data-name="Trazado 275079" d="M1.554,56.591A55.038,55.038,0,0,1,56.591,1.554V56.591Z" transform="translate(-0.293 -0.293)" fill="#ced371"/>
    <path id="Trazado_275080" data-name="Trazado 275080" d="M56.3,57.559H1.26A1.26,1.26,0,0,1,0,56.3,56.361,56.361,0,0,1,56.3,0a1.261,1.261,0,0,1,1.261,1.261V56.3A1.261,1.261,0,0,1,56.3,57.559M2.535,55.037h52.5V2.536a53.845,53.845,0,0,0-52.5,52.5" transform="translate(0)" fill="#390a93"/>
    <path id="Trazado_275081" data-name="Trazado 275081" d="M61.41,49.161a1.259,1.259,0,0,1-.892-.369L27.467,15.748a1.261,1.261,0,0,1,1.782-1.783L62.3,47.008a1.26,1.26,0,0,1-.891,2.152" transform="translate(-5.113 -2.565)" fill="#390a93"/>
    <path id="Trazado_275082" data-name="Trazado 275082" d="M64.714,25.445a1.259,1.259,0,0,1-.892-.369L44.978,6.232a1.261,1.261,0,0,1,1.782-1.783L65.606,23.293a1.261,1.261,0,0,1-.892,2.152" transform="translate(-8.417 -0.77)" fill="#390a93"/>
    <path id="Trazado_275083" data-name="Trazado 275083" d="M47.906,62.672a1.259,1.259,0,0,1-.892-.369L13.963,29.252a1.261,1.261,0,1,1,1.782-1.783L48.8,60.52a1.261,1.261,0,0,1-.892,2.152" transform="translate(-2.565 -5.113)" fill="#390a93"/>
    <path id="Trazado_275084" data-name="Trazado 275084" d="M24.184,65.976a1.259,1.259,0,0,1-.892-.369L4.448,46.762a1.26,1.26,0,0,1,1.782-1.782L25.076,63.824a1.261,1.261,0,0,1-.892,2.152" transform="translate(-0.77 -8.417)" fill="#390a93"/>
    <path id="Trazado_275085" data-name="Trazado 275085" d="M171.247,62.967a22.933,22.933,0,1,1-22.933-22.9,22.918,22.918,0,0,1,22.933,22.9" transform="translate(-23.658 -7.559)" fill="#fff"/>
    <path id="Trazado_275086" data-name="Trazado 275086" d="M148.022,86.839a24.165,24.165,0,1,1,24.193-24.165,24.206,24.206,0,0,1-24.193,24.165m0-45.808a21.643,21.643,0,1,0,21.672,21.643,21.682,21.682,0,0,0-21.672-21.643" transform="translate(-23.365 -7.266)" fill="#390a93"/>
    <path id="Trazado_275087" data-name="Trazado 275087" d="M152.255,76.756h-4.73a1.261,1.261,0,0,1,0-2.522h4.73a3.47,3.47,0,1,0,0-6.939,5.991,5.991,0,0,1,0-11.982h4.73a1.26,1.26,0,1,1,0,2.521h-4.73a3.47,3.47,0,1,0,0,6.939,5.991,5.991,0,0,1,0,11.982" transform="translate(-27.598 -10.437)" fill="#390a93"/>
    <path id="Trazado_275088" data-name="Trazado 275088" d="M153.351,85.481a1.261,1.261,0,0,1-1.261-1.261V79.9a1.261,1.261,0,0,1,2.522,0V84.22a1.261,1.261,0,0,1-1.261,1.261" transform="translate(-28.697 -14.838)" fill="#390a93"/>
    <path id="Trazado_275089" data-name="Trazado 275089" d="M153.351,56.663A1.261,1.261,0,0,1,152.09,55.4V50.348a1.261,1.261,0,0,1,2.522,0V55.4a1.261,1.261,0,0,1-1.261,1.261" transform="translate(-28.697 -9.262)" fill="#390a93"/>
    <path id="Rect치ngulo_294530" data-name="Rect치ngulo 294530" d="M2.913,0h40.04a2.912,2.912,0,0,1,2.912,2.912V30.179a2.909,2.909,0,0,1-2.909,2.909H2.912A2.912,2.912,0,0,1,0,30.176V2.913A2.913,2.913,0,0,1,2.913,0Z" transform="translate(101.725 78.332)" fill="#fff5ab"/>
    <path id="Trazado_275090" data-name="Trazado 275090" d="M168.592,130.605H127.452a3.626,3.626,0,0,1-3.623-3.621V98.617A3.626,3.626,0,0,1,127.452,95h41.139a3.626,3.626,0,0,1,3.623,3.621v28.515a3.514,3.514,0,0,1-3.624,3.474M127.452,97.518a1.1,1.1,0,0,0-1.1,1.1v28.368a1.1,1.1,0,0,0,1.1,1.1h41.139a1,1,0,0,0,1.1-.952V98.617a1.1,1.1,0,0,0-1.1-1.1Z" transform="translate(-23.365 -17.924)" fill="#390a93"/>
    <path id="Trazado_275091" data-name="Trazado 275091" d="M162.014,109.364h0Z" transform="translate(-30.569 -20.635)" fill="#fff"/>
    <path id="Trazado_275092" data-name="Trazado 275092" d="M177.866,110.331H161.721a1.261,1.261,0,1,1,0-2.522h16.145a1.261,1.261,0,0,1,0,2.522" transform="translate(-30.276 -20.342)" fill="#390a93"/>
    <path id="Trazado_275093" data-name="Trazado 275093" d="M125.383,109.364h0Z" transform="translate(-23.658 -20.635)" fill="#fff"/>
    <path id="Trazado_275094" data-name="Trazado 275094" d="M141.235,110.331H125.09a1.261,1.261,0,0,1,0-2.522h16.145a1.261,1.261,0,0,1,0,2.522" transform="translate(-23.365 -20.342)" fill="#390a93"/>
    <path id="Trazado_275095" data-name="Trazado 275095" d="M162.014,122.868h0Z" transform="translate(-30.569 -23.183)" fill="#fff"/>
    <path id="Trazado_275096" data-name="Trazado 275096" d="M177.866,123.836H161.721a1.261,1.261,0,1,1,0-2.522h16.145a1.261,1.261,0,1,1,0,2.522" transform="translate(-30.276 -22.89)" fill="#390a93"/>
    <path id="Trazado_275097" data-name="Trazado 275097" d="M125.383,122.868h0Z" transform="translate(-23.658 -23.183)" fill="#fff"/>
    <path id="Trazado_275098" data-name="Trazado 275098" d="M141.235,123.836H125.09a1.261,1.261,0,1,1,0-2.522h16.145a1.261,1.261,0,1,1,0,2.522" transform="translate(-23.365 -22.89)" fill="#390a93"/>
  </g>
</svg>
