<svg xmlns="http://www.w3.org/2000/svg" xmlns:xlink="http://www.w3.org/1999/xlink" width="148.851" height="143.62" viewBox="0 0 148.851 143.62">
  <defs>
    <clipPath id="clip-path">
      <rect id="Rectángulo_294537" data-name="Rectángulo 294537" width="64.135" height="96.294" transform="translate(84.715)" fill="none"/>
    </clipPath>
  </defs>
  <g id="Grupo_236129" data-name="Grupo 236129" transform="translate(5030.851 6301.62)">
    <g id="Grupo_236126" data-name="Grupo 236126" transform="translate(-15.887 -341)">
      <path id="Trazado_607501" data-name="Trazado 607501" d="M61.014,36.612c-.542,31.661-47.608,31.655-48.146,0,.542-31.658,47.609-31.653,48.146,0" transform="translate(-5025.995 -5971.651)" fill="#fff5ab"/>
      <path id="Trazado_607502" data-name="Trazado 607502" d="M37.225,62.476h0c-12.269,0-25.61-8-25.906-25.55a.533.533,0,0,1,0-.061c.3-17.554,13.64-25.549,25.909-25.549h0c12.269,0,25.608,8,25.906,25.55v.061c-.3,17.554-13.64,25.549-25.909,25.549M14.99,36.9C15.26,51.946,26.7,58.8,37.223,58.8S59.186,51.948,59.458,36.9c-.27-15.05-11.71-21.9-22.232-21.906S15.262,21.843,14.99,36.9" transform="translate(-5026.279 -5971.935)" fill="#390a93"/>
      <path id="Trazado_607503" data-name="Trazado 607503" d="M34,46.906H29.01a1.838,1.838,0,0,1,0-3.675H34a3.148,3.148,0,1,0,0-6.3,6.824,6.824,0,0,1,0-13.649h4.987a1.838,1.838,0,1,1,0,3.675H34a3.149,3.149,0,0,0,0,6.3,6.824,6.824,0,1,1,0,13.647" transform="translate(-5023.384 -5969.75)" fill="#390a93"/>
      <path id="Trazado_607504" data-name="Trazado 607504" d="M33.225,48.384a1.838,1.838,0,0,1-1.838-1.838V41.992a1.838,1.838,0,1,1,3.675,0v4.555a1.838,1.838,0,0,1-1.838,1.838" transform="translate(-5022.615 -5966.671)" fill="#390a93"/>
      <path id="Trazado_607505" data-name="Trazado 607505" d="M33.225,27.785a1.838,1.838,0,0,1-1.838-1.838V20.619a1.838,1.838,0,0,1,3.675,0v5.328a1.838,1.838,0,0,1-1.838,1.838" transform="translate(-5022.615 -5970.572)" fill="#390a93"/>
    </g>
    <g id="Grupo_236127" data-name="Grupo 236127" transform="translate(68.828 -303.688)">
      <path id="Trazado_607501-2" data-name="Trazado 607501" d="M61.014,36.612c-.542,31.661-47.608,31.655-48.146,0,.542-31.658,47.609-31.653,48.146,0" transform="translate(-5025.995 -5971.651)" fill="#fff5ab"/>
      <path id="Trazado_607502-2" data-name="Trazado 607502" d="M37.225,62.476h0c-12.269,0-25.61-8-25.906-25.55a.533.533,0,0,1,0-.061c.3-17.554,13.64-25.549,25.909-25.549h0c12.269,0,25.608,8,25.906,25.55v.061c-.3,17.554-13.64,25.549-25.909,25.549M14.99,36.9C15.26,51.946,26.7,58.8,37.223,58.8S59.186,51.948,59.458,36.9c-.27-15.05-11.71-21.9-22.232-21.906S15.262,21.843,14.99,36.9" transform="translate(-5026.279 -5971.935)" fill="#390a93"/>
      <path id="Trazado_607503-2" data-name="Trazado 607503" d="M34,46.906H29.01a1.838,1.838,0,0,1,0-3.675H34a3.148,3.148,0,1,0,0-6.3,6.824,6.824,0,0,1,0-13.649h4.987a1.838,1.838,0,1,1,0,3.675H34a3.149,3.149,0,0,0,0,6.3,6.824,6.824,0,1,1,0,13.647" transform="translate(-5023.384 -5969.75)" fill="#390a93"/>
      <path id="Trazado_607504-2" data-name="Trazado 607504" d="M33.225,48.384a1.838,1.838,0,0,1-1.838-1.838V41.992a1.838,1.838,0,1,1,3.675,0v4.555a1.838,1.838,0,0,1-1.838,1.838" transform="translate(-5022.615 -5966.671)" fill="#390a93"/>
      <path id="Trazado_607505-2" data-name="Trazado 607505" d="M33.225,27.785a1.838,1.838,0,0,1-1.838-1.838V20.619a1.838,1.838,0,0,1,3.675,0v5.328a1.838,1.838,0,0,1-1.838,1.838" transform="translate(-5022.615 -5970.572)" fill="#390a93"/>
    </g>
    <g id="Grupo_236128" data-name="Grupo 236128" transform="translate(4.973 -248.541)">
      <path id="Trazado_607501-3" data-name="Trazado 607501" d="M61.014,36.612c-.542,31.661-47.608,31.655-48.146,0,.542-31.658,47.609-31.653,48.146,0" transform="translate(-5025.995 -5971.651)" fill="#fff5ab"/>
      <path id="Trazado_607502-3" data-name="Trazado 607502" d="M37.225,62.476h0c-12.269,0-25.61-8-25.906-25.55a.533.533,0,0,1,0-.061c.3-17.554,13.64-25.549,25.909-25.549h0c12.269,0,25.608,8,25.906,25.55v.061c-.3,17.554-13.64,25.549-25.909,25.549M14.99,36.9C15.26,51.946,26.7,58.8,37.223,58.8S59.186,51.948,59.458,36.9c-.27-15.05-11.71-21.9-22.232-21.906S15.262,21.843,14.99,36.9" transform="translate(-5026.279 -5971.935)" fill="#390a93"/>
      <path id="Trazado_607503-3" data-name="Trazado 607503" d="M34,46.906H29.01a1.838,1.838,0,0,1,0-3.675H34a3.148,3.148,0,1,0,0-6.3,6.824,6.824,0,0,1,0-13.649h4.987a1.838,1.838,0,1,1,0,3.675H34a3.149,3.149,0,0,0,0,6.3,6.824,6.824,0,1,1,0,13.647" transform="translate(-5023.384 -5969.75)" fill="#390a93"/>
      <path id="Trazado_607504-3" data-name="Trazado 607504" d="M33.225,48.384a1.838,1.838,0,0,1-1.838-1.838V41.992a1.838,1.838,0,1,1,3.675,0v4.555a1.838,1.838,0,0,1-1.838,1.838" transform="translate(-5022.615 -5966.671)" fill="#390a93"/>
      <path id="Trazado_607505-3" data-name="Trazado 607505" d="M33.225,27.785a1.838,1.838,0,0,1-1.838-1.838V20.619a1.838,1.838,0,0,1,3.675,0v5.328a1.838,1.838,0,0,1-1.838,1.838" transform="translate(-5022.615 -5970.572)" fill="#390a93"/>
    </g>
    <g id="Grupo_236125" data-name="Grupo 236125" transform="translate(-5071.851 -6257.293)">
      <g id="Grupo_235845" data-name="Grupo 235845" clip-path="url(#clip-path)">
        <path id="Trazado_275132" data-name="Trazado 275132" d="M152.464,101.185h20.072a2.121,2.121,0,0,0,2.105-2.14V32.488a2.121,2.121,0,0,0-2.105-2.139H135.9a2.121,2.121,0,0,0-2.105,2.139V81.4Z" transform="translate(-27.032 -6.131)" fill="#fff5ab"/>
        <path id="Trazado_275133" data-name="Trazado 275133" d="M172.221,102.111H152.15a1.24,1.24,0,0,1,0-2.48h20.071a.884.884,0,0,0,.866-.9V32.175a.885.885,0,0,0-.866-.9H135.59a.885.885,0,0,0-.866.9V81.09a1.24,1.24,0,1,1-2.48,0V32.175a3.367,3.367,0,0,1,3.346-3.38h36.632a3.367,3.367,0,0,1,3.346,3.38V98.732a3.367,3.367,0,0,1-3.346,3.379" transform="translate(-26.718 -5.818)" fill="#390a93"/>
        <path id="Trazado_275134" data-name="Trazado 275134" d="M147.862,76.666H133.484a1.24,1.24,0,0,1,0-2.48h14.378a1.24,1.24,0,0,1,0,2.48" transform="translate(-26.718 -14.988)" fill="#390a93"/>
        <path id="Trazado_275135" data-name="Trazado 275135" d="M181.029,76.666H166.651a1.24,1.24,0,0,1,0-2.48h14.378a1.24,1.24,0,1,1,0,2.48" transform="translate(-33.418 -14.988)" fill="#390a93"/>
        <path id="Trazado_275136" data-name="Trazado 275136" d="M147.862,60.887H133.484a1.24,1.24,0,0,1,0-2.48h14.378a1.24,1.24,0,0,1,0,2.48" transform="translate(-26.718 -11.8)" fill="#390a93"/>
        <path id="Trazado_275137" data-name="Trazado 275137" d="M181.029,60.887H166.651a1.24,1.24,0,0,1,0-2.48h14.378a1.24,1.24,0,1,1,0,2.48" transform="translate(-33.418 -11.8)" fill="#390a93"/>
        <path id="Trazado_275138" data-name="Trazado 275138" d="M147.862,45.108H133.484a1.24,1.24,0,0,1,0-2.48h14.378a1.24,1.24,0,0,1,0,2.48" transform="translate(-26.718 -8.612)" fill="#390a93"/>
        <path id="Trazado_275139" data-name="Trazado 275139" d="M181.029,45.108H166.651a1.24,1.24,0,0,1,0-2.48h14.378a1.24,1.24,0,1,1,0,2.48" transform="translate(-33.418 -8.612)" fill="#390a93"/>
        <path id="Trazado_275140" data-name="Trazado 275140" d="M181.029,92.445H166.651a1.24,1.24,0,0,1,0-2.48h14.378a1.24,1.24,0,1,1,0,2.48" transform="translate(-33.418 -18.176)" fill="#390a93"/>
        <path id="Trazado_275141" data-name="Trazado 275141" d="M107.718,111.927a2.162,2.162,0,0,0,2.144,2.18h37.332a2.162,2.162,0,0,0,2.144-2.18V96.509a2.162,2.162,0,0,0-2.144-2.18H109.862a2.162,2.162,0,0,0-2.144,2.18Z" transform="translate(-21.763 -19.058)" fill="#fff5ab"/>
        <path id="Trazado_275142" data-name="Trazado 275142" d="M146.881,115.034H109.548a3.407,3.407,0,0,1-3.384-3.42V96.2a3.407,3.407,0,0,1,3.384-3.42h37.333a3.406,3.406,0,0,1,3.383,3.42v15.418a3.406,3.406,0,0,1-3.383,3.42M109.548,95.255a.923.923,0,0,0-.9.94v15.418a.923.923,0,0,0,.9.94h37.333a.923.923,0,0,0,.9-.94V96.2a.923.923,0,0,0-.9-.94Z" transform="translate(-21.449 -18.744)" fill="#390a93"/>
        <path id="Trazado_275143" data-name="Trazado 275143" d="M122.056,107.291H107.4a1.24,1.24,0,0,1,0-2.48h14.651a1.24,1.24,0,0,1,0,2.48" transform="translate(-21.449 -21.175)" fill="#390a93"/>
        <path id="Trazado_275144" data-name="Trazado 275144" d="M155.853,107.291H141.2a1.24,1.24,0,0,1,0-2.48h14.651a1.24,1.24,0,1,1,0,2.48" transform="translate(-28.277 -21.175)" fill="#390a93"/>
      </g>
    </g>
    <g id="Grupo_236122" data-name="Grupo 236122" transform="translate(-5030.851 -6257.293)">
      <g id="Grupo_235845-2" data-name="Grupo 235845" clip-path="url(#clip-path)">
        <path id="Trazado_275132-2" data-name="Trazado 275132" d="M152.464,101.185h20.072a2.121,2.121,0,0,0,2.105-2.14V32.488a2.121,2.121,0,0,0-2.105-2.139H135.9a2.121,2.121,0,0,0-2.105,2.139V81.4Z" transform="translate(-27.032 -6.131)" fill="#fff5ab"/>
        <path id="Trazado_275133-2" data-name="Trazado 275133" d="M172.221,102.111H152.15a1.24,1.24,0,0,1,0-2.48h20.071a.884.884,0,0,0,.866-.9V32.175a.885.885,0,0,0-.866-.9H135.59a.885.885,0,0,0-.866.9V81.09a1.24,1.24,0,1,1-2.48,0V32.175a3.367,3.367,0,0,1,3.346-3.38h36.632a3.367,3.367,0,0,1,3.346,3.38V98.732a3.367,3.367,0,0,1-3.346,3.379" transform="translate(-26.718 -5.818)" fill="#390a93"/>
        <path id="Trazado_275134-2" data-name="Trazado 275134" d="M147.862,76.666H133.484a1.24,1.24,0,0,1,0-2.48h14.378a1.24,1.24,0,0,1,0,2.48" transform="translate(-26.718 -14.988)" fill="#390a93"/>
        <path id="Trazado_275135-2" data-name="Trazado 275135" d="M181.029,76.666H166.651a1.24,1.24,0,0,1,0-2.48h14.378a1.24,1.24,0,1,1,0,2.48" transform="translate(-33.418 -14.988)" fill="#390a93"/>
        <path id="Trazado_275136-2" data-name="Trazado 275136" d="M147.862,60.887H133.484a1.24,1.24,0,0,1,0-2.48h14.378a1.24,1.24,0,0,1,0,2.48" transform="translate(-26.718 -11.8)" fill="#390a93"/>
        <path id="Trazado_275137-2" data-name="Trazado 275137" d="M181.029,60.887H166.651a1.24,1.24,0,0,1,0-2.48h14.378a1.24,1.24,0,1,1,0,2.48" transform="translate(-33.418 -11.8)" fill="#390a93"/>
        <path id="Trazado_275138-2" data-name="Trazado 275138" d="M147.862,45.108H133.484a1.24,1.24,0,0,1,0-2.48h14.378a1.24,1.24,0,0,1,0,2.48" transform="translate(-26.718 -8.612)" fill="#390a93"/>
        <path id="Trazado_275139-2" data-name="Trazado 275139" d="M181.029,45.108H166.651a1.24,1.24,0,0,1,0-2.48h14.378a1.24,1.24,0,1,1,0,2.48" transform="translate(-33.418 -8.612)" fill="#390a93"/>
        <path id="Trazado_275140-2" data-name="Trazado 275140" d="M181.029,92.445H166.651a1.24,1.24,0,0,1,0-2.48h14.378a1.24,1.24,0,1,1,0,2.48" transform="translate(-33.418 -18.176)" fill="#390a93"/>
        <path id="Trazado_275141-2" data-name="Trazado 275141" d="M107.718,111.927a2.162,2.162,0,0,0,2.144,2.18h37.332a2.162,2.162,0,0,0,2.144-2.18V96.509a2.162,2.162,0,0,0-2.144-2.18H109.862a2.162,2.162,0,0,0-2.144,2.18Z" transform="translate(-21.763 -19.058)" fill="#fff5ab"/>
        <path id="Trazado_275142-2" data-name="Trazado 275142" d="M146.881,115.034H109.548a3.407,3.407,0,0,1-3.384-3.42V96.2a3.407,3.407,0,0,1,3.384-3.42h37.333a3.406,3.406,0,0,1,3.383,3.42v15.418a3.406,3.406,0,0,1-3.383,3.42M109.548,95.255a.923.923,0,0,0-.9.94v15.418a.923.923,0,0,0,.9.94h37.333a.923.923,0,0,0,.9-.94V96.2a.923.923,0,0,0-.9-.94Z" transform="translate(-21.449 -18.744)" fill="#390a93"/>
        <path id="Trazado_275143-2" data-name="Trazado 275143" d="M122.056,107.291H107.4a1.24,1.24,0,0,1,0-2.48h14.651a1.24,1.24,0,0,1,0,2.48" transform="translate(-21.449 -21.175)" fill="#390a93"/>
        <path id="Trazado_275144-2" data-name="Trazado 275144" d="M155.853,107.291H141.2a1.24,1.24,0,0,1,0-2.48h14.651a1.24,1.24,0,1,1,0,2.48" transform="translate(-28.277 -21.175)" fill="#390a93"/>
      </g>
    </g>
  </g>
</svg>
