<svg xmlns="http://www.w3.org/2000/svg" xmlns:xlink="http://www.w3.org/1999/xlink" width="610" height="355.19" viewBox="0 0 610 355.19">
  <defs>
    <clipPath id="clip-path">
      <rect id="Rectángulo_294756" data-name="Rectángulo 294756" width="400" height="355.19" fill="none"/>
    </clipPath>
    <clipPath id="clip-path-2">
      <rect id="Rectángulo_294760" data-name="Rectángulo 294760" width="259.048" height="277.761" fill="none"/>
    </clipPath>
    <linearGradient id="linear-gradient" x1="0.5" x2="0.5" y2="1" gradientUnits="objectBoundingBox">
      <stop offset="0" stop-color="#a9ae58"/>
      <stop offset="1" stop-color="#1e5536"/>
    </linearGradient>
  </defs>
  <g id="Grupo_236077" data-name="Grupo 236077" transform="translate(-495 -1437)">
    <g id="Grupo_236076" data-name="Grupo 236076" transform="translate(-304)">
      <g id="Grupo_236073" data-name="Grupo 236073" transform="translate(1009 1437)">
        <g id="Grupo_236072" data-name="Grupo 236072" clip-path="url(#clip-path)">
          <path id="Trazado_607418" data-name="Trazado 607418" d="M.826,17.5l19.9,50.27c2.143,5.416,8.131,9.064,14.877,9.064H364.4c6.745,0,12.736-3.648,14.878-9.064l19.9-50.27C402.582,8.9,395.018,0,384.295,0H15.706C4.983,0-2.582,8.9.826,17.5" transform="translate(0)" fill="#9ea257"/>
          <path id="Trazado_607419" data-name="Trazado 607419" d="M31.918,110.288l19.9,50.271c2.143,5.415,8.134,9.065,14.879,9.065H322.041c6.745,0,12.737-3.65,14.879-9.065l19.9-50.271c3.408-8.605-4.158-17.506-14.879-17.506H46.8c-10.72,0-18.286,8.9-14.878,17.506" transform="translate(5.633)" fill="#ced371"/>
          <path id="Trazado_607420" data-name="Trazado 607420" d="M94.1,295.856l19.9,50.268c2.143,5.416,8.134,9.066,14.879,9.066H237.326c6.746,0,12.736-3.65,14.879-9.066l19.9-50.268c3.408-8.607-4.157-17.508-14.878-17.508H108.977c-10.723,0-18.286,8.9-14.881,17.508" transform="translate(16.9)" fill="#a3314f"/>
          <path id="Trazado_607421" data-name="Trazado 607421" d="M63.008,203.073l19.9,50.27c2.143,5.414,8.134,9.064,14.877,9.064h181.9c6.746,0,12.738-3.65,14.881-9.064l19.9-50.27c3.405-8.607-4.16-17.508-14.881-17.508H77.888c-10.723,0-18.286,8.9-14.881,17.508" transform="translate(11.267)" fill="#ffb500"/>
        </g>
      </g>
      <path id="Trazado_607659" data-name="Trazado 607659" d="M28.125,17H25.867V8.3l-2.7.836V7.3l4.711-1.687h.242Zm9.18,0H35.047V8.3l-2.7.836V7.3l4.711-1.687H37.3Zm11.352-4.7a5.762,5.762,0,0,1-.977,3.609,3.9,3.9,0,0,1-5.7.023,5.594,5.594,0,0,1-1.008-3.516V10.32A5.687,5.687,0,0,1,41.957,6.7a3.91,3.91,0,0,1,5.691-.012A5.576,5.576,0,0,1,48.656,10.2ZM46.4,9.995a4.165,4.165,0,0,0-.387-2.061A1.307,1.307,0,0,0,44.8,7.289a1.284,1.284,0,0,0-1.176.614,3.9,3.9,0,0,0-.4,1.92v2.768a4.372,4.372,0,0,0,.379,2.068,1.29,1.29,0,0,0,1.215.676,1.268,1.268,0,0,0,1.2-.649A4.268,4.268,0,0,0,46.4,12.7Zm4.117,1.411.656-5.781h6.375V7.508H53.023l-.281,2.445a3.58,3.58,0,0,1,1.711-.43A3.279,3.279,0,0,1,57,10.531a4.026,4.026,0,0,1,.922,2.82,4.124,4.124,0,0,1-.465,1.973,3.281,3.281,0,0,1-1.332,1.352,4.158,4.158,0,0,1-2.047.48,4.416,4.416,0,0,1-1.914-.418,3.4,3.4,0,0,1-1.395-1.176,3.2,3.2,0,0,1-.543-1.727h2.234a1.669,1.669,0,0,0,.5,1.105,1.573,1.573,0,0,0,1.113.395,1.388,1.388,0,0,0,1.18-.551,2.551,2.551,0,0,0,.414-1.559,2.11,2.11,0,0,0-.477-1.484,1.749,1.749,0,0,0-1.352-.516,1.954,1.954,0,0,0-1.3.422l-.219.2Zm16.5.891a5.763,5.763,0,0,1-.977,3.609,3.9,3.9,0,0,1-5.7.023,5.594,5.594,0,0,1-1.008-3.516V10.32A5.687,5.687,0,0,1,60.316,6.7a3.91,3.91,0,0,1,5.691-.012A5.576,5.576,0,0,1,67.016,10.2Zm-2.258-2.3a4.165,4.165,0,0,0-.387-2.061,1.307,1.307,0,0,0-1.207-.645,1.284,1.284,0,0,0-1.176.614,3.9,3.9,0,0,0-.4,1.92v2.768a4.372,4.372,0,0,0,.379,2.068,1.29,1.29,0,0,0,1.215.676,1.268,1.268,0,0,0,1.2-.649,4.268,4.268,0,0,0,.383-1.986Zm4.117,1.411.656-5.781h6.375V7.508H71.383L71.1,9.953a3.58,3.58,0,0,1,1.711-.43,3.279,3.279,0,0,1,2.547,1.008,4.026,4.026,0,0,1,.922,2.82,4.124,4.124,0,0,1-.465,1.973,3.281,3.281,0,0,1-1.332,1.352,4.158,4.158,0,0,1-2.047.48,4.416,4.416,0,0,1-1.914-.418,3.4,3.4,0,0,1-1.395-1.176,3.2,3.2,0,0,1-.543-1.727H70.82a1.669,1.669,0,0,0,.5,1.105,1.573,1.573,0,0,0,1.113.395,1.388,1.388,0,0,0,1.18-.551,2.551,2.551,0,0,0,.414-1.559,2.11,2.11,0,0,0-.477-1.484,1.749,1.749,0,0,0-1.352-.516,1.954,1.954,0,0,0-1.3.422l-.219.2Zm17.313,1.633h-4.4v-1.82h4.4ZM19.656,37.211A4.025,4.025,0,0,1,18.3,40.1a4.76,4.76,0,0,1-3.223,1.055,4.281,4.281,0,0,1-3.441-1.473,6.038,6.038,0,0,1-1.254-4.043v-.7a6.819,6.819,0,0,1,.578-2.891,4.332,4.332,0,0,1,1.652-1.918,4.629,4.629,0,0,1,2.5-.668,4.637,4.637,0,0,1,3.172,1.055,4.326,4.326,0,0,1,1.391,2.961H17.328a2.376,2.376,0,0,0-.613-1.6,2.271,2.271,0,0,0-1.605-.5,1.991,1.991,0,0,0-1.754.84,4.707,4.707,0,0,0-.6,2.605V35.7a5.038,5.038,0,0,0,.559,2.7,1.954,1.954,0,0,0,1.762.852,2.314,2.314,0,0,0,1.621-.5,2.241,2.241,0,0,0,.613-1.535ZM25.945,41a2.507,2.507,0,0,1-.227-.758,2.732,2.732,0,0,1-2.133.914,3,3,0,0,1-2.059-.719,2.312,2.312,0,0,1-.816-1.812,2.389,2.389,0,0,1,1-2.062,4.915,4.915,0,0,1,2.879-.727h1.039v-.484a1.393,1.393,0,0,0-.3-.937,1.183,1.183,0,0,0-.949-.352,1.345,1.345,0,0,0-.895.273.929.929,0,0,0-.324.75H20.9a2.268,2.268,0,0,1,.453-1.359,3,3,0,0,1,1.281-.98,4.669,4.669,0,0,1,1.859-.355,3.689,3.689,0,0,1,2.48.785,2.747,2.747,0,0,1,.918,2.207v3.664a4.041,4.041,0,0,0,.336,1.82V41Zm-1.867-1.57A1.945,1.945,0,0,0,25,39.207a1.462,1.462,0,0,0,.625-.6V37.156h-.844q-1.7,0-1.8,1.172l-.008.133a.9.9,0,0,0,.3.7A1.153,1.153,0,0,0,24.078,39.43Zm7.938-6.883v8.914a3.024,3.024,0,0,1-.742,2.176,2.821,2.821,0,0,1-2.141.777,4.591,4.591,0,0,1-1.117-.133V42.492a4.238,4.238,0,0,0,.711.07q1.023,0,1.023-1.086v-8.93ZM29.57,30.359a1.112,1.112,0,0,1,.34-.836,1.47,1.47,0,0,1,1.852,0,1.2,1.2,0,0,1-.008,1.68,1.448,1.448,0,0,1-1.836,0A1.108,1.108,0,0,1,29.57,30.359ZM38.68,41a2.507,2.507,0,0,1-.227-.758,2.732,2.732,0,0,1-2.133.914,3,3,0,0,1-2.059-.719,2.312,2.312,0,0,1-.816-1.812,2.389,2.389,0,0,1,1-2.062,4.915,4.915,0,0,1,2.879-.727h1.039v-.484a1.393,1.393,0,0,0-.3-.937,1.183,1.183,0,0,0-.949-.352,1.345,1.345,0,0,0-.895.273.929.929,0,0,0-.324.75H33.633a2.268,2.268,0,0,1,.453-1.359,3,3,0,0,1,1.281-.98,4.669,4.669,0,0,1,1.859-.355,3.689,3.689,0,0,1,2.48.785,2.747,2.747,0,0,1,.918,2.207v3.664a4.041,4.041,0,0,0,.336,1.82V41Zm-1.867-1.57a1.945,1.945,0,0,0,.922-.223,1.462,1.462,0,0,0,.625-.6V37.156h-.844q-1.7,0-1.8,1.172l-.008.133a.9.9,0,0,0,.3.7A1.153,1.153,0,0,0,36.813,39.43Zm9.2-2.719a4.954,4.954,0,0,1,.926-3.133,3,3,0,0,1,2.5-1.187,2.631,2.631,0,0,1,2.164.953l.094-.8h2.047v8.172a3.613,3.613,0,0,1-.5,1.93A3.236,3.236,0,0,1,51.82,43.9a4.985,4.985,0,0,1-2.141.43,4.635,4.635,0,0,1-1.812-.371A3.217,3.217,0,0,1,46.531,43l1-1.375a2.645,2.645,0,0,0,2.047.945,1.936,1.936,0,0,0,1.4-.48,1.8,1.8,0,0,0,.5-1.363v-.453a2.612,2.612,0,0,1-2.055.883,2.992,2.992,0,0,1-2.465-1.191,4.953,4.953,0,0,1-.941-3.16Zm2.258.168a3.085,3.085,0,0,0,.461,1.8A1.466,1.466,0,0,0,50,39.336a1.568,1.568,0,0,0,1.477-.775V35a1.564,1.564,0,0,0-1.461-.775,1.476,1.476,0,0,0-1.277.665A3.477,3.477,0,0,0,48.273,36.879Zm11.094,4.277a4.15,4.15,0,0,1-3.027-1.141,4.054,4.054,0,0,1-1.168-3.039v-.219a5.106,5.106,0,0,1,.492-2.277,3.612,3.612,0,0,1,1.395-1.547,3.914,3.914,0,0,1,2.059-.543,3.508,3.508,0,0,1,2.73,1.094,4.444,4.444,0,0,1,1,3.1v.922H57.461a2.1,2.1,0,0,0,.66,1.328,2,2,0,0,0,1.395.5,2.437,2.437,0,0,0,2.039-.945l1.109,1.242a3.389,3.389,0,0,1-1.375,1.121A4.511,4.511,0,0,1,59.367,41.156Zm-.258-6.945a1.411,1.411,0,0,0-1.09.455,2.357,2.357,0,0,0-.535,1.3h3.141v-.181a1.681,1.681,0,0,0-.406-1.165A1.456,1.456,0,0,0,59.109,34.211ZM66.2,32.547l.07.977a2.951,2.951,0,0,1,2.43-1.133,2.453,2.453,0,0,1,2,.789,3.682,3.682,0,0,1,.672,2.359V41H69.117V35.594a1.465,1.465,0,0,0-.312-1.043,1.4,1.4,0,0,0-1.039-.324,1.553,1.553,0,0,0-1.43.813V41H64.078V32.547Zm10.773,8.609a4.15,4.15,0,0,1-3.027-1.141,4.054,4.054,0,0,1-1.168-3.039v-.219a5.106,5.106,0,0,1,.492-2.277,3.612,3.612,0,0,1,1.395-1.547,3.914,3.914,0,0,1,2.059-.543,3.508,3.508,0,0,1,2.73,1.094,4.444,4.444,0,0,1,1,3.1v.922H75.07a2.1,2.1,0,0,0,.66,1.328,2,2,0,0,0,1.395.5,2.437,2.437,0,0,0,2.039-.945l1.109,1.242A3.389,3.389,0,0,1,78.9,40.754,4.511,4.511,0,0,1,76.977,41.156Zm-.258-6.945a1.411,1.411,0,0,0-1.09.455,2.357,2.357,0,0,0-.535,1.3h3.141v-.181a1.681,1.681,0,0,0-.406-1.165A1.456,1.456,0,0,0,76.719,34.211Zm9.766.453a6.134,6.134,0,0,0-.812-.062,1.654,1.654,0,0,0-1.68.867V41H81.734V32.547h2.133l.063,1.008a2.092,2.092,0,0,1,1.883-1.164,2.366,2.366,0,0,1,.7.1ZM92.234,41a2.507,2.507,0,0,1-.227-.758,2.732,2.732,0,0,1-2.133.914,3,3,0,0,1-2.059-.719A2.312,2.312,0,0,1,87,38.625a2.389,2.389,0,0,1,1-2.062,4.915,4.915,0,0,1,2.879-.727h1.039v-.484a1.393,1.393,0,0,0-.3-.937,1.183,1.183,0,0,0-.949-.352,1.345,1.345,0,0,0-.895.273.929.929,0,0,0-.324.75H87.188a2.268,2.268,0,0,1,.453-1.359,3,3,0,0,1,1.281-.98,4.669,4.669,0,0,1,1.859-.355,3.689,3.689,0,0,1,2.48.785,2.747,2.747,0,0,1,.918,2.207v3.664a4.041,4.041,0,0,0,.336,1.82V41Zm-1.867-1.57a1.945,1.945,0,0,0,.922-.223,1.462,1.462,0,0,0,.625-.6V37.156H91.07q-1.7,0-1.8,1.172l-.008.133a.9.9,0,0,0,.3.7A1.153,1.153,0,0,0,90.367,39.43ZM98.3,41H96.031V29H98.3Z" transform="translate(1154.727 1730.084)" fill="#fff"/>
      <path id="Trazado_607658" data-name="Trazado 607658" d="M19.422,17H17.164V8.3l-2.7.836V7.3L19.18,5.609h.242Zm9.18,0H26.344V8.3l-2.7.836V7.3l4.711-1.687H28.6Zm11.352-4.7a5.762,5.762,0,0,1-.977,3.609,3.409,3.409,0,0,1-2.859,1.25,3.433,3.433,0,0,1-2.844-1.227,5.594,5.594,0,0,1-1.008-3.516V10.32A5.687,5.687,0,0,1,33.254,6.7,3.434,3.434,0,0,1,36.1,5.469a3.437,3.437,0,0,1,2.844,1.223A5.576,5.576,0,0,1,39.953,10.2ZM37.7,9.995a4.165,4.165,0,0,0-.387-2.061A1.307,1.307,0,0,0,36.1,7.289a1.284,1.284,0,0,0-1.176.614,3.9,3.9,0,0,0-.4,1.92v2.768a4.372,4.372,0,0,0,.379,2.068,1.29,1.29,0,0,0,1.215.676,1.268,1.268,0,0,0,1.2-.649A4.268,4.268,0,0,0,37.7,12.7Zm4.117,1.411.656-5.781h6.375V7.508H44.32l-.281,2.445a3.58,3.58,0,0,1,1.711-.43A3.279,3.279,0,0,1,48.3,10.531a4.026,4.026,0,0,1,.922,2.82,4.124,4.124,0,0,1-.465,1.973,3.281,3.281,0,0,1-1.332,1.352,4.158,4.158,0,0,1-2.047.48,4.416,4.416,0,0,1-1.914-.418,3.4,3.4,0,0,1-1.395-1.176,3.2,3.2,0,0,1-.543-1.727h2.234a1.669,1.669,0,0,0,.5,1.105,1.573,1.573,0,0,0,1.113.395,1.388,1.388,0,0,0,1.18-.551,2.551,2.551,0,0,0,.414-1.559,2.11,2.11,0,0,0-.477-1.484,1.749,1.749,0,0,0-1.352-.516,1.954,1.954,0,0,0-1.3.422l-.219.2Zm17.313,1.633h-4.4v-1.82h4.4ZM74,13.211A4.025,4.025,0,0,1,72.645,16.1a4.76,4.76,0,0,1-3.223,1.055,4.28,4.28,0,0,1-3.441-1.473,6.038,6.038,0,0,1-1.254-4.043v-.7A6.819,6.819,0,0,1,65.3,8.055a4.332,4.332,0,0,1,1.652-1.918,5.164,5.164,0,0,1,5.668.387,4.326,4.326,0,0,1,1.391,2.961H71.672a2.376,2.376,0,0,0-.613-1.6,2.271,2.271,0,0,0-1.605-.5,1.991,1.991,0,0,0-1.754.84,4.707,4.707,0,0,0-.6,2.605V11.7a5.038,5.038,0,0,0,.559,2.7,1.954,1.954,0,0,0,1.762.852,2.314,2.314,0,0,0,1.621-.5,2.241,2.241,0,0,0,.613-1.535ZM80.289,17a2.507,2.507,0,0,1-.227-.758,2.732,2.732,0,0,1-2.133.914,3,3,0,0,1-2.059-.719,2.312,2.312,0,0,1-.816-1.812,2.389,2.389,0,0,1,1-2.062,4.915,4.915,0,0,1,2.879-.727h1.039v-.484a1.393,1.393,0,0,0-.3-.937,1.183,1.183,0,0,0-.949-.352,1.345,1.345,0,0,0-.895.273.929.929,0,0,0-.324.75H75.242A2.268,2.268,0,0,1,75.7,9.727a3,3,0,0,1,1.281-.98,4.669,4.669,0,0,1,1.859-.355,3.689,3.689,0,0,1,2.48.785,2.747,2.747,0,0,1,.918,2.207v3.664a4.041,4.041,0,0,0,.336,1.82V17Zm-1.867-1.57a1.945,1.945,0,0,0,.922-.223,1.462,1.462,0,0,0,.625-.6V13.156h-.844q-1.7,0-1.8,1.172l-.008.133a.9.9,0,0,0,.3.7A1.153,1.153,0,0,0,78.422,15.43Zm7.938-6.883v8.914a3.024,3.024,0,0,1-.742,2.176,2.821,2.821,0,0,1-2.141.777,4.591,4.591,0,0,1-1.117-.133V18.492a4.238,4.238,0,0,0,.711.07q1.023,0,1.023-1.086V8.547ZM83.914,6.359a1.112,1.112,0,0,1,.34-.836,1.47,1.47,0,0,1,1.852,0,1.112,1.112,0,0,1,.34.836A1.108,1.108,0,0,1,86.1,7.2a1.448,1.448,0,0,1-1.836,0A1.108,1.108,0,0,1,83.914,6.359ZM93.023,17a2.507,2.507,0,0,1-.227-.758,2.732,2.732,0,0,1-2.133.914,3,3,0,0,1-2.059-.719,2.312,2.312,0,0,1-.816-1.812,2.389,2.389,0,0,1,1-2.062,4.915,4.915,0,0,1,2.879-.727H92.7v-.484a1.393,1.393,0,0,0-.3-.937,1.183,1.183,0,0,0-.949-.352,1.345,1.345,0,0,0-.895.273.929.929,0,0,0-.324.75H87.977a2.268,2.268,0,0,1,.453-1.359,3,3,0,0,1,1.281-.98,4.669,4.669,0,0,1,1.859-.355,3.689,3.689,0,0,1,2.48.785,2.747,2.747,0,0,1,.918,2.207v3.664a4.041,4.041,0,0,0,.336,1.82V17Zm-1.867-1.57a1.945,1.945,0,0,0,.922-.223,1.462,1.462,0,0,0,.625-.6V13.156h-.844q-1.7,0-1.8,1.172l-.008.133a.9.9,0,0,0,.3.7A1.153,1.153,0,0,0,91.156,15.43Z" transform="translate(1154.727 1657)" fill="#12263f"/>
      <path id="Trazado_607657" data-name="Trazado 607657" d="M15.367,17H13.109V8.3l-2.7.836V7.3l4.711-1.687h.242Zm9.18,0H22.289V8.3l-2.7.836V7.3L24.3,5.609h.242Zm12.164-3.961h-4.4v-1.82h4.4ZM49.5,12.07H45v3.047h5.281V17H42.656V5.625h7.609v1.9H45v2.711h4.5ZM51.984,17V10.2H50.727V8.547h1.258V7.828A2.918,2.918,0,0,1,52.8,5.621a3.162,3.162,0,0,1,2.285-.785,5.278,5.278,0,0,1,1.148.156l-.023,1.75a2.878,2.878,0,0,0-.687-.07q-1.273,0-1.273,1.2v.68h1.68V10.2H54.25V17Zm9.008.156a4.15,4.15,0,0,1-3.027-1.141A4.054,4.054,0,0,1,56.8,12.977v-.219a5.106,5.106,0,0,1,.492-2.277,3.612,3.612,0,0,1,1.395-1.547,3.914,3.914,0,0,1,2.059-.543,3.508,3.508,0,0,1,2.73,1.094,4.444,4.444,0,0,1,1,3.1v.922H59.086a2.1,2.1,0,0,0,.66,1.328,2,2,0,0,0,1.395.5,2.437,2.437,0,0,0,2.039-.945l1.109,1.242a3.389,3.389,0,0,1-1.375,1.121A4.511,4.511,0,0,1,60.992,17.156Zm-.258-6.945a1.411,1.411,0,0,0-1.09.455,2.357,2.357,0,0,0-.535,1.3H62.25v-.181a1.681,1.681,0,0,0-.406-1.165A1.456,1.456,0,0,0,60.734,10.211Zm8.531,5.125a1.481,1.481,0,0,0,1.016-.344,1.2,1.2,0,0,0,.406-.914H72.8a2.9,2.9,0,0,1-.469,1.574,3.093,3.093,0,0,1-1.262,1.109,3.949,3.949,0,0,1-1.77.395A3.67,3.67,0,0,1,66.445,16,4.56,4.56,0,0,1,65.4,12.82v-.148a4.508,4.508,0,0,1,1.039-3.117,3.627,3.627,0,0,1,2.852-1.164,3.555,3.555,0,0,1,2.543.9,3.2,3.2,0,0,1,.973,2.4H70.688a1.551,1.551,0,0,0-.406-1.072,1.51,1.51,0,0,0-2.223.163,3.333,3.333,0,0,0-.4,1.866v.235a3.375,3.375,0,0,0,.4,1.878A1.377,1.377,0,0,0,69.266,15.336ZM76.8,6.469V8.547h1.445V10.2H76.8v4.219a1.007,1.007,0,0,0,.18.672.9.9,0,0,0,.688.2,3.6,3.6,0,0,0,.664-.055v1.711a4.648,4.648,0,0,1-1.367.2,2.156,2.156,0,0,1-2.422-2.4V10.2H73.3V8.547h1.234V6.469ZM81.883,17H79.617V8.547h2.266Zm-2.4-10.641a1.112,1.112,0,0,1,.34-.836,1.465,1.465,0,0,1,1.848,0,1.105,1.105,0,0,1,.344.836,1.108,1.108,0,0,1-.348.844,1.448,1.448,0,0,1-1.836,0A1.108,1.108,0,0,1,79.484,6.359Zm7.422,7.883,1.57-5.7h2.359L87.984,17H85.828L82.977,8.547h2.359ZM91.359,12.7a5.013,5.013,0,0,1,.484-2.242A3.546,3.546,0,0,1,93.238,8.93a4.069,4.069,0,0,1,2.113-.539,3.849,3.849,0,0,1,2.793,1.047,4.2,4.2,0,0,1,1.207,2.844l.016.578a4.418,4.418,0,0,1-1.086,3.121,4.209,4.209,0,0,1-5.832,0,4.5,4.5,0,0,1-1.09-3.187Zm2.258.16A3.16,3.16,0,0,0,94.07,14.7a1.628,1.628,0,0,0,2.578.008,3.457,3.457,0,0,0,.461-2.015,3.128,3.128,0,0,0-.461-1.831,1.5,1.5,0,0,0-1.3-.649,1.474,1.474,0,0,0-1.281.646A3.516,3.516,0,0,0,93.617,12.856Z" transform="translate(1154.5 1559.893)" fill="#12263f"/>
      <path id="Trazado_607656" data-name="Trazado 607656" d="M26.2,17H23.938V8.3l-2.7.836V7.3l4.711-1.687H26.2Zm12.164-3.961h-4.4v-1.82h4.4Zm12.367,1.617H46.617L45.836,17H43.344L47.578,5.625H49.75L54.008,17H51.516Zm-3.477-1.9h2.844L48.664,8.5Zm11.188,2.578a1.481,1.481,0,0,0,1.016-.344,1.2,1.2,0,0,0,.406-.914h2.117a2.9,2.9,0,0,1-.469,1.574,3.093,3.093,0,0,1-1.262,1.109,3.949,3.949,0,0,1-1.77.395A3.67,3.67,0,0,1,55.617,16,4.56,4.56,0,0,1,54.57,12.82v-.148a4.508,4.508,0,0,1,1.039-3.117,3.627,3.627,0,0,1,2.852-1.164,3.555,3.555,0,0,1,2.543.9,3.2,3.2,0,0,1,.973,2.4H59.859a1.551,1.551,0,0,0-.406-1.072,1.51,1.51,0,0,0-2.223.163,3.333,3.333,0,0,0-.4,1.866v.235a3.375,3.375,0,0,0,.4,1.878A1.377,1.377,0,0,0,58.438,15.336Zm7.531-8.867V8.547h1.445V10.2H65.969v4.219a1.007,1.007,0,0,0,.18.672.9.9,0,0,0,.688.2,3.6,3.6,0,0,0,.664-.055v1.711a4.648,4.648,0,0,1-1.367.2,2.156,2.156,0,0,1-2.422-2.4V10.2H62.477V8.547h1.234V6.469ZM71.055,17H68.789V8.547h2.266Zm-2.4-10.641A1.112,1.112,0,0,1,69,5.523a1.465,1.465,0,0,1,1.848,0,1.105,1.105,0,0,1,.344.836,1.108,1.108,0,0,1-.348.844A1.448,1.448,0,0,1,69,7.2,1.108,1.108,0,0,1,68.656,6.359Zm7.422,7.883,1.57-5.7h2.359L77.156,17H75L72.148,8.547h2.359ZM80.531,12.7a5.013,5.013,0,0,1,.484-2.242A3.546,3.546,0,0,1,82.41,8.93a4.069,4.069,0,0,1,2.113-.539,3.849,3.849,0,0,1,2.793,1.047,4.2,4.2,0,0,1,1.207,2.844l.016.578a4.418,4.418,0,0,1-1.086,3.121,4.209,4.209,0,0,1-5.832,0,4.5,4.5,0,0,1-1.09-3.187Zm2.258.16a3.16,3.16,0,0,0,.453,1.843,1.628,1.628,0,0,0,2.578.008,3.457,3.457,0,0,0,.461-2.015,3.128,3.128,0,0,0-.461-1.831,1.5,1.5,0,0,0-1.3-.649,1.474,1.474,0,0,0-1.281.646A3.516,3.516,0,0,0,82.789,12.856Z" transform="translate(1154.727 1465.785)" fill="#12263f"/>
    </g>
    <g id="Grupo_236075" data-name="Grupo 236075" transform="translate(495 1514.429)">
      <g id="Grupo_236074" data-name="Grupo 236074" clip-path="url(#clip-path-2)">
        <path id="Trazado_607422" data-name="Trazado 607422" d="M259.049,138.227A129.525,129.525,0,1,1,129.526,8.7,129.521,129.521,0,0,1,259.049,138.227" transform="translate(-0.001 10.011)" fill="url(#linear-gradient)"/>
        <path id="Trazado_607423" data-name="Trazado 607423" d="M166.564,158.038c-5.571-3.464-4.4-7.925-2.668-13.354a35.732,35.732,0,0,0,3.638-10.624c2.937-16.064-6-24.247-12.63-30.246-8.547-7.723-1.834-11.443-.436-19.132,2.464-13.587-9.084-17.827-7.489-25.324,2.9-13.634-8.564-29.775-22.654-43.54l0,0c-6.575-9-16.749-12.957-28.422-14.389C72.89-1.389,58.3,14.546,49.741,37.184c-10.927,28.893,2.412,63.069,31.77,66.828,4.788.611,39.205,49.13,41.218,57.737s34.836,3.526,28.827,18.624c-2.711,6.814,1.243,8.373,3.692,8.031,5.941-.836,3.042-6.186,3.042-6.186s.23,4.483-2.883,3.937c-1.378-.243-2.724-1.641-.185-4.76,4.317-5.322,6.637-7.388,1.509-15.831-3.257-5.369-1.881-8.3.873-11.931a12.212,12.212,0,0,0,.43,1.716c1.488,4.55,8.306,7.042,9.306,10.26s-8.267,4.765-4.223,11.884c-.269-5.891,3.09-4.9,6.018-6.6,5.128-2.982,3.649-8.979-2.572-12.856" transform="translate(52.849 1.277)" fill="#963f04"/>
        <path id="Trazado_607424" data-name="Trazado 607424" d="M49.385,27.566l5.575,3.606,5.315,16.595-5.315-.529-4-7.65Z" transform="translate(56.798 31.704)" fill="#e27d39"/>
        <path id="Trazado_607425" data-name="Trazado 607425" d="M74.675,49.3a16.941,16.941,0,0,0-4.649-.576c-1.423.239,1.185,3.511,1.185,3.511s3.212-1.785,3.464-2.935" transform="translate(80.05 55.988)" fill="#3e5068"/>
        <path id="Trazado_607426" data-name="Trazado 607426" d="M103.612,67.8c-6.44-2.219-9.549-8.8-9.119-12.907.17-1.6,1.527-12.77,1.527-12.77-8.147,3.943-14.84,6.906-14.84,6.906s-6.347-3.728-13.881-7.76c0,0-1.378,11.467-1.512,12.458C64.2,65.8,57.04,66.172,48.616,67.815l9.875,42.734Z" transform="translate(55.914 47.47)" fill="#fcc397"/>
        <path id="Trazado_607427" data-name="Trazado 607427" d="M58.043,39.179l-.9,7.28a79.359,79.359,0,0,0,10.938,8.2,3.941,3.941,0,0,0,3.079.492,93.779,93.779,0,0,0,14.4-5.33l.877-7.168Z" transform="translate(65.725 45.06)" fill="#ea9f6c"/>
        <path id="Trazado_607428" data-name="Trazado 607428" d="M119.561,48.545a3.879,3.879,0,0,0-2.926-.11c2.212-9.611,3.988-19.353,2.791-21.856A39.272,39.272,0,0,0,90.513,4.809h0A39.28,39.28,0,0,0,57.2,18.953c-1.744,2.116-2.38,11.826-2.561,21.585a3.549,3.549,0,0,0-2.073-.219c-2.984.608-4.563,5.18-3.53,10.2.849,4.122,3.2,7.263,5.666,7.91.06,2.78.12,4.522.12,4.522,3.98,16.358,18.6,25.954,23.4,28.708a4.1,4.1,0,0,0,3.088.445c5.15-1.445,21.91-7.194,29.8-22.249,0,0,.479-1.677,1.208-4.345,2.675.52,6.16-2.051,8.175-6.218,2.23-4.612,1.813-9.424-.925-10.746" transform="translate(56.028 5.38)" fill="#fcc397"/>
        <path id="Trazado_607429" data-name="Trazado 607429" d="M70.256,22.927c.634-.338,5.595-2.617,10.213-1.832,1.957.329,3.436,1.333,5.461,3.171-1.378-.363-3.444-1.772-5.276-1.974-4.238-.467-8.428,1.537-9.817,2.277-1.232.656-1.815-.987-.581-1.643" transform="translate(80.016 24.074)" fill="#663412"/>
        <path id="Trazado_607430" data-name="Trazado 607430" d="M71.185,23.051c-.559-.514-6.057-3.954-9.325-3.918a11.958,11.958,0,0,0-5.272,1.593c-4.812,2.7,1.8-1.062,5.038-.305a22.116,22.116,0,0,1,8.6,4.094c1,.916,1.95-.548.957-1.464" transform="translate(63.129 22.005)" fill="#663412"/>
        <path id="Trazado_607431" data-name="Trazado 607431" d="M68.621,27.889c-3.761.761-5.244,1.337-7.211,1.18-2.868-.237-5.005-2.142-4.786-3.922s2.713-2.95,5.571-2.6,6.19,3.956,6.427,5.345" transform="translate(65.106 25.858)" fill="#fff"/>
        <path id="Trazado_607432" data-name="Trazado 607432" d="M63.553,26.122a3.04,3.04,0,1,1-2.623-3.548,3.128,3.128,0,0,1,2.623,3.548" transform="translate(66.133 25.939)" fill="#7b9368"/>
        <path id="Trazado_607433" data-name="Trazado 607433" d="M62.122,25.311a2.06,2.06,0,1,1-1.776-2.4,2.107,2.107,0,0,1,1.776,2.4" transform="translate(66.732 26.33)"/>
        <path id="Trazado_607434" data-name="Trazado 607434" d="M61.141,24.376a.886.886,0,0,1-1.06.632c-.538-.064-.931-.454-.879-.873a.88.88,0,0,1,1.064-.628c.535.062.927.454.875.869" transform="translate(68.083 27.023)" fill="#fff"/>
        <path id="Trazado_607435" data-name="Trazado 607435" d="M69.782,27.14c-1.834-4.466-7.076-5.281-10.66-4.421-3.154.748-3.666.084-3.769-.075-.1,1.168,1.146,3.735,4.246,5.322a3.587,3.587,0,0,1-1.488-2.053c.55-1.86,4.741-2.5,7.373-1.34,3.789,1.671,4.593,3.41,4.593,3.41a3.424,3.424,0,0,0-.295-.843" transform="translate(63.656 25.781)"/>
        <path id="Trazado_607436" data-name="Trazado 607436" d="M69.182,27.808c3.518,1.647,4.842,2.574,6.816,2.9,2.879.469,5.446-.858,5.666-2.649s-1.954-3.518-4.853-3.87-7.057,2.326-7.629,3.621" transform="translate(79.567 27.781)" fill="#fff"/>
        <path id="Trazado_607437" data-name="Trazado 607437" d="M71.236,27.068a3.083,3.083,0,1,0,3.447-2.81,3.145,3.145,0,0,0-3.447,2.81" transform="translate(81.901 27.874)" fill="#7b9368"/>
        <path id="Trazado_607438" data-name="Trazado 607438" d="M71.66,26.478A2.089,2.089,0,1,0,74,24.579a2.133,2.133,0,0,0-2.337,1.9" transform="translate(82.398 28.251)"/>
        <path id="Trazado_607439" data-name="Trazado 607439" d="M72.987,25.907c-.049.415.348.806.892.871a.891.891,0,0,0,1.077-.632c.052-.415-.348-.808-.892-.873a.9.9,0,0,0-1.077.634" transform="translate(83.939 29.056)" fill="#fff"/>
        <path id="Trazado_607440" data-name="Trazado 607440" d="M84.975,26.252c-.144.131-.811.647-3.726-.849-3.322-1.7-8.682-2.189-11.576,1.7a3.294,3.294,0,0,0-.495.748s1.215-1.492,5.352-2.2c2.87-.488,6.84,1.157,6.93,3.092A3.592,3.592,0,0,1,79.5,30.38c2.071-.471,5.137-2.053,5.474-4.128" transform="translate(79.563 27.755)"/>
        <path id="Trazado_607441" data-name="Trazado 607441" d="M131.309,42.932C133.848,22.24,117.247,3.172,94.235.349S50.512,12.02,47.975,32.715A40.608,40.608,0,0,0,50,52.281c.151-3.438,1.6-6.121,3.836-6.584a3.417,3.417,0,0,1,1.524.045c.578,4.487,1.387,7.631,1.688,5.205.35-2.864,1.572-8.065,2.529-11.882,1.875-5.111,2-14.141,16.608-13.18-.2-12.2,43.224-8.667,41.192,21.4-.037,3.741-.151,8.28-.462,10.839-.295,2.4,1.152-.372,2.722-4.515a3.229,3.229,0,0,1,1.2.312c2.152,1.036,2.862,4.236,1.991,7.8a34.914,34.914,0,0,0,8.48-18.788" transform="translate(54.751 -0.001)" fill="#b7642c"/>
        <path id="Trazado_607442" data-name="Trazado 607442" d="M69.338,34.081l-3.9-.484a3.085,3.085,0,0,1-2.572-2.511,3.809,3.809,0,0,0-.361,1.189c-.228,1.873,1.978,2.754,3.66,2.956l2.071.256c1.684.206,4.034-.114,4.264-1.982a3.847,3.847,0,0,0-.065-1.251,3.082,3.082,0,0,1-3.1,1.828" transform="translate(71.871 35.753)" fill="#ea9f6c"/>
        <path id="Trazado_607443" data-name="Trazado 607443" d="M49.395,23.689c.021-.4,1-2.04,1.907-1.63,1.391.636,1.963,3.573,2.228,6.472s-.273,4.917-.507,4.117c-.327-1.122-.32-4.6-1.647-8.022-.884-2.281-2.122,2.142-1.98-.937" transform="translate(56.797 25.295)" fill="#ea9f6c"/>
        <path id="Trazado_607444" data-name="Trazado 607444" d="M85.577,27.923c.077-.383-.469-2.221-1.453-2.038-1.509.277-2.769,2.989-3.726,5.741s-.925,4.84-.5,4.122c.589-1.011,1.419-4.382,3.539-7.394,1.4-1.991,1.539,2.6,2.144-.43" transform="translate(91.565 29.756)" fill="#ea9f6c"/>
        <path id="Trazado_607445" data-name="Trazado 607445" d="M66.96,34.888c-1.054,2.322-4.93,2.825-8.652,1.129s-5.889-4.95-4.831-7.265,4.93-2.827,8.654-1.127,5.887,4.947,4.829,7.263" transform="translate(61.196 30.615)" fill="#ffb18a"/>
        <path id="Trazado_607446" data-name="Trazado 607446" d="M70.144,35.012c.464,2.5,4.1,3.928,8.123,3.18s6.91-3.38,6.444-5.887-4.1-3.933-8.121-3.178-6.913,3.378-6.446,5.885" transform="translate(80.617 33.267)" fill="#ffb18a"/>
        <path id="Trazado_607447" data-name="Trazado 607447" d="M60.763,35.5c-1.1-.63-1.307-.436-1.477-.3-.215.211-.282.185.344,1.284.305.535,1.352,2.344,1.352,2.344s2.5,6.526,8.646,7.007A10.725,10.725,0,0,0,79.5,40.713c.34-.544,1.109-1.365,1.331-1.664.727-.989.632-1.03.5-1.211-.357-.495-.434-.256-1.236.032a43.875,43.875,0,0,1-10.06-.348c-4.889-.731-8.4-1.535-9.267-2.023" transform="translate(68.01 40.323)" fill="#c6523c"/>
        <path id="Trazado_607448" data-name="Trazado 607448" d="M74.08,40.553c1.509-.28,2.118-1.505,2.683-3.077A49.189,49.189,0,0,1,67.93,36.9a73.52,73.52,0,0,1-7.536-1.458c.161,1.879.458,2.126,1.892,3.088-1.217-.082-1.585,1.032-1.589,2.391a12.566,12.566,0,0,0,7.257,3.986c3.847.346,6.336-.484,7.835-2.126-.217-.884-.677-2.064-1.709-2.228" transform="translate(69.46 40.762)" fill="#fff"/>
        <path id="Trazado_607449" data-name="Trazado 607449" d="M60.019,35.331s.189,1.7,8.353,2.638c8.1.922,9.955-.325,9.955-.325s-6.014-1.462-9.342-1.81c-3.073-.323-8.966-.5-8.966-.5" transform="translate(69.029 40.635)" fill="#fc7365"/>
        <path id="Trazado_607450" data-name="Trazado 607450" d="M129.426,142.922c.082-.529.181-1.077.277-1.623.159-.888.338-1.8.535-2.728a150.673,150.673,0,0,1,14.341-38.15c.415-.643,5.216-43.017.286-43.017L130,54.75c-.1.069-.194.131-.29.2l-7.171-1.58c-9.7,2.455-18.846,2.688-23.316,10.471-1.6,2.787-11.542,19.218-11.542,19.218S81.521,53.516,77.952,52.52c0,0-26.67,3.6-28.835,4.887s-4.006,2.883-5.969,7.091-5.829,15.58-7.915,27.313-6.265,29.543-6.265,29.543l18.005,4.072,1.97-9.461a22.152,22.152,0,0,0,12.084,11.98,118.826,118.826,0,0,1,3.116,14.976c.247,1.748.467,3.485.671,5.212q.245,2.064.443,4.1c.258,2.668.46,5.3.589,7.9.045.914.084,1.83.11,2.735.1,3.178.1,6.3-.047,9.332a54.523,54.523,0,0,0-10.854,10.987c4.53,1.327,10.8,3.085,12.959,3.292,5.137.49,8.508-4.806,8.508-4.806S74.6,189.379,88.4,190.5c13.881,1.127,41.8-1.879,53.235-3.236a55,55,0,0,0-14-15.345c-.049-1.09-.082-3.477-.1-4.593-.013-.849-.011-.432-.009-1.3a154.024,154.024,0,0,1,1.892-23.109" transform="translate(33.317 60.404)" fill="#5a6c92"/>
        <path id="Trazado_607451" data-name="Trazado 607451" d="M59.582,36.075s.413,7.872,8.588,9.14c7.62,1.187,11.55-6.7,11.55-6.7s-3.481,4.081-10.591,3.444a11.6,11.6,0,0,1-9.547-5.881" transform="translate(68.526 41.49)" fill="#fc7365"/>
        <path id="Trazado_607452" data-name="Trazado 607452" d="M43.818,67.96S39.369,87.674,38.7,94.067c-.185,1.765-2.365-1.97-2.365-1.97s1.2-14.475,7.485-24.137" transform="translate(41.787 78.162)" fill="#3e5068"/>
        <path id="Trazado_607453" data-name="Trazado 607453" d="M67.393,92.14c-3.434-.533-9.6-3.128-11.621-6.173A13.2,13.2,0,0,0,63.9,94.682C81.7,100.423,90.982,83.858,90.982,83.858c-5.322,4.1-14.556,9.68-23.589,8.282" transform="translate(64.144 96.447)" fill="#3e5068"/>
        <path id="Trazado_607454" data-name="Trazado 607454" d="M65.7,64.834S54.5,82.4,53.587,97.606c-2.152,24.182-1.735,69.9-1.735,69.9s-1.3-14.733-1.426-25.838c-.1-8.835.479-24,1.234-40.8.55-12.217,5.072-22.546,11.355-31.972A34.257,34.257,0,0,1,65.7,64.834" transform="translate(57.984 74.567)" fill="#3e5068"/>
        <path id="Trazado_607455" data-name="Trazado 607455" d="M57.9,103.969c1.529-2.47,36.617-6.734,45.307-8.7.161-.888.34-1.8.535-2.728-.275.043-.542.095-.793.157-2.761.658-9.222,1.656-16.066,2.716-20.351,3.152-28.5-3.6-31.114-2.169-6.121-.449-4.294,10.364,2.131,10.725" transform="translate(59.817 106.433)" fill="#3e5068"/>
        <path id="Trazado_607456" data-name="Trazado 607456" d="M56.276,86.995l9.478-21.4L89.82,49.2l12,10.72L71.832,84.176,66.016,71.849Z" transform="translate(64.724 56.581)" fill="#3e5068"/>
        <path id="Trazado_607457" data-name="Trazado 607457" d="M84.93,48.969,98,59.3,67.432,80.823,60.685,65.852Z" transform="translate(69.795 56.32)" fill="#5a6c92"/>
        <path id="Trazado_607458" data-name="Trazado 607458" d="M66.549,48.491A65.553,65.553,0,0,0,64,63.937l2.425,23.868L56.242,64.116,47.45,58.689Z" transform="translate(54.573 55.77)" fill="#3e5068"/>
        <path id="Trazado_607459" data-name="Trazado 607459" d="M140.6,137.078a130.182,130.182,0,0,1-104.281.591A56.281,56.281,0,0,1,46.6,114.1c4.53,1.329,10.8,3.088,12.957,3.294,5.139.49,8.508-4.806,8.508-4.806s-1.922,7.71,11.886,8.835c13.881,1.127,41.8-1.879,53.235-3.236.387.624.765,1.249,1.127,1.886a57.318,57.318,0,0,1,6.281,17.007" transform="translate(41.767 129.487)" fill="#3f3f3f"/>
        <path id="Trazado_607460" data-name="Trazado 607460" d="M65.605,48.739,47.428,58.384,57.71,62.757Z" transform="translate(54.548 56.055)" fill="#5a6c92"/>
        <path id="Trazado_607461" data-name="Trazado 607461" d="M27.334,91.479l.29-.589,32.568,14.081-5.749,1.985L33.535,96.746Z" transform="translate(31.437 104.534)" fill="#ea9f6c"/>
        <path id="Trazado_607462" data-name="Trazado 607462" d="M52.892,83.441a19.888,19.888,0,0,1-3.225-2.4,3.6,3.6,0,0,0-.647,4.853c-.4.542-1.03,1.432-1.843,2.731-1.458,2.333-8.033-9.863-8.033-9.863l-2.182-.329c-.725.454-3.494,1.032-4.614,3.849a6.979,6.979,0,0,1-.89,1.471c-.331.492-2.152,2.135-2.423,3.874s.062,2.376-.226,2.883a13.036,13.036,0,0,0-.378,7.99c.484,3.053,7.547,7.429,13.363,2.987,1.434-.112,3.434-.047,5.726-3.64l6.633-10.989a2.68,2.68,0,0,0-1.26-3.421" transform="translate(32.173 90.213)" fill="#fcc397"/>
        <path id="Trazado_607463" data-name="Trazado 607463" d="M42.409,89.5s-3.907-2.9-4.883-3.455a23.2,23.2,0,0,0-6.044-2.5c-1.987-.31-2.212,3.694-.976,4.655.654.5.664.269,1.35.318-1.426.789-2.9,1.574-1.946,1.393,1.172-.226,1.3-.733,3.434-1.047a29.2,29.2,0,0,1,3.012,1.251c5.728,2.688,6.1.107,6.053-.619" transform="translate(34.05 96.066)" fill="#ea9f6c"/>
        <path id="Trazado_607464" data-name="Trazado 607464" d="M42.462,89.181c.043.729.34,3.285-5.425.679-3.982-1.8-6.216-.419-7.457-1.372s.6-5.509,2.58-5.2a23.315,23.315,0,0,1,6.046,2.5c.976.561,4.255,3.4,4.255,3.4" transform="translate(33.562 95.776)" fill="#fcc397"/>
        <path id="Trazado_607465" data-name="Trazado 607465" d="M33.813,86.859a5.373,5.373,0,0,1,.78-1.406,8.527,8.527,0,0,1,2.438,1.18c.469.37.608,1.408-.464,1.417a8.58,8.58,0,0,1-2.754-1.191" transform="translate(38.889 98.281)" fill="#e26954"/>
        <path id="Trazado_607466" data-name="Trazado 607466" d="M42.743,84.156s-7.764-1.045-10.308-.946a12.7,12.7,0,0,0-2.647-.045c-.471-.271-.869-.006-.815.269s-.039.241,1.008.161a6.826,6.826,0,0,1,2.423-.047,5.539,5.539,0,0,1,.722.219c1.952,1.3,5.758,3.255,6.237,3.578s3.7,6.3,8.2,1.838Z" transform="translate(33.317 95.519)" fill="#ea9f6c"/>
        <path id="Trazado_607467" data-name="Trazado 607467" d="M43.9,82.842c-.94-.948-8.669-2.363-10.761-2.169a4.821,4.821,0,0,0-1.873.064c-.475.1-1.043-.219-1.176.288s1.133.105,1.41.058a4.151,4.151,0,0,1,1.542.037c.8.209,5.24,3.535,7.156,5.3.92.851,4.393,6.188,8.315,2.032,0,0-3.679-4.659-4.612-5.61" transform="translate(34.598 92.71)" fill="#ea9f6c"/>
        <path id="Trazado_607468" data-name="Trazado 607468" d="M33.673,75.254c-.219-.492-.14-1,.168-1.129l1.372-.6c.305-.131.733.161.942.651l.888,2.045c.211.492.14.993-.17,1.133l-1.372.6c-.305.129-.729-.159-.944-.651Z" transform="translate(38.584 84.524)" fill="#c2c4c2"/>
        <rect id="Rectángulo_294757" data-name="Rectángulo 294757" width="1.358" height="25.954" transform="translate(72.589 160.538) rotate(-23.458)" fill="#369e3b"/>
        <rect id="Rectángulo_294758" data-name="Rectángulo 294758" width="1.346" height="25.955" transform="matrix(0.917, -0.398, 0.398, 0.917, 73.834, 159.988)" fill="#72dd5b"/>
        <path id="Trazado_607469" data-name="Trazado 607469" d="M35.3,74.266,45.637,98.072l-1.247.535L34.059,74.8Z" transform="translate(39.171 85.415)" fill="#40c140"/>
        <path id="Trazado_607470" data-name="Trazado 607470" d="M41.051,85.226l-2.492,1.082,3.348,4.3Z" transform="translate(44.347 98.02)" fill="#fcea9d"/>
        <path id="Trazado_607471" data-name="Trazado 607471" d="M39.592,87.255,40.716,88.7l-.284-1.813Z" transform="translate(45.535 99.928)" fill="#515151"/>
        <rect id="Rectángulo_294759" data-name="Rectángulo 294759" width="2.707" height="1.448" transform="matrix(0.918, -0.397, 0.397, 0.918, 72.563, 160.483)" fill="#3a3a3a"/>
        <path id="Trazado_607472" data-name="Trazado 607472" d="M42.23,87.541c-.836-.851-4.464-4.019-5.431-4.909.062-.217-.071-.729.325-.471,1.051.69,2.855,2.234,3.382,2.653,2.655,2.139,4.223,1.333,5.668-.393-5.418-6.214-7.9-7.265-8.968-7.854a2.545,2.545,0,0,0-3.4,1.479c-.662,1.555-1.174,3.1-1.238,3.288-.047.123.744.065,1.75.168a1.955,1.955,0,0,0-1,.563c-1.021,1.015-2.137,2.486-1.967,3.35.071.346.826.183,1.215.456a68.689,68.689,0,0,1,6.448,4.756c.916.841,4.1,6.053,7.583,2.763,0,0-3.438-4.9-4.371-5.848" transform="translate(36.041 87.79)" fill="#fcc397"/>
        <path id="Trazado_607473" data-name="Trazado 607473" d="M45.972,91.712,41.145,86.69s-6.33-5.111-6.827-5.433c-.49-.338-.963-.864-2.1.46-.927,1.069-2.625,2.567-1.954,3.616.166.243.83.4,1.385.624a67.751,67.751,0,0,1,6.6,3.363c.5.333,3.718,5.694,7.723,2.393" transform="translate(34.628 93.002)" fill="#fcc397"/>
        <path id="Trazado_607474" data-name="Trazado 607474" d="M35.963,80.268a6.908,6.908,0,0,1,1.432-1.458,10.738,10.738,0,0,1,2.582,2.271c.447.611.269,1.927-1.047,1.57-1.03-.275-2.967-2.382-2.967-2.382" transform="translate(41.362 90.641)" fill="#e26954"/>
        <path id="Trazado_607475" data-name="Trazado 607475" d="M40.219,85.895l-2.165-2.963a2.227,2.227,0,0,0-.985.31c-.441.29,1.2,2.58,1.7,2.731a3.653,3.653,0,0,0,1.447-.077" transform="translate(42.548 95.382)" fill="#e26954"/>
        <path id="Trazado_607476" data-name="Trazado 607476" d="M39.424,87.249l-2.6-2.584a2.138,2.138,0,0,0-.925.462c-.389.361,1.6,2.35,2.111,2.427a3.719,3.719,0,0,0,1.417-.305" transform="translate(41.227 97.375)" fill="#e26954"/>
        <path id="Trazado_607477" data-name="Trazado 607477" d="M13.4,84.031s1.251-1.436,4.584-1.43,22.2,11.849,22.2,11.849l30.643-4.1-.593,7.5L41.217,99.037,38.4,98.5l-1.449-.639-.239-.968L13.4,84.278Z" transform="translate(15.41 95.001)" fill="#fff"/>
        <path id="Trazado_607478" data-name="Trazado 607478" d="M40.3,86.2l44.69,19.162v2.819L39.943,90.307Z" transform="translate(45.939 99.143)" fill="#dbdbdb"/>
        <path id="Trazado_607479" data-name="Trazado 607479" d="M13.1,83.1,37.61,96.2s.477,1.664,4.167,1.187,28.8-3.217,28.8-3.217l45.585,18.448-30.11,5.833L40.229,98.932s-2.709-.6-3.333-2.023S13.1,83.935,13.1,83.935Z" transform="translate(15.063 95.578)" fill="#752b0b"/>
        <path id="Trazado_607480" data-name="Trazado 607480" d="M100.93,106.111v1.069L55.348,88.734,26.338,91.972,55.67,87.831Z" transform="translate(30.292 101.015)" fill="#9b5e26"/>
        <path id="Trazado_607481" data-name="Trazado 607481" d="M27.74,91.259s13.092,7.407,14.69,8.1c4.072,1.763,10.125,5.281,12.935,5.614,1.208.146-12.509-5.844-14.126-7.755-.873-1.032-.725-2.92,1.507-2.937,5.395-.039,9.6,3.969,18.121,4.7,9.706.839,10.45,7.278,10.45,7.278s4.747,6.285-2.954,7.521c-9.458,1.509-23.327-3.356-27.6-6.177-.935-.617-11.284-13.943-13.784-16.526.226.052.486.114.759.178" transform="translate(31.031 104.754)" fill="#fcc397"/>
        <path id="Trazado_607482" data-name="Trazado 607482" d="M38.005,94.5a7.265,7.265,0,0,1-1.069,1.9,11.425,11.425,0,0,1-3.281-1.619c-.632-.5-.813-1.909.636-1.909,1.137,0,3.713,1.628,3.713,1.628" transform="translate(38.165 106.809)" fill="#e26954"/>
        <path id="Trazado_607483" data-name="Trazado 607483" d="M138.253,68.234c-2.8-10.525-8.753-14.436-17.186-13.6-15.932,1.527-13.126,25.4-12.37,28.8,1.419,6.392,3.126,12.681,6.532,16.408,1.946,13.425,2.8,25.7,2.071,30.6-.436,2.961-.963,5.812-1.2,8.164a17.16,17.16,0,0,0-4.666.316c-8.091,1.929-44.092,6.272-45.641,8.775a142.2,142.2,0,0,1-15.709-2.206,14.378,14.378,0,0,0-4.943,11.581c6.9,2.733,18.45,4.489,18.45,4.489s-.237,2.617,5.715,3.092,43.794,3.092,66.406-8.508a11.7,11.7,0,0,0,.686-1.888c10.86-25.978,4.4-76.435,1.849-86.018" transform="translate(51.914 62.71)" fill="#5a6c92"/>
        <path id="Trazado_607484" data-name="Trazado 607484" d="M83.864,109.979c-7.745,0-13.623-.421-15.681-.587-5.952-.475-5.713-3.092-5.713-3.092a119.619,119.619,0,0,1-16.352-3.733c.047.912.084,1.828.112,2.735,5.276,1.651,18.25,6.981,21.548,7.244,2.776.224,8.725,0,16.085,0,7.087,0,15.483-1.634,23.954-2.778-.013-.849-.011-.432-.009-1.3a179.6,179.6,0,0,1-23.946,1.509" transform="translate(53.042 117.965)" fill="#3e5068"/>
        <path id="Trazado_607485" data-name="Trazado 607485" d="M39.713,102.492c.922.329-1.051,1.1-3.017-.95s-8.151-8.626-8.151-8.626,8.874,8.777,11.168,9.577" transform="translate(32.83 106.863)" fill="#ea9f6c"/>
        <path id="Trazado_607486" data-name="Trazado 607486" d="M55.5,68.1a1.654,1.654,0,1,1-1.634-1.911A1.785,1.785,0,0,1,55.5,68.1" transform="translate(60.078 76.124)" fill="#3e5068"/>
        <path id="Trazado_607487" data-name="Trazado 607487" d="M52.266,78.383a1.611,1.611,0,1,1-1.58-1.916,1.773,1.773,0,0,1,1.58,1.916" transform="translate(56.474 87.946)" fill="#3e5068"/>
        <path id="Trazado_607488" data-name="Trazado 607488" d="M51.775,88.749a1.568,1.568,0,1,1-1.531-1.909,1.753,1.753,0,0,1,1.531,1.909" transform="translate(56.028 99.876)" fill="#3e5068"/>
        <path id="Trazado_607489" data-name="Trazado 607489" d="M51.775,107.617a1.569,1.569,0,1,1-1.531-1.916,1.752,1.752,0,0,1,1.531,1.916" transform="translate(56.028 121.569)" fill="#3e5068"/>
        <path id="Trazado_607490" data-name="Trazado 607490" d="M72.183,12.447C67.8,11.095,60.3,9.572,56.6,18.566c-3.677,8.94-6.923,17.652-6.225,32.736.6,12.879,6.194,31.946,14.617,38.371C61.031,87.828,49.1,76.413,46.328,58.3,43.505,39.859,51.658,17.6,56.4,11.258c5.762-7.712,15.782,1.189,15.782,1.189" transform="translate(52.616 9.331)" fill="#d87736"/>
        <path id="Trazado_607491" data-name="Trazado 607491" d="M58.995,66.822a15.942,15.942,0,0,1-6.867-12.189C51.02,38.642,53.505,29.67,56.69,20.719c3.2-8.994,8.259-9.314,12.475-9.953,0,0-7.609-4.287-12.589,3.421C52.469,20.532,46.2,41.4,49.126,57.522s12.243,19.551,17.235,19a46.4,46.4,0,0,1-7.366-9.7" transform="translate(55.635 11.015)" fill="#d87736"/>
        <path id="Trazado_607492" data-name="Trazado 607492" d="M94.793,57.922c.535,2.649,6.057,6.265,6.078,11.675.024,5.395-4.954,9.5-8,15.113-2.9,5.339-2.249,10.256,1.284,14.081s4.743,9.368-.643,14.182c-3.816,3.414-.31,9.4,3.421,7.547a4,4,0,0,0,2.036-4.309c-.174,2.18-1.843,3.758-3.249,3.307-2.552-.819-2.1-3.625-1.352-4.595s2.791-2.275,4.283-4.414c2.569-3.675,2.486-8.089.452-12.55s-3.234-8.084.729-13.438,6.614-8.271,7.278-14.924c.372-3.75-1.957-5.81-7.278-9.265-4.079-2.649-4.5-6.106-3.855-7.39a6.205,6.205,0,0,0-1.18,4.98" transform="translate(104.713 60.89)" fill="#b7642c"/>
        <path id="Trazado_607493" data-name="Trazado 607493" d="M67.259,10.3c-2.655.14-6.27,1.505-9.162,5.44s-7.439,21.314-7.491,29.45,3.156,22.1,6.932,27.64c-3.7-3.771-9.235-12.851-10.017-27.377C45.588,9.509,60.267,9.484,61.469,9.322s5.79.98,5.79.98" transform="translate(54.453 10.704)" fill="#e0a43b"/>
        <path id="Trazado_607494" data-name="Trazado 607494" d="M91.683,56.23c-.484,3.159-3.371,15.98,10.224,24.354,8.938,5.509,6.3,12,3.586,16.7s2.064,8.529,6.048,10.278c4.644,2.03,4.644,10.116-3.212,9.912-9.981-.256-5.005,14.522,2.782,5.485-1.632.9-3.685,1.819-5.2.415s-1.028-4.3,3.492-3.988,10.708-.428,11.989-6.4c1.606-7.465-4.935-8.069-8.562-11.894-4.285-4.511,5.833-12.647-.43-24.21-4.2-7.745-16.7-7.089-14.44-29.622s-6.274,8.964-6.274,8.964" transform="translate(104.773 45.023)" fill="#d87736"/>
        <path id="Trazado_607495" data-name="Trazado 607495" d="M60.847,17.156c.931-6.317,4.722-7.345,11.819-6.723S98.02,17.984,101.54,29.868s10.2,25.5,14.444,32.731,10.557,11.6,12.447,19.192-.83,12.4-.654,14.425,6.584-9.534,6.259-14.425-3.8-8-7.947-15.539-2.477-4.5-4.9-21.585S110.562,20.3,106.528,16.834,91.895,7.367,80.972,5.017C70.7,2.811,55.42,6.236,60.847,17.156" transform="translate(68.678 5.04)" fill="#e0a43b"/>
        <path id="Trazado_607496" data-name="Trazado 607496" d="M76.916,12.608C95.048,30.177,88.522,48.083,100.987,57.92c11.232,8.867,16.588,22.787,7.837,33.864-3.965,5.016-9.639,12.555-6.487,16.236,5.85,6.85,14.356,4.788,5.676,19.093.583-.694,3.481-7.5-.271-9.893C95.953,111.993,86.4,104.431,90.18,92s11.888-7.5-2.7-26.092C78.333,54.26,82.257,53.86,83.156,36.04c.753-15-6.24-23.432-6.24-23.432" transform="translate(88.462 14.501)" fill="#d87736"/>
        <path id="Trazado_607497" data-name="Trazado 607497" d="M82.754,29.383c.718-3.264-5.5,8.979-3.612,14.9s5.023,5.846,5.18,9.495-.785,6.311-4.868,11.808-.783,8.246.628,9.222,4.556,1.694,6.6,4.322a6.285,6.285,0,0,1,0,7.811c-1.572,1.883-4.38,3.885-3.918,6.971s4.135,3.539,5.279,3.378a4.463,4.463,0,0,0,3.507-2.58A5.743,5.743,0,0,1,87.6,95.976a2.625,2.625,0,0,1-2.178-4.07c.944-1.359,5.371-4.483,6.126-6.384A8.459,8.459,0,0,0,88.6,75.63c-2.548-1.879-4.274-3.363-2.075-7.175s4.24-6.541,4.4-11.378-2.357-8.452-5.18-11.748-5.184-5.982-2.984-15.945" transform="translate(89.114 33.168)" fill="#d87736"/>
        <path id="Trazado_607498" data-name="Trazado 607498" d="M70.01,3.673c16.982,4.52,30.721,15.365,35.5,28.362,4.1,11.157,3.1,16.291,3.666,24.5s3.292,11.826,7.239,15.788,5.728,8.628,2.064,17.867,3.335-.443,5.356-5.309c1.974-4.743,2.539-13.294-5.921-19.5-5.519-4.047-2.255-11.08-2.255-18.973s-1.709-12.871-6.766-20.308c-8.162-12-25.629-22.185-38.883-22.439" transform="translate(80.52 4.224)" fill="#d87736"/>
      </g>
    </g>
  </g>
</svg>
