<svg xmlns="http://www.w3.org/2000/svg" xmlns:xlink="http://www.w3.org/1999/xlink" width="101" height="101" viewBox="0 0 101 101">
  <defs>
    <clipPath id="clip-path">
      <rect id="Rectángulo_294776" data-name="Rectángulo 294776" width="68.32" height="68.389" fill="#fff"/>
    </clipPath>
  </defs>
  <g id="Grupo_236160" data-name="Grupo 236160" transform="translate(-284.948 -4940)">
    <circle id="Elipse_4711" data-name="Elipse 4711" cx="50.5" cy="50.5" r="50.5" transform="translate(284.948 4940)" fill="#6e2034"/>
    <g id="Grupo_236144" data-name="Grupo 236144" transform="translate(300.948 4952)">
      <g id="Grupo_236143" data-name="Grupo 236143" clip-path="url(#clip-path)">
        <path id="Trazado_607624" data-name="Trazado 607624" d="M60.768,42.936c-.164-.116-.418-.167-.4-.441a10.9,10.9,0,0,1,.21-3.1c.662-1.873,1.274-3.764,1.9-5.65.4-1.2-.065-1.84-1.314-1.843-1.518,0-3.038-.03-4.555.013-.614.017-.822-.1-.818-.783.033-5.269.018-10.538.018-15.807,0-1.321-.324-1.652-1.618-1.652-1.542,0-3.085-.014-4.626.008-.429.006-.611-.057-.6-.56.021-1.464-.273-1.727-1.742-1.727a2.727,2.727,0,0,0-.5,0,1.69,1.69,0,0,1-2.272-1.44c-.064-.3-.135-.488.125-.726.541-.5,1.055-1.025,1.564-1.556a1.144,1.144,0,0,0,.028-1.81Q44.652,4.31,43.1,2.8a1.13,1.13,0,0,0-1.758.011c-.517.489-1.031.985-1.505,1.514-.285.318-.511.259-.9.17a1.593,1.593,0,0,1-1.359-2.115,5.588,5.588,0,0,0,.008-1.067A1.167,1.167,0,0,0,36.262,0c-1.068-.009-2.135,0-3.2,0-2.238,0-2.378.073-2.278,2.313.051,1.153-.129,1.9-1.389,2.185-.4.09-.617.108-.891-.19-.482-.523-.988-1.027-1.507-1.513a1.128,1.128,0,0,0-1.758.006q-1.556,1.514-3.071,3.07A1.125,1.125,0,0,0,22.16,7.63c.471.5.949,1,1.461,1.458.346.31.323.548.215,1.008-.284,1.208-1,1.486-2.084,1.3a3.856,3.856,0,0,0-.64,0c-1.466,0-1.755.258-1.733,1.733.008.515-.194.558-.611.553-1.566-.02-3.132-.009-4.7-.007-1.173,0-1.539.36-1.54,1.515,0,4.6-.011,9.209.014,13.813,0,.535-.121.746-.662.9a6.5,6.5,0,0,0-4.846,4.985A6.571,6.571,0,0,0,9,41.442,8.4,8.4,0,0,0,12.3,43.3c-1.361,0-2.722,0-4.083,0A7.978,7.978,0,0,0,0,51.514q-.011,7.654,0,15.309c0,1.169.362,1.535,1.52,1.536H25.795c1.169,0,1.54-.364,1.54-1.517q0-4.094,0-8.188c0-.33-.029-.562.455-.56q6.406.031,12.812,0c.362,0,.484.11.531.467a10.206,10.206,0,0,0,6.593,8.487,18.565,18.565,0,0,0,11.168.871c6.795-1.374,10.41-6.719,9.2-13.5a17.278,17.278,0,0,0-7.32-11.484M59.9,34.209c-.471,1.427-.94,2.832-1.4,4.24a.369.369,0,0,1-.413.291q-3.41-.007-6.821,0a.4.4,0,0,1-.456-.33c-.447-1.39-.913-2.774-1.387-4.2Zm-8.656,7.332c-.036-.37.036-.541.479-.535,1.969.026,3.938.033,5.907,0,.569-.01.428.32.458.629.036.37-.034.552-.479.535-.995-.036-1.992-.011-2.989-.011-.973,0-1.947-.035-2.917.013-.571.029-.428-.319-.459-.628M23.4,13.674c1.564,0,1.6-.023,2.07-1.546a9.772,9.772,0,0,1,.86-1.942c.477-.839.425-1.179-.269-1.877-.435-.437-.864-.881-1.316-1.3-.2-.189-.218-.324,0-.494a2.1,2.1,0,0,0,.253-.25c.353-.384.7-.769,1.088-1.191.6.617,1.139,1.152,1.659,1.7a1.226,1.226,0,0,0,1.713.246A8.983,8.983,0,0,1,32,5.962a1.221,1.221,0,0,0,1.034-1.393c-.014-.213,0-.427,0-.641,0-1.785.165-1.91,1.987-1.658.34.047.289.229.29.433,0,.641.016,1.282,0,1.922a1.174,1.174,0,0,0,.954,1.308,10.2,10.2,0,0,1,2.736,1.151,1.125,1.125,0,0,0,1.488-.2c.453-.453.922-.892,1.35-1.367.269-.3.453-.392.753-.026.371.454,1.076.833,1.118,1.294C43.737,7.152,43,7.594,42.6,8c-1.112,1.113-1.118,1.16-.385,2.547a9.244,9.244,0,0,1,.812,2.115,1.206,1.206,0,0,0,1.332,1.02c.64-.02,1.282.016,1.921-.012.356-.016.417.117.429.444.065,1.843.074,1.843-1.728,1.843-1.605,0-1.644.022-2.1,1.51A10.1,10.1,0,0,1,42,19.47a1.206,1.206,0,0,0,.262,1.817c.52.518,1.055,1.022,1.606,1.554-.549.542-1,1.347-1.574,1.456-.607.114-1.015-.81-1.51-1.275-.848-.8-1.111-.859-2.11-.294a9.7,9.7,0,0,1-2.225.915c-.919.252-1.134.542-1.137,1.518,0,.57-.019,1.14.006,1.709.015.353-.067.478-.459.487-1.826.042-1.826.057-1.826-1.748,0-1.58-.033-1.632-1.526-2.087a9.121,9.121,0,0,1-2.066-.926,1.2,1.2,0,0,0-1.66.218,13.507,13.507,0,0,0-1.141,1.171c-.41.544-.695.423-1.06-.026-.313-.384-.939-.713-.952-1.083-.012-.344.6-.713.941-1.067.214-.222.433-.439.653-.656a1.151,1.151,0,0,0,.2-1.545,9.912,9.912,0,0,1-1.12-2.673,1.2,1.2,0,0,0-1.358-.987c-.616.025-1.235-.02-1.85.015-.39.022-.458-.125-.465-.481-.037-1.807-.048-1.807,1.764-1.807M9.114,36.476a4.555,4.555,0,1,1,4.519,4.54,4.558,4.558,0,0,1-4.519-4.54m6.108,9.118c-.341.688-.646,1.341-.986,1.976a.672.672,0,0,1-1.131.007c-.295-.535-.555-1.09-.828-1.638-.049-.1-.083-.206-.138-.346ZM2.726,66.086c-.315,0-.456-.046-.454-.415.014-4.909-.036-9.818.038-14.726a5.406,5.406,0,0,1,2.78-4.567l5.915,19.7c-2.829,0-5.554,0-8.279.006m8.509-16.246c-.276,1.751-.571,3.5-.859,5.247-.019.116-.026.238-.21.295-.938-3.135-1.871-6.271-2.821-9.4-.092-.3-.011-.388.268-.39.544,0,1.089,0,1.632-.021.263-.01.366.126.469.336.488,1,.978,1.991,1.5,2.972a1.412,1.412,0,0,1,.026.964m4.25,11.181c-.458,1.541-.925,3.079-1.387,4.618-.068.225-.088.451-.43.451s-.361-.229-.428-.453c-.462-1.54-.948-3.072-1.382-4.619a5.666,5.666,0,0,1,.245-2.449c.42-2.666.869-5.327,1.316-7.989.027-.162-.022-.435.252-.433s.222.274.25.436q.809,4.8,1.6,9.6c.016.093.021.189.042.4a2.854,2.854,0,0,1-.076.442M16.723,47.7a6.323,6.323,0,0,0,.355-.692c.795-1.592.793-1.579,2.552-1.431.409.034.443.147.33.517-.941,3.091-1.859,6.188-2.784,9.283l-.151-.012c-.262-1.552-.462-3.117-.805-4.651a3.677,3.677,0,0,1,.5-3.013m7.892,18.394c-2.725-.025-5.45-.012-8.28-.012l5.913-19.709a5.618,5.618,0,0,1,2.8,4.853c.034,4.767.01,9.534.014,14.3,0,.32.047.572-.446.567m15.02-10.266c-3.867,0-7.733-.017-11.6.017-.617.005-.713-.176-.716-.743a35.513,35.513,0,0,0-.108-5.116,7.922,7.922,0,0,0-7.421-6.667c-1.679-.059-3.362-.01-5.043-.01a7.225,7.225,0,0,0,4.442-2.823,6.81,6.81,0,0,0-3.8-10.615c-.41-.109-.6-.229-.6-.723q.04-6.3,0-12.6c0-.516.147-.623.631-.607,1.137.037,2.278.038,3.415,0,.462-.016.586.138.528.559a2.912,2.912,0,0,0,0,.569,1.132,1.132,0,0,0,1.179,1.158c.758.022,1.519.029,2.277-.005.376-.017.478.164.658.45.678,1.075.374,1.8-.555,2.586-1.617,1.36-1.56,1.8-.01,3.259.778.73,1.507,1.513,2.272,2.257a1.16,1.16,0,0,0,1.86,0,5.3,5.3,0,0,0,.748-.759,1.6,1.6,0,0,1,2.458-.538c.338.209.532.339.51.761-.037.71-.022,1.423-.007,2.135a1.136,1.136,0,0,0,1.235,1.244q2.17.023,4.341,0a1.143,1.143,0,0,0,1.251-1.23,5.023,5.023,0,0,0-.007-1.066A1.656,1.656,0,0,1,39,25.106c.333-.073.53-.129.782.146.5.542,1.024,1.056,1.557,1.563a1.128,1.128,0,0,0,1.756.018q1.583-1.536,3.117-3.123A1.116,1.116,0,0,0,46.191,22c-.519-.554-1.056-1.092-1.612-1.608-.253-.234-.2-.418-.134-.725a1.693,1.693,0,0,1,2.27-1.443,2.71,2.71,0,0,0,.5,0c1.469,0,1.756-.267,1.753-1.723,0-.4.042-.586.522-.569,1.185.041,2.372.033,3.557,0,.426-.011.494.143.493.524q-.018,7.475,0,14.949c0,.421-.137.5-.521.5-1.637-.02-3.273-.013-4.91-.007-1.158,0-1.629.658-1.264,1.767.628,1.91,1.244,3.824,1.914,5.719a11.106,11.106,0,0,1,.214,3.1c.017.242-.186.305-.335.409A17.353,17.353,0,0,0,41.2,54.546c-.228,1.283-.241,1.281-1.57,1.281m20.34,9.412a16.788,16.788,0,0,1-10.821-.061,8.156,8.156,0,0,1-5.833-8.993,14.918,14.918,0,0,1,6.729-11.479,1.507,1.507,0,0,1,.921-.277c1.233.015,2.467.006,3.7.006,1.162,0,2.325.021,3.486-.01a2.051,2.051,0,0,1,1.313.4,14.876,14.876,0,0,1,6.55,11.509c.327,4.4-1.838,7.532-6.045,8.907" transform="translate(0 0)" fill="#fff"/>
        <path id="Trazado_607625" data-name="Trazado 607625" d="M268.955,258.324c-.711-.006-1.423.016-2.134-.006a1.134,1.134,0,1,1-.016-2.268c.758-.023,1.518-.025,2.276,0a1.107,1.107,0,0,1,1.111,1c.183.947.671,1.394,1.369,1.245s1.042-.809.875-1.689a3.394,3.394,0,0,0-2.916-2.8c-.416-.064-.467-.207-.467-.567,0-1.232-.366-1.766-1.151-1.751-.765.015-1.12.537-1.109,1.721,0,.393-.061.536-.508.605a3.405,3.405,0,0,0-.069,6.73,9.587,9.587,0,0,0,1.56.013c0,.014,0,.029,0,.044.4,0,.807-.012,1.209,0a1.137,1.137,0,1,1,.019,2.271c-.711.02-1.423.017-2.134,0a1.14,1.14,0,0,1-1.225-1.114c-.126-.785-.6-1.224-1.255-1.153a1.2,1.2,0,0,0-1.014,1.455,3.3,3.3,0,0,0,2.57,2.955c.67.137.922.343.857,1.058a1.126,1.126,0,0,0,1.1,1.358c.691.01,1.138-.5,1.154-1.33a2.333,2.333,0,0,0,0-.355c-.057-.417.068-.57.537-.647a3.389,3.389,0,0,0,2.874-3.648,3.44,3.44,0,0,0-3.514-3.129" transform="translate(-213.254 -203.636)" fill="#fff"/>
        <path id="Trazado_607626" data-name="Trazado 607626" d="M155.388,59.3a5.7,5.7,0,1,0-5.743-5.717,5.707,5.707,0,0,0,5.743,5.717m-.076-9.109a3.416,3.416,0,1,1-3.386,3.406,3.43,3.43,0,0,1,3.386-3.406" transform="translate(-121.17 -38.797)" fill="#fff"/>
      </g>
    </g>
  </g>
</svg>
