<svg id="Grupo_235839" data-name="Grupo 235839" xmlns="http://www.w3.org/2000/svg" xmlns:xlink="http://www.w3.org/1999/xlink" width="148.851" height="156.5" viewBox="0 0 148.851 156.5">
  <defs>
    <clipPath id="clip-path">
      <rect id="Rect치ngulo_294529" data-name="Rect치ngulo 294529" width="148.851" height="156.5" fill="none"/>
    </clipPath>
  </defs>
  <g id="Grupo_235838" data-name="Grupo 235838" clip-path="url(#clip-path)">
    <path id="Trazado_275057" data-name="Trazado 275057" d="M90.93,52.383c22.02,9.613,31.1,30.5,36.309,54.421.457,2.151,5.445,27.838,4.583,27.838a7.83,7.83,0,0,1,0,15.66H9.379a7.83,7.83,0,0,1,0-15.66c-.873,0,4.115-25.687,4.582-27.838,5.2-23.922,14.281-44.82,36.312-54.421Z" transform="translate(-0.019 -0.654)" fill="#ced371"/>
    <path id="Trazado_275058" data-name="Trazado 275058" d="M131.8,151.818H9.359a9.365,9.365,0,0,1-1.583-18.595c.141-1.842.669-5.337,1.922-12.319,1.2-6.713,2.526-13.439,2.744-14.445,4.389-20.2,12.583-44.771,37.2-55.5a1.534,1.534,0,0,1,1.226,2.812c-23.34,10.173-31.192,33.85-35.425,53.34-.692,3.186-4.64,23.976-4.654,26.951a1.517,1.517,0,0,1,.107.562,1.535,1.535,0,0,1-1.535,1.535,6.3,6.3,0,0,0,0,12.591H131.8a6.3,6.3,0,0,0,0-12.591,1.534,1.534,0,0,1-1.43-2.091c-.018-2.947-3.9-23.417-4.653-26.964C121.48,87.625,113.621,63.952,90.3,53.77a1.534,1.534,0,1,1,1.227-2.812c24.6,10.738,32.8,35.3,37.195,55.5.241,1.134,1.553,7.85,2.737,14.451,1.251,6.973,1.78,10.469,1.923,12.312a9.365,9.365,0,0,1-1.577,18.6m0-18.728a1.48,1.48,0,0,0-.323.035,1.52,1.52,0,0,1,.323-.035m-122.438,0a1.5,1.5,0,0,1,.3.03,1.551,1.551,0,0,0-.3-.03" transform="translate(0 -0.634)" fill="#390a93"/>
    <path id="Trazado_275059" data-name="Trazado 275059" d="M50.734,38.455,38.763,9.306a14.3,14.3,0,0,1,19.67,1.486,14.308,14.308,0,0,1,26.759,0,14.3,14.3,0,0,1,18.5-2.348L91.365,38.455Z" transform="translate(-0.484 -0.019)" fill="#ced371"/>
    <path id="Trazado_275060" data-name="Trazado 275060" d="M50.715,39.97a1.537,1.537,0,0,1-1.421-.952L37.325,9.869a1.534,1.534,0,0,1,.446-1.77,15.831,15.831,0,0,1,20.159.09,15.83,15.83,0,0,1,27.728,0,15.824,15.824,0,0,1,18.86-1.044,1.533,1.533,0,0,1,.572,1.861L92.764,39.018a1.534,1.534,0,0,1-2.838-1.165L101.747,9.064A12.77,12.77,0,0,0,86.309,11.8a1.535,1.535,0,0,1-2.571-.483,12.772,12.772,0,0,0-23.891,0,1.534,1.534,0,0,1-2.57.483,12.768,12.768,0,0,0-16.664-2L52.133,37.853a1.535,1.535,0,0,1-1.418,2.117" transform="translate(-0.464)" fill="#390a93"/>
    <path id="Trazado_275061" data-name="Trazado 275061" d="M64.839,40.2a1.535,1.535,0,0,1-1.5-1.2L59.238,20.556a1.534,1.534,0,1,1,3-.667l4.105,18.446a1.535,1.535,0,0,1-1.164,1.831,1.558,1.558,0,0,1-.335.037" transform="translate(-0.739 -0.233)" fill="#390a93"/>
    <path id="Trazado_275062" data-name="Trazado 275062" d="M79.532,40.2a1.558,1.558,0,0,1-.335-.037,1.535,1.535,0,0,1-1.164-1.831l4.1-18.446a1.535,1.535,0,0,1,3,.667L81.028,39a1.535,1.535,0,0,1-1.5,1.2" transform="translate(-0.973 -0.233)" fill="#390a93"/>
    <path id="Trazado_275063" data-name="Trazado 275063" d="M91.553,52.814H51.342a6.538,6.538,0,0,1-6.537-6.537v-.751a6.538,6.538,0,0,1,6.537-6.537H91.553a6.538,6.538,0,0,1,6.537,6.537v.751a6.538,6.538,0,0,1-6.537,6.537" transform="translate(-0.559 -0.487)" fill="#fff"/>
    <path id="Trazado_275064" data-name="Trazado 275064" d="M91.534,54.329H51.323a8.081,8.081,0,0,1-8.072-8.072v-.751a8.08,8.08,0,0,1,8.072-8.071H91.534a8.08,8.08,0,0,1,8.072,8.071v.751a8.081,8.081,0,0,1-8.072,8.072M51.323,40.5a5.009,5.009,0,0,0-5,5v.751a5.009,5.009,0,0,0,5,5H91.534a5.009,5.009,0,0,0,5-5v-.751a5.009,5.009,0,0,0-5-5Z" transform="translate(-0.54 -0.467)" fill="#390a93"/>
    <path id="Trazado_275065" data-name="Trazado 275065" d="M120.816,156.322H145.9a2.629,2.629,0,0,0,2.631-2.632V111.339a2.629,2.629,0,0,0-2.631-2.632h-45.78a2.63,2.63,0,0,0-2.632,2.632V132Z" transform="translate(-1.217 -1.357)" fill="#fff5ab"/>
    <path id="Trazado_275066" data-name="Trazado 275066" d="M145.881,157.837H120.8a1.535,1.535,0,0,1,0-3.069h25.085a1.1,1.1,0,0,0,1.1-1.1V111.319a1.1,1.1,0,0,0-1.1-1.1H100.1a1.1,1.1,0,0,0-1.1,1.1v20.658a1.534,1.534,0,1,1-3.068,0V111.319a4.17,4.17,0,0,1,4.165-4.165h45.78a4.17,4.17,0,0,1,4.165,4.165v42.352a4.171,4.171,0,0,1-4.165,4.166" transform="translate(-1.197 -1.337)" fill="#390a93"/>
    <path id="Rect치ngulo_294528" data-name="Rect치ngulo 294528" d="M2.714,0H49.3a2.714,2.714,0,0,1,2.714,2.714V21.608A2.715,2.715,0,0,1,49.3,24.323H2.714A2.714,2.714,0,0,1,0,21.609V2.714A2.714,2.714,0,0,1,2.714,0Z" transform="translate(70.263 130.638)" fill="#fff5ab"/>
    <path id="Trazado_275067" data-name="Trazado 275067" d="M120.468,158.127H73.812a4.219,4.219,0,0,1-4.214-4.215v-18.96a4.219,4.219,0,0,1,4.214-4.216h46.656a4.219,4.219,0,0,1,4.214,4.216v18.96a4.219,4.219,0,0,1-4.214,4.215M73.812,133.805a1.147,1.147,0,0,0-1.146,1.147v18.96a1.148,1.148,0,0,0,1.146,1.146h46.656a1.147,1.147,0,0,0,1.145-1.146v-18.96a1.146,1.146,0,0,0-1.145-1.147Z" transform="translate(-0.869 -1.632)" fill="#390a93"/>
    <path id="Trazado_275068" data-name="Trazado 275068" d="M97.488,82.9c.574,33.568,50.477,33.563,51.046,0-.574-33.567-50.477-33.562-51.046,0" transform="translate(-1.217 -0.72)" fill="#fff5ab"/>
    <path id="Trazado_275069" data-name="Trazado 275069" d="M122.994,109.586c-12.813,0-26.746-8.348-27.059-26.682a.464.464,0,0,1,0-.052c.31-18.331,14.242-26.681,27.054-26.682s26.746,8.347,27.059,26.681V82.9c-.31,18.331-14.242,26.682-27.054,26.683M99,82.877c.29,16.242,12.635,23.639,23.989,23.639h0c11.353,0,23.7-7.4,23.986-23.64-.291-16.241-12.635-23.638-23.989-23.638h0c-11.354,0-23.7,7.4-23.987,23.639" transform="translate(-1.197 -0.701)" fill="#390a93"/>
    <path id="Trazado_275070" data-name="Trazado 275070" d="M123.576,96.746h-5.854a1.534,1.534,0,0,1,0-3.068h5.854a4.32,4.32,0,0,0,0-8.64,7.388,7.388,0,0,1,0-14.776h5.854a1.534,1.534,0,1,1,0,3.068h-5.854a4.32,4.32,0,0,0,0,8.64,7.388,7.388,0,1,1,0,14.776" transform="translate(-1.45 -0.877)" fill="#390a93"/>
    <path id="Trazado_275071" data-name="Trazado 275071" d="M123.646,102.393a1.535,1.535,0,0,1-1.535-1.535V95.511a1.535,1.535,0,0,1,3.069,0v5.347a1.535,1.535,0,0,1-1.535,1.535" transform="translate(-1.524 -1.173)" fill="#390a93"/>
    <path id="Trazado_275072" data-name="Trazado 275072" d="M123.646,73.255a1.534,1.534,0,0,1-1.535-1.535V65.466a1.535,1.535,0,0,1,3.069,0v6.255a1.534,1.534,0,0,1-1.535,1.535" transform="translate(-1.524 -0.798)" fill="#390a93"/>
  </g>
</svg>
