<svg xmlns="http://www.w3.org/2000/svg" xmlns:xlink="http://www.w3.org/1999/xlink" width="101" height="101" viewBox="0 0 101 101">
  <defs>
    <clipPath id="clip-path">
      <rect id="Rectángulo_294777" data-name="Rectángulo 294777" width="68.594" height="68.556" fill="#fff"/>
    </clipPath>
  </defs>
  <g id="Grupo_236161" data-name="Grupo 236161" transform="translate(-809.948 -4940)">
    <circle id="Elipse_4712" data-name="Elipse 4712" cx="50.5" cy="50.5" r="50.5" transform="translate(809.948 4940)" fill="#6e2034"/>
    <g id="Grupo_236146" data-name="Grupo 236146" transform="translate(825.948 4956)">
      <g id="Grupo_236145" data-name="Grupo 236145" clip-path="url(#clip-path)">
        <path id="Trazado_607627" data-name="Trazado 607627" d="M67.642,52.524c-1.5-.582-2.99-1.211-4.5-1.785a1.036,1.036,0,0,1-.687-.721c-.6-1.85-1.222-3.694-1.841-5.539-.3-.893-.568-1.083-1.505-1.084-2.333,0-4.667-.023-7,.015-.58.009-.683-.169-.682-.7q.027-10.072.011-20.143c0-.914-.4-1.432-1.111-1.453-.731-.021-1.172.523-1.173,1.461,0,2.929,0,5.857-.005,8.786,0,.564.242,1.3-.1,1.647s-1.084.05-1.645.112c-.447.05-.554-.1-.548-.545.026-2,.013-4,.01-6,0-1.072-.391-1.461-1.46-1.462q-4.25,0-8.5,0c-1.077,0-1.466.386-1.467,1.454,0,2-.013,4,.009,6,0,.424-.077.568-.537.559-1.571-.033-3.143-.027-4.714,0-.422.007-.575-.1-.611-.54a14.037,14.037,0,0,0-2.322-6.506c-.2-.307-.424-.6-.687-.964,2.178,0,4.225,0,6.272,0,1.036,0,1.444-.394,1.445-1.406q.007-4.321,0-8.643c0-.968-.419-1.377-1.4-1.378q-4.321-.006-8.643,0c-.974,0-1.381.413-1.383,1.393-.005,2.024,0,4.048-.007,6.071,0,.166.1.372-.087.507-.473-.25-.928-.5-1.393-.733-1.08-.535-1.741-.438-2.082.291-.323.694.011,1.241,1.067,1.749A12.593,12.593,0,1,1,15.575,21.7c.952.03,1.436-.315,1.473-1.05s-.436-1.172-1.343-1.227a15.132,15.132,0,0,0-4.11.347,18.3,18.3,0,0,0-3.583,1.28c0-.723.033-1.367-.011-2.005a.867.867,0,0,1,.6-.96q9.659-4.8,19.287-9.657a1.4,1.4,0,0,1,1.431.019q12.855,6.461,25.726,12.889,2.111,1.057,2.113-1.324c0-1.571-.04-3.144.016-4.714a1.646,1.646,0,0,0-1.063-1.727c-2.941-1.436-5.864-2.912-8.791-4.376Q38.408,4.738,29.5.274a1.638,1.638,0,0,0-1.615-.1Q22.039,3.127,16.169,6.039a1.173,1.173,0,0,0-.753.956,1.081,1.081,0,0,0,.458,1.059,1.275,1.275,0,0,0,1.411-.016c3.6-1.808,7.217-3.6,10.817-5.417a.951.951,0,0,1,.976,0C31.85,4.026,34.634,5.413,37.415,6.8q8.439,4.219,16.878,8.439c.256.128.6.163.585.6-.026.916-.008,1.833-.008,2.823-.3-.139-.508-.234-.715-.337Q41.87,12.187,29.591,6.029a2,2,0,0,0-2,0q-12.309,6.2-24.647,12.334c-.194.1-.37.3-.649.216,0-.817.036-1.628-.014-2.434a.824.824,0,0,1,.576-.905c3.277-1.614,6.542-3.253,9.808-4.89.826-.414,1.1-1,.8-1.641-.324-.683-.972-.834-1.824-.409C8.049,10.091,4.464,11.894.87,13.677a1.392,1.392,0,0,0-.87,1.4c.026,1.642.008,3.286.008,4.929,0,1.587.7,2.023,2.114,1.319l3.6-1.794c0,.832-.035,1.571.012,2.3a1.248,1.248,0,0,1-.515,1.145,14.761,14.761,0,0,0,.03,22.544,1.248,1.248,0,0,1,.483,1.085Q5.711,54.506,5.724,62.4c0,1.215.354,1.569,1.569,1.569H22.436c1.218,0,1.574-.354,1.574-1.565q0-7.893-.009-15.786a1.251,1.251,0,0,1,.488-1.088,13.682,13.682,0,0,0,3.8-5.013.823.823,0,0,1,.906-.562c4.548.019,9.1.012,13.643.012,1.929,0,3.857.017,5.786-.012.456-.007.559.127.54.557-.035.808-.032,1.62,0,2.428.016.392-.125.471-.484.464-1.166-.02-2.336.04-3.5-.023a1.886,1.886,0,0,0-1.88.987c-1.187,1.864-2.446,3.683-3.661,5.53a1.142,1.142,0,0,1-.834.559c-2.995.529-5.985,1.087-9.082,1.656,0-1.246.026-2.434-.013-3.621-.015-.469.148-.536.563-.533,2.381.019,4.762.011,7.143.009.914,0,1.43-.4,1.447-1.118.017-.732-.524-1.166-1.468-1.166q-4.25,0-8.5,0c-1.069,0-1.455.39-1.457,1.465,0,1.619,0,3.238,0,4.857,0,.236.1.487-.3.593a1.176,1.176,0,0,0-.846,1.319c.013,2.881,0,5.762.007,8.643,0,1.014.407,1.406,1.441,1.409,1.286,0,2.572.022,3.857-.011.411-.011.556.123.675.5a5.682,5.682,0,0,0,10.9.012c.135-.436.341-.515.742-.511,1.667.019,3.333.011,5,.006.849,0,1.362-.421,1.382-1.11.021-.714-.511-1.171-1.389-1.173-1.643,0-3.286-.019-4.929.01-.47.008-.7-.089-.828-.59a5.157,5.157,0,0,0-1.9-2.776,5.683,5.683,0,0,0-8.961,2.8c-.134.427-.3.6-.767.571-.83-.049-1.666-.028-2.5-.007-.328.008-.46-.066-.449-.426.026-.856.022-1.714,0-2.571-.008-.331.07-.463.428-.447.618.029,1.238.016,1.857.006a3.421,3.421,0,0,0,3.391-2.887,7.064,7.064,0,0,0,.039-1.354c-.01-.321.086-.437.422-.495,1.733-.3,3.457-.65,5.191-.939a1.735,1.735,0,0,0,1.254-.825c1.24-1.887,2.5-3.759,3.746-5.644a.768.768,0,0,1,.723-.438q3.25.033,6.5,0c.387,0,.473.12.466.482-.021,1.19-.033,2.382,0,3.571.014.46-.132.544-.558.539-2.024-.023-4.048-.013-6.072-.009-.85,0-1.361.42-1.381,1.109-.021.715.51,1.171,1.389,1.174,1.309.005,2.619,0,3.929,0,3.691,0,7.381.012,11.072-.012.57,0,.827.109.764.734a12.967,12.967,0,0,0-.008,1.642,3.464,3.464,0,0,0,3.038,3.34c.507.063,1.221-.241,1.469.159s.072,1.063.057,1.61.237,1.276-.1,1.566c-.324.274-1.041.053-1.577.116s-.746-.137-.913-.665a5.716,5.716,0,1,0,0,3.586c.169-.54.387-.689.922-.658.854.049,1.714.018,2.571.012.974-.007,1.388-.415,1.389-1.39,0-2.881-.009-5.762.009-8.643a1.34,1.34,0,0,0-.952-1.41M30.955,15.964c1.057,0,1.057,0,1.057,1.086,0,1.2,0,1.2-1.229,1.2-1.057,0-1.057,0-1.057-1.086,0-1.2,0-1.2,1.229-1.2m-.163,4.572c1.22,0,1.22,0,1.22,1.208,0,1.078,0,1.078-1.066,1.078-1.22,0-1.22,0-1.22-1.208,0-1.078,0-1.078,1.066-1.078m-4.46-4.572c1.109,0,1.109,0,1.109,1.106,0,1.18,0,1.18-1.177,1.18-1.109,0-1.109,0-1.109-1.106,0-1.18,0-1.18,1.177-1.18m-1.177,5.7c0-1.132,0-1.132,1.154-1.132,1.132,0,1.132,0,1.132,1.154,0,1.132,0,1.132-1.154,1.132-1.132,0-1.132,0-1.132-1.154M9.862,61.692c-1.853.067-1.852.077-1.852-1.8V47.461c.723.285,1.375.558,2.04.8.288.1.245.31.245.516,0,4.162,0,8.324.009,12.486,0,.35-.108.421-.441.433m11.375,0c-2.735-.009-5.47-.014-8.2,0-.4,0-.461-.139-.458-.488.014-1.974.018-3.948,0-5.921,0-.386.118-.483.481-.466.593.027,1.189.025,1.783,0a1.138,1.138,0,1,0,0-2.276c-.594-.022-1.19-.024-1.783,0-.357.015-.5-.069-.484-.462.031-.9.021-1.807,0-2.711-.006-.321.033-.469.42-.414a14.431,14.431,0,0,0,8.73-1.518c0,4.671-.006,9.236.011,13.8,0,.419-.168.448-.5.447m9.635-25.848a4.915,4.915,0,0,0,0,.495c0,1.419,0,1.419-1.514,1.309.089-.64.195-1.243.252-1.851.062-.66.55-.323.858-.394.366-.084.438.131.406.441m3.441,1.841c-1.158,0-1.158,0-1.158-1.128,0-1.158,0-1.158,1.128-1.158,1.158,0,1.158,0,1.158,1.2,0,1.086,0,1.086-1.128,1.086m4.6,0c-1.185,0-1.185,0-1.185-1.172,0-1.114,0-1.114,1.1-1.114,1.185,0,1.185,0,1.185,1.172,0,1.114,0,1.114-1.1,1.114m4.587,0c-1.2,0-1.2,0-1.2-1.229,0-1.057,0-1.057,1.086-1.057,1.2,0,1.2,0,1.2,1.229,0,1.057,0,1.057-1.086,1.057m1.094-5c0,.343-.093.445-.437.437-1-.022-2-.008-3-.008s-2-.014-3,.008c-.343.007-.441-.094-.437-.437q.026-2.428,0-4.856c0-.343.094-.44.437-.437q3,.023,6,0c.343,0,.441.093.437.437q-.026,2.428,0,4.856m3.482,5c-1.2,0-1.2,0-1.2-1.225,0-1.061,0-1.061,1.082-1.061,1.2,0,1.2,0,1.2,1.225,0,1.061,0,1.061-1.082,1.061M37.709,59.4A3.426,3.426,0,1,1,34.3,62.8a3.441,3.441,0,0,1,3.411-3.4m-7.425-3.429H29.5c-1.011,0-1.019-.024-.927-1.012.026-.281.149-.361.385-.4,1-.17,2-.348,3-.522.169,1.541-.179,1.935-1.673,1.936m25.007-5.707c-.356,0-.432-.116-.427-.446.017-1.236.02-2.473,0-3.71-.006-.351.106-.439.442-.432.975.021,1.95.01,2.925.005.226,0,.4.011.492.285.456,1.416.93,2.827,1.414,4.289-1.661,0-3.253-.011-4.845.008m10.6,5.7c-1.239.084-1.807-.259-1.867-1.113-.028-.4,0-.806,0-1.3.7.275,1.308.531,1.929.751.3.107.457.31.342.577-.153.358.479,1.027-.4,1.086m-7.565,10.29a3.427,3.427,0,1,1,3.4-3.413,3.444,3.444,0,0,1-3.4,3.413" transform="translate(0 0.001)" fill="#fff"/>
        <path id="Trazado_607628" data-name="Trazado 607628" d="M32.284,143.319a6.8,6.8,0,0,1-1.983-.769,1.243,1.243,0,0,0-1.017-.194,1.087,1.087,0,0,0-.813.9,1.127,1.127,0,0,0,.631,1.239,10.03,10.03,0,0,0,7.085,1.189,10.31,10.31,0,0,0-1.971-20.433c-.474.036-.955.032-1.421.112a10.208,10.208,0,0,0-8.8,9.144,9.744,9.744,0,0,0,1.335,6.232,1.119,1.119,0,0,0,1.116.617,1.092,1.092,0,0,0,.97-.727,1.318,1.318,0,0,0-.206-1.212,7.636,7.636,0,0,1-.7-5.932,7.821,7.821,0,0,1,6.052-5.713c.149-.036.481-.249.5.125.021.474.18.948-.523,1.26a3.933,3.933,0,0,0-1.013,6.527,4.027,4.027,0,0,0,2.658,1.05,1.715,1.715,0,0,1,1.751,1.7,1.714,1.714,0,0,1-3.423.126,2.53,2.53,0,0,0-.019-.284,1.139,1.139,0,0,0-2.263.123,2.757,2.757,0,0,0,.05.709,3.816,3.816,0,0,0,2.382,2.985c.7.279.445.816.378,1.183-.083.451-.5.094-.75.048m3.441-1.2a3.8,3.8,0,0,0,2.352-2.683A3.97,3.97,0,0,0,34.3,134.45a1.743,1.743,0,0,1-1.647-1.04,1.57,1.57,0,0,1,.231-1.74,1.6,1.6,0,0,1,1.783-.584,1.649,1.649,0,0,1,1.25,1.485,1.546,1.546,0,0,0,.228.809,1.136,1.136,0,0,0,2.064-.7,3.74,3.74,0,0,0-2.336-3.535c-.726-.307-.516-.817-.489-1.279.019-.32.355-.124.517-.087a7.893,7.893,0,0,1,5.25,3.842,7.712,7.712,0,0,1,1.064,3.728,8.052,8.052,0,0,1-6.146,7.988c-.22.053-.625.356-.674-.077-.042-.36-.323-.881.33-1.144" transform="translate(-19.35 -101.335)" fill="#fff"/>
        <path id="Trazado_607629" data-name="Trazado 607629" d="M275.993,126.376c-.424.422-.786.851-.52,1.5.276.67.841.763,1.475.734.4-.019.813.032,1.213-.012.52-.058.677.092.668.644-.036,2.38-.019,4.761-.014,7.141,0,.875.4,1.355,1.2,1.361q3.392.025,6.784,0a1.058,1.058,0,0,0,1.14-1.045,17.955,17.955,0,0,0,0-2.5,1.059,1.059,0,0,0-1.1-1.016,1.12,1.12,0,0,0-1.159,1.033,3.543,3.543,0,0,0,0,.784c.044.383-.107.477-.474.47-1.166-.023-2.334-.037-3.5,0-.51.019-.623-.13-.617-.625.028-2.4.018-4.808.01-7.213a1.168,1.168,0,0,0-1.244-1.324c-.141-.009-.327.1-.446-.126q1.82-1.812,3.637-3.625c.2-.2.334-.369.621-.076,1.227,1.251,2.476,2.481,3.81,3.812-1.274.042-1.748.331-1.789,1.092-.044.807-.037,1.619,0,2.427a1.115,1.115,0,0,0,1.125,1.07,1.172,1.172,0,0,0,1.147-1.059c.06-.4-.227-.962.157-1.179.326-.184.836-.042,1.264-.044.238,0,.476-.006.714,0a1.152,1.152,0,0,0,1.2-.717,1.1,1.1,0,0,0-.3-1.3q-3.354-3.362-6.719-6.713a1.117,1.117,0,0,0-1.757-.011c-.417.39-.811.805-1.215,1.209q-2.651,2.651-5.305,5.3" transform="translate(-222.801 -96.639)" fill="#fff"/>
        <path id="Trazado_607630" data-name="Trazado 607630" d="M254.914,287.082c-.781-.028-1.565-.03-2.346,0a1.12,1.12,0,0,0-1.1,1.16,1.134,1.134,0,0,0,1.084,1.108c.4.029.805.006,1.208.006v0c.379,0,.76.018,1.138,0a1.14,1.14,0,0,0,1.136-1.131,1.122,1.122,0,0,0-1.119-1.142" transform="translate(-203.452 -232.249)" fill="#fff"/>
        <path id="Trazado_607631" data-name="Trazado 607631" d="M300.457,325.338a1.141,1.141,0,1,1,1.178-1.157,1.154,1.154,0,0,1-1.178,1.157" transform="translate(-242.195 -261.371)" fill="#fff"/>
        <path id="Trazado_607632" data-name="Trazado 607632" d="M192.706,325.338a1.141,1.141,0,1,0-1.1-1.163,1.155,1.155,0,0,0,1.1,1.163" transform="translate(-155.02 -261.371)" fill="#fff"/>
        <path id="Trazado_607633" data-name="Trazado 607633" d="M300.495,323.056a1.141,1.141,0,1,0,1.139,1.125,1.152,1.152,0,0,0-1.139-1.125" transform="translate(-242.194 -261.371)" fill="#fff"/>
      </g>
    </g>
  </g>
</svg>
