<svg xmlns="http://www.w3.org/2000/svg" xmlns:xlink="http://www.w3.org/1999/xlink" width="101" height="101" viewBox="0 0 101 101">
  <defs>
    <clipPath id="clip-path">
      <rect id="Rectángulo_294778" data-name="Rectángulo 294778" width="69.418" height="69.439" fill="#fff"/>
    </clipPath>
  </defs>
  <g id="Grupo_236162" data-name="Grupo 236162" transform="translate(-284.948 -5165)">
    <circle id="Elipse_4713" data-name="Elipse 4713" cx="50.5" cy="50.5" r="50.5" transform="translate(284.948 5165)" fill="#6e2034"/>
    <g id="Grupo_236148" data-name="Grupo 236148" transform="translate(304.948 5177)">
      <g id="Grupo_236147" data-name="Grupo 236147" clip-path="url(#clip-path)">
        <path id="Trazado_607634" data-name="Trazado 607634" d="M40.155,285.045c1.858-2.274,3.7-4.558,5.562-6.832q2.937-3.6,5.862-7.2c.8-.986.726-1.643-.287-2.4a6.4,6.4,0,0,0-7.123-.73,1.453,1.453,0,0,1-1.46.073,6.6,6.6,0,0,0-8.081,1.267q-2.678,2.642-5.315,5.326a2.1,2.1,0,0,1-1.677.7c-1.264-.038-2.531.026-3.8-.021a4.119,4.119,0,0,1-3.64-2.107c-.4-.688-.255-.937.544-.953,1.016-.02,2.033,0,3.05-.007a6.624,6.624,0,0,0,6.632-5.94c.149-1.267-.332-1.826-1.609-1.828-3.547-.007-7.1-.08-10.641.02a8.949,8.949,0,0,0-7.707,4.547,1.548,1.548,0,0,1-1.514.866c-2.259-.033-4.519,0-6.778-.019a2.1,2.1,0,0,0-1.99.741c-.039.057-.122.046-.189.033v14.373a2.85,2.85,0,0,0,.949.949H14.1c.068-.05.135-.1.206-.15a1.356,1.356,0,0,0-.728-2.559c-3.388-.006-6.777-.023-10.166.015-.625.007-.718-.181-.713-.744.028-3.163.022-6.327,0-9.49,0-.463.046-.663.6-.648,1.716.046,3.434.03,5.15.008.441-.006.69.038.53.566a2.182,2.182,0,0,0-.031.607,1.384,1.384,0,0,0,1.34,1.545,1.369,1.369,0,0,0,1.366-1.454,7.175,7.175,0,0,1,.246-1.67,6.741,6.741,0,0,1,6.475-5c3.072-.018,6.144,0,9.219,0a3.8,3.8,0,0,1-3.62,2.7c-1.739.025-3.479.005-5.218.008-1.219,0-1.722.534-1.665,1.755a6.7,6.7,0,0,0,6.333,6.341c4.448.1,8.9.032,13.35.039A1.7,1.7,0,0,0,38,277.135c2.073-2.081,4.142-4.165,6.232-6.229a4,4,0,0,1,4.3-1c.374.119.526.225.2.617q-5.067,6.183-10.1,12.4a.83.83,0,0,1-.771.273q-5.9,0-11.792,0a1.386,1.386,0,0,0-1.515,1.621,1.82,1.82,0,0,0,.927,1.089H39.449c.047-.438.472-.57.706-.856m-3.664-10.234a.748.748,0,0,1-.589.247c-1.1-.01-2.209,0-3.306,0-.1-.2.076-.254.156-.334,1.289-1.3,2.574-2.6,3.882-3.883a3.88,3.88,0,0,1,4.586-.771c-1.606,1.608-3.172,3.172-4.729,4.745" transform="translate(0 -216.462)" fill="#fff"/>
        <path id="Trazado_607635" data-name="Trazado 607635" d="M40.343,284.339q5.744-7.071,11.5-14.129a1.436,1.436,0,0,0-.219-2.333,6.771,6.771,0,0,0-7.817-.808c-.253.14-.442.271-.783.082a6.719,6.719,0,0,0-8.527,1.2q-2.785,2.774-5.561,5.556c-.187.187-.339.387-.668.383-1.558-.022-3.118.021-4.675-.024-1.784-.052-3.37-1.572-3.466-2.707,1.357,0,2.713.04,4.066-.008a6.781,6.781,0,0,0,6.431-6.467,1.394,1.394,0,0,0-1.571-1.648c-3.546,0-7.093-.049-10.639.012a9.238,9.238,0,0,0-8.3,4.945.811.811,0,0,1-.836.475c-2.485-.019-4.97.016-7.454-.024A1.8,1.8,0,0,0,0,269.807c.068.013.15.023.189-.033a2.1,2.1,0,0,1,1.99-.741c2.259.02,4.519-.014,6.778.019a1.548,1.548,0,0,0,1.514-.866,8.948,8.948,0,0,1,7.707-4.547c3.544-.1,7.094-.027,10.641-.02,1.277,0,1.757.561,1.609,1.828a6.624,6.624,0,0,1-6.632,5.94c-1.017,0-2.034-.014-3.05.007-.8.016-.942.265-.544.953a4.118,4.118,0,0,0,3.64,2.107c1.264.047,2.531-.017,3.8.021a2.1,2.1,0,0,0,1.677-.7q2.633-2.687,5.315-5.326a6.6,6.6,0,0,1,8.081-1.267,1.453,1.453,0,0,0,1.46-.073,6.4,6.4,0,0,1,7.123.73c1.012.755,1.085,1.411.287,2.4q-2.921,3.608-5.862,7.2c-1.858,2.274-3.7,4.558-5.562,6.832-.234.286-.659.419-.706.857a4.731,4.731,0,0,0,.894-.79" transform="translate(0 -215.69)" fill="#fff"/>
        <path id="Trazado_607636" data-name="Trazado 607636" d="M104.759,371.391a1.169,1.169,0,1,0-1.58,0c.142.15.429.2.383.493h.813c-.045-.3.241-.343.383-.493" transform="translate(-84.177 -302.446)" fill="#fff"/>
        <path id="Trazado_607637" data-name="Trazado 607637" d="M104.376,369.289a1.349,1.349,0,0,0-2.579,0,1.332,1.332,0,0,0,.62,1.566c.089.06.176.123.264.184.045-.3-.241-.343-.383-.493a1.169,1.169,0,1,1,1.58,0c-.142.15-.429.2-.383.493.088-.061.174-.125.263-.184a1.333,1.333,0,0,0,.619-1.566" transform="translate(-83.296 -301.601)" fill="#fff"/>
        <path id="Trazado_607638" data-name="Trazado 607638" d="M100.745,27.27Q91.51,18.056,82.3,8.819a2.118,2.118,0,0,0-1.618-.678c-4.246.02-8.492,0-12.738.025a1.073,1.073,0,0,1-1.088-.648A14.9,14.9,0,1,0,53.4,29.837a14.648,14.648,0,0,0,10.921-4.218c.3-.287.422-.26.646.065a20.221,20.221,0,0,0,1.84,2.254,13.513,13.513,0,0,0,8.823,4.507c2.3.223,4.6.071,6.905.1A1.453,1.453,0,0,1,83.662,33Q91.24,40.614,98.84,48.2a1.446,1.446,0,0,0,1.682.519,1.479,1.479,0,0,0,.873-1.594c-.014-3.027-.006-6.054-.006-9.082,0-3.05-.012-6.1.01-9.149a2.113,2.113,0,0,0-.654-1.627M64.2,21.549a12.214,12.214,0,1,1,1.782-8.614c.067.435.084.73-.523.654a12.532,12.532,0,0,0-1.557-.013c-.587,0-1.175-.012-1.762,0a1.336,1.336,0,0,0-1.416,1.463,6.606,6.606,0,0,0,3.266,5.666c.435.271.482.418.211.841M98.678,43.788v.189L87.117,32.415a1.405,1.405,0,0,0,.707-1.352,1.386,1.386,0,0,0-1.53-1.214c-2.733-.005-5.468-.072-8.2.014a11.834,11.834,0,0,1-10.424-5.083c-.189-.253-.383-.5-.57-.757-.749-1.021-.749-1.022,0-2.076.306-.434,2.608-.32,2.863.147a9.543,9.543,0,0,0,8.192,5.032,1.361,1.361,0,1,0,.091-2.706,6.69,6.69,0,0,1-6.217-4.341,1.541,1.541,0,0,0-1.6-1.086c-1.016.022-2.033.02-3.049,0a3.965,3.965,0,0,1-3.673-2.706H77.72c.2,0,.407.009.61,0A1.369,1.369,0,0,0,79.7,14.9a1.344,1.344,0,0,0-1.36-1.318c-1.174-.022-2.349-.006-3.524-.006-1.829,0-3.659-.016-5.488.011-.443.007-.567-.131-.613-.556-.077-.713-.239-1.417-.372-2.168H73.28c2.213,0,4.427.009,6.64-.008a1.2,1.2,0,0,1,.948.376q8.707,8.735,17.437,17.448a1.051,1.051,0,0,1,.382.809c-.015,4.767-.01,9.534-.01,14.3" transform="translate(-31.981 0)" fill="#fff"/>
        <path id="Trazado_607639" data-name="Trazado 607639" d="M99.694,191.119c0-1.88-.005-3.66,0-5.439a1.416,1.416,0,0,0-.612-1.28,1.241,1.241,0,0,0-1.344-.089,1.372,1.372,0,0,0-.76,1.328c.006,1.8,0,3.594,0,5.368-.171.083-.206-.038-.264-.087-.775-.661-1.525-.69-2.087-.075a1.377,1.377,0,0,0,.206,2.035q1.163,1.183,2.346,2.347a1.414,1.414,0,0,0,2.332-.016c.708-.7,1.406-1.4,2.107-2.106.873-.875,1.013-1.574.448-2.229-.584-.678-1.318-.623-2.377.244" transform="translate(-77.191 -150.789)" fill="#fff"/>
        <path id="Trazado_607640" data-name="Trazado 607640" d="M103.683,38.275c-.453-.123-.938-.124-1.4-.227a1.33,1.33,0,0,1-1.025-1.463,1.386,1.386,0,0,1,1.467-1.169,2.5,2.5,0,0,1,1.437.755,1.343,1.343,0,0,0,1.79-2,2.354,2.354,0,0,0-.731-.593,1.859,1.859,0,0,1-1.316-2.244,1.258,1.258,0,0,0-1.35-1.3,1.357,1.357,0,0,0-1.321,1.289,5.959,5.959,0,0,0,0,1.016.718.718,0,0,1-.48.82,3.98,3.98,0,0,0-2.12,4.415c.37,1.858,1.751,3,3.965,3.25a1.36,1.36,0,0,1,1.3.993,1.256,1.256,0,0,1-.444,1.4,1.428,1.428,0,0,1-1.649.1,3.939,3.939,0,0,1-.982-.819,1.35,1.35,0,1,0-1.975,1.837,3.092,3.092,0,0,0,.937.866,2.18,2.18,0,0,1,1.474,2.585c-.1.664.609,1.207,1.282,1.226a1.352,1.352,0,0,0,1.379-1.226,5.474,5.474,0,0,0,0-1.15c-.053-.455.131-.661.531-.861a4.036,4.036,0,0,0-.779-7.5" transform="translate(-80.624 -24.592)" fill="#fff"/>
      </g>
    </g>
  </g>
</svg>
