<svg id="Grupo_236121" data-name="Grupo 236121" xmlns="http://www.w3.org/2000/svg" xmlns:xlink="http://www.w3.org/1999/xlink" width="140.344" height="174.439" viewBox="0 0 140.344 174.439">
  <defs>
    <clipPath id="clip-path">
      <rect id="Rect치ngulo_294533" data-name="Rect치ngulo 294533" width="140.344" height="174.439" fill="none"/>
    </clipPath>
  </defs>
  <g id="Grupo_235843" data-name="Grupo 235843" clip-path="url(#clip-path)">
    <path id="Trazado_275099" data-name="Trazado 275099" d="M88.721,1.554H7.482A5.927,5.927,0,0,0,1.554,7.482V159.4a5.927,5.927,0,0,0,5.928,5.927H117.344a5.928,5.928,0,0,0,5.928-5.927V36.1Z" transform="translate(0.284 0.284)" fill="#fff"/>
    <path id="Trazado_275100" data-name="Trazado 275100" d="M117.628,167.454H7.766A7.774,7.774,0,0,1,0,159.688V7.767A7.774,7.774,0,0,1,7.766,0h81.24a1.838,1.838,0,1,1,0,3.675H7.766a4.094,4.094,0,0,0-4.09,4.09V159.688a4.094,4.094,0,0,0,4.09,4.09H117.628a4.094,4.094,0,0,0,4.09-4.09V36.389a1.838,1.838,0,1,1,3.675,0v123.3a7.774,7.774,0,0,1-7.766,7.766" transform="translate(0 0)" fill="#390a93"/>
    <path id="Trazado_275101" data-name="Trazado 275101" d="M81.2,36.1h28.623L75.268,1.554V30.177A5.927,5.927,0,0,0,81.2,36.1" transform="translate(13.737 0.284)" fill="#ced371"/>
    <path id="Trazado_275102" data-name="Trazado 275102" d="M110.1,38.226H81.48a7.774,7.774,0,0,1-7.766-7.766V1.838a1.839,1.839,0,0,1,3.137-1.3L111.4,35.089a1.838,1.838,0,0,1-1.3,3.137M77.389,6.273V30.46a4.094,4.094,0,0,0,4.09,4.09h24.187Z" transform="translate(13.453 0)" fill="#390a93"/>
    <path id="Trazado_275103" data-name="Trazado 275103" d="M61.014,36.612c-.542,31.661-47.608,31.655-48.146,0,.542-31.658,47.609-31.653,48.146,0" transform="translate(2.349 2.349)" fill="#fff5ab"/>
    <path id="Trazado_275104" data-name="Trazado 275104" d="M37.225,62.476h0c-12.269,0-25.61-8-25.906-25.55a.533.533,0,0,1,0-.061c.3-17.554,13.64-25.549,25.909-25.549h0c12.269,0,25.608,8,25.906,25.55v.061c-.3,17.554-13.64,25.549-25.909,25.549M14.99,36.9C15.26,51.946,26.7,58.8,37.223,58.8S59.186,51.948,59.458,36.9c-.27-15.05-11.71-21.9-22.232-21.906S15.262,21.843,14.99,36.9" transform="translate(2.065 2.065)" fill="#390a93"/>
    <path id="Trazado_275105" data-name="Trazado 275105" d="M34,46.906H29.01a1.838,1.838,0,0,1,0-3.675H34a3.148,3.148,0,1,0,0-6.3,6.824,6.824,0,0,1,0-13.649h4.987a1.838,1.838,0,1,1,0,3.675H34a3.149,3.149,0,0,0,0,6.3,6.824,6.824,0,1,1,0,13.647" transform="translate(4.96 4.25)" fill="#390a93"/>
    <path id="Trazado_275106" data-name="Trazado 275106" d="M33.225,48.384a1.838,1.838,0,0,1-1.838-1.838V41.992a1.838,1.838,0,1,1,3.675,0v4.555a1.838,1.838,0,0,1-1.838,1.838" transform="translate(5.728 7.328)" fill="#390a93"/>
    <path id="Trazado_275107" data-name="Trazado 275107" d="M33.225,27.785a1.838,1.838,0,0,1-1.838-1.838V20.619a1.838,1.838,0,0,1,3.675,0v5.328a1.838,1.838,0,0,1-1.838,1.838" transform="translate(5.728 3.428)" fill="#390a93"/>
    <path id="Trazado_275108" data-name="Trazado 275108" d="M12.869,66.837h0Z" transform="translate(2.349 12.198)" fill="#fff"/>
    <path id="Trazado_275109" data-name="Trazado 275109" d="M60.632,68.958H13.153a1.838,1.838,0,1,1,0-3.675H60.632a1.838,1.838,0,1,1,0,3.675" transform="translate(2.065 11.915)" fill="#390a93"/>
    <path id="Trazado_275110" data-name="Trazado 275110" d="M12.869,84.171h0Z" transform="translate(2.349 15.362)" fill="#fff"/>
    <path id="Trazado_275111" data-name="Trazado 275111" d="M60.632,86.292H13.153a1.838,1.838,0,1,1,0-3.675H60.632a1.838,1.838,0,1,1,0,3.675" transform="translate(2.065 15.078)" fill="#390a93"/>
    <path id="Trazado_275112" data-name="Trazado 275112" d="M12.869,101.5h0Z" transform="translate(2.349 18.526)" fill="#fff"/>
    <path id="Trazado_275113" data-name="Trazado 275113" d="M60.632,103.626H13.153a1.838,1.838,0,1,1,0-3.675H60.632a1.838,1.838,0,1,1,0,3.675" transform="translate(2.065 18.242)" fill="#390a93"/>
    <path id="Trazado_275114" data-name="Trazado 275114" d="M12.869,118.839h0Z" transform="translate(2.349 21.689)" fill="#fff"/>
    <path id="Trazado_275115" data-name="Trazado 275115" d="M60.632,120.96H13.153a1.838,1.838,0,1,1,0-3.675H60.632a1.838,1.838,0,1,1,0,3.675" transform="translate(2.065 21.406)" fill="#390a93"/>
    <path id="Trazado_275116" data-name="Trazado 275116" d="M96.479,153.611h26.11a2.738,2.738,0,0,0,2.74-2.739V106.789a2.738,2.738,0,0,0-2.74-2.739H74.938a2.737,2.737,0,0,0-2.739,2.739v21.5Z" transform="translate(13.177 18.99)" fill="#fff5ab"/>
    <path id="Trazado_275117" data-name="Trazado 275117" d="M122.873,155.733H96.763a1.838,1.838,0,1,1,0-3.675h26.11a.9.9,0,0,0,.9-.9V107.072a.9.9,0,0,0-.9-.9H75.22a.9.9,0,0,0-.9.9v21.5a1.838,1.838,0,0,1-3.675,0v-21.5A4.581,4.581,0,0,1,75.22,102.5h47.653a4.581,4.581,0,0,1,4.576,4.576v44.084a4.581,4.581,0,0,1-4.576,4.576" transform="translate(12.893 18.706)" fill="#390a93"/>
    <path id="Rect치ngulo_294532" data-name="Rect치ngulo 294532" d="M2.36,0H51.782a2.36,2.36,0,0,1,2.36,2.36v20.6a2.36,2.36,0,0,1-2.36,2.36H2.359A2.359,2.359,0,0,1,0,22.957V2.36A2.36,2.36,0,0,1,2.36,0Z" transform="translate(58.303 147.28)" fill="#fff5ab"/>
    <path id="Trazado_275118" data-name="Trazado 275118" d="M100.942,151.987H52.377a4.634,4.634,0,0,1-4.627-4.63V127.622a4.633,4.633,0,0,1,4.627-4.628h48.564a4.633,4.633,0,0,1,4.627,4.628v19.735a4.634,4.634,0,0,1-4.627,4.63M52.377,126.669a.954.954,0,0,0-.952.953v19.735a.954.954,0,0,0,.952.954h48.564a.954.954,0,0,0,.952-.954V127.622a.954.954,0,0,0-.952-.953Z" transform="translate(8.715 22.448)" fill="#390a93"/>
    <path id="Trazado_275119" data-name="Trazado 275119" d="M72.2,85.935c.6,34.941,52.541,34.935,53.133,0-.6-34.94-52.541-34.934-53.133,0" transform="translate(13.177 10.902)" fill="#fff5ab"/>
    <path id="Trazado_275120" data-name="Trazado 275120" d="M99.049,114.258c-13.45,0-28.076-8.762-28.405-28.009a.533.533,0,0,1,0-.061c.325-19.243,14.95-28.009,28.4-28.01s28.077,8.764,28.406,28.009v.061c-.326,19.244-14.952,28.01-28.4,28.01M74.318,86.219c.3,16.742,13.027,24.366,24.729,24.366h0c11.7,0,24.428-7.626,24.726-24.367-.3-16.741-13.025-24.366-24.729-24.366h0c-11.7,0-24.427,7.627-24.726,24.367" transform="translate(12.893 10.618)" fill="#390a93"/>
    <path id="Trazado_275121" data-name="Trazado 275121" d="M96.18,98.475H90.087a1.838,1.838,0,1,1,0-3.675H96.18a4.256,4.256,0,1,0,0-8.512,7.93,7.93,0,1,1,0-15.861h6.093a1.838,1.838,0,1,1,0,3.675H96.18a4.256,4.256,0,0,0,0,8.512,7.93,7.93,0,1,1,0,15.861" transform="translate(16.106 12.854)" fill="#390a93"/>
    <path id="Trazado_275122" data-name="Trazado 275122" d="M95.236,100.282A1.838,1.838,0,0,1,93.4,98.445V92.879a1.838,1.838,0,1,1,3.675,0v5.566a1.838,1.838,0,0,1-1.838,1.838" transform="translate(17.046 16.616)" fill="#390a93"/>
    <path id="Trazado_275123" data-name="Trazado 275123" d="M95.236,75.111A1.838,1.838,0,0,1,93.4,73.274V66.763a1.838,1.838,0,0,1,3.675,0v6.511a1.838,1.838,0,0,1-1.838,1.838" transform="translate(17.046 11.849)" fill="#390a93"/>
  </g>
</svg>
