<svg id="Grupo_235967" data-name="Grupo 235967" xmlns="http://www.w3.org/2000/svg" xmlns:xlink="http://www.w3.org/1999/xlink" width="86.03" height="86.021" viewBox="0 0 86.03 86.021">
  <defs>
    <clipPath id="clip-path">
      <rect id="Rectángulo_52409" data-name="Rectángulo 52409" width="86.03" height="86.022" fill="none"/>
    </clipPath>
  </defs>
  <g id="Grupo_166658" data-name="Grupo 166658" clip-path="url(#clip-path)">
    <path id="Trazado_255638" data-name="Trazado 255638" d="M84.138,32.98a6.229,6.229,0,0,0-.31-9.228,6.128,6.128,0,0,0-6.131-1.2V21.56q0-8.5,0-16.99c0-2.869-1.7-4.554-4.592-4.554Q51.949.013,30.8,0a5.1,5.1,0,0,0-3.852,1.615q-5.667,5.735-11.406,11.4A4.978,4.978,0,0,0,13.87,17.1c.042.6-.027,1.216.017,1.819.037.5-.182.617-.633.677A15.2,15.2,0,0,0,.007,34.726Q-.011,56.7,0,78.676A6.952,6.952,0,0,0,7.329,86.02q7.89.005,15.779,0c4.5,0,7.435-2.919,7.4-7.425-.007-.793.223-.915.948-.914q26.269.032,52.538.015c.458,0,.968.178.81-.7-.648-3.576-1.235-7.163-1.826-10.75A58.13,58.13,0,0,1,81.9,59.154,41.045,41.045,0,0,0,77.145,41a.844.844,0,0,1,.183-1.222q3.438-3.366,6.81-6.8M27.751,4.914V8.436c0,1.3.012,2.6,0,3.895a1.38,1.38,0,0,1-1.47,1.548c-2.478.02-4.956.007-7.492.007l8.966-8.972M15.293,22.21A12.484,12.484,0,1,1,2.779,34.621,12.506,12.506,0,0,1,15.293,22.21M8.328,48.3A15.373,15.373,0,0,0,22.2,48.286v2.723c0,1.269-.018,2.539.009,3.807.011.482-.05.7-.635.7-4.211-.028-8.423-.015-12.635-.016-.306,0-.628.089-.622-.437.022-2.214.009-4.429.009-6.769m19.423-3.738q0,17.027,0,34.054c0,2.945-1.678,4.634-4.6,4.635q-7.886,0-15.772,0c-2.89,0-4.6-1.689-4.6-4.553q0-17.113,0-34.227v-.942a22.162,22.162,0,0,0,2.606,2.789c.268.223.164.537.165.813.007,2.686,0,5.372.005,8.059a2.807,2.807,0,0,0,3.127,3.091q6.586,0,13.172,0a2.808,2.808,0,0,0,3.122-3.1c0-2.686.011-5.372-.008-8.058a1.273,1.273,0,0,1,.5-1.107,15.7,15.7,0,0,0,2.286-2.541ZM63.842,73.014c-.056,1.908-.017,1.909-1.93,1.909q-15.258,0-30.516.018c-.718,0-.89-.164-.889-.886q.037-19.547.017-39.094A15.248,15.248,0,0,0,18.017,19.691c-1.365-.273-1.365-.273-1.365-1.669,0-1.362,0-1.362,1.331-1.362,2.716,0,5.433.006,8.149,0a4.167,4.167,0,0,0,4.392-4.409c.007-2.861.027-5.722-.016-8.582-.011-.7.138-.9.878-.9,6.964.033,13.929.019,20.893.019H73c1.486,0,1.922.428,1.923,1.887,0,6.328-.006,12.656.012,18.984a1.619,1.619,0,0,1-.527,1.279q-3.979,3.927-7.91,7.9a1.418,1.418,0,0,1-1.126.474c-1.791-.027-3.583,0-5.375-.014a8.229,8.229,0,0,0-6.173,2.449,1.325,1.325,0,0,1-1.1.33c-6.184,0-12.369.013-18.553-.018-.714,0-.894.157-.892.884q.04,17.163,0,34.327c0,.712.153.9.882.893,9.594-.028,19.188-.01,28.782-.036.711,0,.916.15.895.883m-5.57-8.7c0,1.5-.018,3,.011,4.5.009.462-.137.579-.581.571q-2.2-.039-4.409,0c-.447.008-.589-.113-.58-.572.029-1.469.008-2.939.014-4.409,0-.189-.067-.408.164-.538,1.865-1.056,3.032-2.873,4.617-4.234.2-.172.325-.583.649-.436.249.113.109.469.111.713.011,1.47.005,2.939.005,4.409m-22.21-24.86c-.012-.506.157-.613.632-.612,4.826.017,9.652.011,14.479.009.356,0,.682-.073.5.519a11.147,11.147,0,0,0-.17,4.993c-.18.013-.35.037-.521.037-4.74,0-9.479-.009-14.219.015-.571,0-.724-.152-.708-.714.041-1.415.036-2.832,0-4.247m.008,16.567c0-.322.009-.534.442-.531,2.557.018,5.114.009,7.779.009-.723,1.8-1.417,3.5-2.079,5.21-.124.321-.321.342-.594.341-1.674-.005-3.348-.015-5.022.007-.418.006-.537-.121-.531-.534.023-1.5.014-3,0-4.5m.693-3.282c-.581.006-.716-.168-.7-.72.038-1.414.024-2.829.006-4.243-.005-.4.035-.614.541-.612,5.107.019,10.215.012,15.584.012-1.9,1.885-3.639,3.6-5.365,5.334a.969.969,0,0,1-.8.214c-3.089,0-6.179-.016-9.268.015m-.687,13.945c-.007-.779.02-1.56-.01-2.338-.016-.417.116-.539.532-.533,1.559.023,3.119.028,4.677,0,.4-.008.525.175.673.489a3.617,3.617,0,0,0,4.878,1.98c1.018-.384,2.027-.791,3.122-1.22,0,1.354-.019,2.617.008,3.88.013.621-.417.425-.71.426-3.494.01-6.987.018-10.481,0-.882,0-2.064.387-2.561-.171-.434-.487-.121-1.646-.128-2.508m13.676-4.552c-1.343.514-2.676,1.055-4.008,1.6a.908.908,0,0,1-1.036-.194.864.864,0,0,1-.23-1.024c.587-1.463,1.171-2.928,1.83-4.577,1.268,1.285,2.417,2.458,3.579,3.617.3.3.261.428-.135.58m-1.567-6.184c-.344-.336-.37-.533-.012-.887q3.845-3.8,7.652-7.642c.257-.257.567-.518.9-.382.351.143.141.559.148.845.026,1.1.011,2.191.011,3.546a29.006,29.006,0,0,0,.149,4.313.766.766,0,0,1-.322.742c-1.186,1.179-2.379,2.352-3.541,3.555-.338.35-.538.369-.888.008q-2.018-2.08-4.1-4.1m8.7-14.146a9.726,9.726,0,0,1-.024,1.383,1.306,1.306,0,0,1-1.357,1.2,1.247,1.247,0,0,1-1.352-1.1c-.473-3.737,1.248-6.607,4.823-7.141a31.457,31.457,0,0,1,4.347-.032c-1,.956-1.831,1.741-2.643,2.551a.935.935,0,0,1-.793.2,2.779,2.779,0,0,0-3,2.938m6.945,27.037c.007.4-.1.527-.523.545-2.261.1-2.261.111-2.26-2.092q0-2.339,0-4.678a2.148,2.148,0,0,1,.06-.29c.844.673,1.6,1.291,2.374,1.884a.815.815,0,0,1,.344.733c-.015,1.3-.021,2.6,0,3.9m15.662-6.648c.63,3.984,1.311,7.96,2,11.934.113.649-.031.826-.71.813-2.25-.046-4.5-.017-6.753-.017-2.223,0-4.445-.019-6.667.013-.569.008-.795-.087-.787-.732q.057-4.328,0-8.657c-.007-.56.212-.724.689-.852,3.781-1.017,7.561-2.04,11.329-3.1.648-.183.789-.059.894.6m-.444-4.213c.031.526-.161.693-.619.816q-6.176,1.66-12.34,3.364a.982.982,0,0,1-1.015-.214c-.909-.758-1.853-1.474-2.768-2.225a6.913,6.913,0,0,1-2.646-5.585q0-2.86,0-5.72c0-2.051.028-4.1-.015-6.153-.015-.683.231-.692.756-.53a2.8,2.8,0,0,1,2.031,2.792c.01,2.946.021,5.893-.012,8.84-.006.6.13.866.749.75a1.6,1.6,0,0,1,.173,0c.6-.045,1.353.254,1.752-.12.366-.342.111-1.093.1-1.662a1.052,1.052,0,0,1,.4-.81c2.883-2.878,5.773-5.748,8.634-8.648.467-.473.608-.352.867.163a37.81,37.81,0,0,1,3.951,14.943M65.455,47.732a1.341,1.341,0,0,1-.246.123c0-1.188,0-2.283,0-3.377a5.286,5.286,0,0,0-1.6-3.894c-.366-.36-.426-.539-.03-.933,4.568-4.537,9.106-9.1,13.676-13.64a3.5,3.5,0,0,1,4.975,4.937Q73.87,39.366,65.455,47.732" transform="translate(0 0)"/>
    <path id="Trazado_255639" data-name="Trazado 255639" d="M118.288,81.334c-9.594.026-19.188.008-28.782.036-.73,0-.884-.181-.883-.893q.037-17.163,0-34.327c0-.727.177-.888.892-.884,6.184.032,12.368.018,18.553.018a1.325,1.325,0,0,0,1.1-.329,8.228,8.228,0,0,1,6.173-2.449c1.791.019,3.583-.012,5.375.014a1.418,1.418,0,0,0,1.126-.475q3.934-3.972,7.909-7.9a1.619,1.619,0,0,0,.527-1.279c-.018-6.328-.011-12.656-.012-18.984,0-1.459-.437-1.887-1.923-1.887h-20.72c-6.965,0-13.929.013-20.893-.019-.739,0-.888.2-.878.9.043,2.86.023,5.721.016,8.582a4.168,4.168,0,0,1-4.392,4.409c-2.716.007-5.433,0-8.149,0-1.331,0-1.331,0-1.331,1.362,0,1.4,0,1.4,1.365,1.669A15.249,15.249,0,0,1,85.865,44.163q.006,19.547-.017,39.094c0,.723.171.888.889.886q15.258-.04,30.516-.018c1.913,0,1.874,0,1.93-1.909.022-.733-.183-.884-.895-.883m-9.455-41.6h-9.1c-3.467,0-6.934-.015-10.4.014-.576,0-.708-.161-.7-.716.011-2.073-.01-2.073,2.02-2.073,6.471,0,12.943.011,19.414-.017.659,0,.806.167.794.806-.037,1.985-.008,1.986-2.023,1.986M89.423,14.749c6.213.028,12.426.016,18.638.016s12.426.011,18.638-.016c.64,0,.818.137.8.795-.046,2.282-.037,4.565,0,6.847.008.566-.143.711-.71.71q-18.725-.025-37.45,0c-.558,0-.723-.131-.715-.7.035-2.282.041-4.566,0-6.847-.012-.648.151-.8.8-.8m1.133,11.114h17.6c6.184,0,12.367.011,18.551-.017.65,0,.812.154.8.8-.038,1.99-.008,1.99-2.02,1.99q-17.988,0-35.975.018c-.723,0-.908-.168-.888-.889.054-1.9.016-1.9,1.935-1.9m.079,5.549q17.988,0,35.975-.017c.709,0,.918.146.9.881-.057,1.91-.017,1.911-1.928,1.911H108.067c-6.212,0-12.425-.01-18.638.015-.635,0-.822-.13-.808-.792.041-2,.008-2,2.013-2" transform="translate(-55.34 -9.203)" fill="#e5e8ec"/>
    <path id="Trazado_255640" data-name="Trazado 255640" d="M24.469,120.992a12.484,12.484,0,1,0-12.456-12.558,12.512,12.512,0,0,0,12.456,12.558M20.33,110.184c.05-.215.132-.291.333-.289.26,0,.52,0,.78,0,.517.008,1.165-.164,1.518.082.391.273.107.962.148,1.467a1.187,1.187,0,0,0,1.117,1.214c.721.09,1.364-.078,1.6-.85a1.176,1.176,0,0,0-.76-1.467c-.824-.413-1.653-.818-2.472-1.242a3.825,3.825,0,0,1-2.245-3.615,3.762,3.762,0,0,1,2.275-3.5c.379-.188.539-.375.489-.773a2.744,2.744,0,0,1,0-.346c0-2.331.007-2.33,2.365-2.075.275.03.442.072.412.388-.014.143.008.289,0,.433-.093,1.214-.056,2.2,1.3,2.958,1.551.872,1.568,2.63,1.478,4.263-.012.227-.128.292-.329.289-.26,0-.52,0-.78,0-.517-.009-1.165.164-1.517-.083-.39-.273-.106-.962-.147-1.468a1.186,1.186,0,0,0-1.118-1.213c-.72-.09-1.364.076-1.6.849a1.175,1.175,0,0,0,.759,1.467c.824.413,1.652.819,2.471,1.241a3.821,3.821,0,0,1,2.247,3.614,3.754,3.754,0,0,1-2.273,3.5c-.378.186-.542.374-.49.773a2.7,2.7,0,0,1,0,.346c0,2.105,0,2.088-2.1,2.082-.5,0-.766-.082-.68-.651a8.166,8.166,0,0,0,.007-1.042c.184-.772-.087-1.352-1.033-1.858a4.288,4.288,0,0,1-1.747-4.5" transform="translate(-9.234 -73.814)" fill="#fbd670"/>
    <path id="Trazado_255641" data-name="Trazado 255641" d="M34.7,190.491a1.273,1.273,0,0,0-.5,1.108c.02,2.686.012,5.372.009,8.058a2.808,2.808,0,0,1-3.122,3.1q-6.586,0-13.172,0a2.807,2.807,0,0,1-3.127-3.091c0-2.686,0-5.372-.005-8.058,0-.276.1-.59-.164-.813A22.148,22.148,0,0,1,12.009,188v.942q0,17.114,0,34.227c0,2.863,1.706,4.552,4.6,4.553q7.886,0,15.772,0c2.925,0,4.6-1.69,4.6-4.635q0-17.027,0-34.054V187.95a15.677,15.677,0,0,1-2.286,2.541m-3.412,34.455q-6.806.014-13.613,0a2.755,2.755,0,0,1-2.884-2.9c-.012-2.283,0-4.566,0-6.849,0-2.225,0-4.45,0-6.675a2.784,2.784,0,0,1,2.963-2.993q6.763-.01,13.526,0a2.761,2.761,0,0,1,2.93,2.94q.012,6.762,0,13.524a2.764,2.764,0,0,1-2.92,2.95" transform="translate(-9.231 -144.478)" fill="#959ea9"/>
    <path id="Trazado_255642" data-name="Trazado 255642" d="M272.454,181.289c-2.86,2.9-5.751,5.77-8.634,8.648a1.053,1.053,0,0,0-.4.81c.009.568.263,1.319-.1,1.662-.4.374-1.154.075-1.752.12a1.587,1.587,0,0,0-.173,0c-.62.115-.756-.154-.749-.75.032-2.946.022-5.893.011-8.84a2.8,2.8,0,0,0-2.031-2.792c-.526-.161-.771-.153-.756.53.043,2.05.016,4.1.016,6.153q0,2.86,0,5.72a6.913,6.913,0,0,0,2.646,5.585c.915.751,1.859,1.467,2.768,2.225a.982.982,0,0,0,1.015.214q6.162-1.71,12.34-3.364c.457-.123.65-.29.619-.816a37.81,37.81,0,0,0-3.951-14.943c-.259-.516-.4-.637-.867-.163" transform="translate(-198.223 -138.414)" fill="#efcfb3"/>
    <path id="Trazado_255643" data-name="Trazado 255643" d="M292.64,109.027a3.455,3.455,0,0,0-4.971-.028c-4.57,4.535-9.107,9.1-13.676,13.64-.4.394-.337.573.03.933a5.285,5.285,0,0,1,1.6,3.894c0,1.094,0,2.189,0,3.377a1.348,1.348,0,0,0,.246-.123q8.4-8.386,16.779-16.783a3.442,3.442,0,0,0,0-4.91" transform="translate(-210.409 -82.987)" fill="#fe816e"/>
    <path id="Trazado_255644" data-name="Trazado 255644" d="M299.874,266.039c-3.769,1.062-7.548,2.085-11.329,3.1-.477.128-.7.293-.689.852q.053,4.328,0,8.657c-.008.646.218.74.787.732,2.222-.031,4.445-.013,6.667-.013,2.251,0,4.5-.028,6.753.017.678.014.823-.163.71-.813-.693-3.974-1.373-7.95-2-11.934-.1-.66-.245-.784-.894-.6" transform="translate(-221.275 -204.446)" fill="#b3dc7e"/>
    <path id="Trazado_255645" data-name="Trazado 255645" d="M156.613,173.52c4.74-.024,9.479-.013,14.219-.015.17,0,.34-.023.52-.037a11.147,11.147,0,0,1,.17-4.993c.177-.591-.148-.519-.5-.519-4.826,0-9.652.008-14.479-.008-.476,0-.644.106-.632.611.034,1.415.039,2.832,0,4.247-.016.563.137.717.708.714" transform="translate(-119.844 -129.102)" fill="#fee9a6"/>
    <path id="Trazado_255646" data-name="Trazado 255646" d="M36.587,215.979c4.212,0,8.423-.013,12.635.016.585,0,.646-.219.635-.7-.028-1.268-.009-2.538-.009-3.807v-2.723a15.373,15.373,0,0,1-13.873.009c0,2.34.012,4.555-.009,6.769-.005.526.316.437.622.437" transform="translate(-27.646 -160.477)" fill="#69d5f3"/>
    <path id="Trazado_255647" data-name="Trazado 255647" d="M166.673,209.27c1.726-1.731,3.466-3.449,5.365-5.334-5.37,0-10.477.008-15.584-.012-.5,0-.546.207-.54.612.018,1.414.033,2.83-.006,4.243-.015.551.12.726.7.72,3.089-.031,6.178-.014,9.268-.015a.969.969,0,0,0,.8-.214" transform="translate(-119.846 -156.758)" fill="#fee9a6"/>
    <path id="Trazado_255648" data-name="Trazado 255648" d="M211.531,216.261c.351.361.55.342.888-.008,1.162-1.2,2.355-2.376,3.54-3.555a.765.765,0,0,0,.322-.742,29.037,29.037,0,0,1-.149-4.313c0-1.355.015-2.451-.011-3.546-.007-.286.2-.7-.148-.845-.334-.135-.644.125-.9.382q-3.818,3.829-7.652,7.642c-.358.354-.332.551.012.887q2.076,2.022,4.1,4.1" transform="translate(-159.247 -156.211)" fill="#fe816e"/>
    <path id="Trazado_255649" data-name="Trazado 255649" d="M155.761,281.272c.5.558,1.679.167,2.561.171,3.494.019,6.987.011,10.481,0,.292,0,.723.2.71-.426-.027-1.263-.008-2.526-.008-3.88-1.095.429-2.1.835-3.122,1.22a3.616,3.616,0,0,1-4.877-1.981c-.148-.314-.268-.5-.673-.489-1.558.031-3.118.026-4.677,0-.416-.006-.549.115-.532.533.031.778,0,1.558.01,2.338.008.862-.306,2.021.128,2.508" transform="translate(-119.557 -212.077)" fill="#fee9a6"/>
    <path id="Trazado_255650" data-name="Trazado 255650" d="M233.342,255.822c-.325-.147-.449.264-.649.436-1.585,1.361-2.752,3.178-4.617,4.234-.23.13-.163.349-.164.538-.006,1.47.015,2.94-.014,4.409-.009.459.133.581.58.572q2.2-.039,4.409,0c.445.008.59-.109.581-.571-.029-1.5-.011-3-.011-4.5,0-1.47.005-2.94-.006-4.409,0-.244.138-.6-.111-.713" transform="translate(-175.185 -196.627)" fill="#fee9a6"/>
    <path id="Trazado_255651" data-name="Trazado 255651" d="M88.707,30.211a1.38,1.38,0,0,0,1.47-1.548c.016-1.3,0-2.6,0-3.895V21.246l-8.965,8.972c2.535,0,5.013.013,7.491-.007" transform="translate(-62.431 -16.332)" fill="#b3dc7e"/>
    <path id="Trazado_255652" data-name="Trazado 255652" d="M156.458,245.49c1.674-.022,3.348-.012,5.022-.007.272,0,.469-.02.594-.341.663-1.71,1.356-3.407,2.079-5.21-2.664,0-5.221.009-7.779-.009-.433,0-.444.21-.442.531.009,1.5.018,3-.005,4.5-.006.414.113.54.531.534" transform="translate(-119.862 -184.429)" fill="#fee9a6"/>
    <path id="Trazado_255653" data-name="Trazado 255653" d="M240.4,158.472c.812-.809,1.648-1.594,2.643-2.551a31.419,31.419,0,0,0-4.347.032c-3.575.534-5.3,3.4-4.823,7.141a1.247,1.247,0,0,0,1.352,1.1,1.306,1.306,0,0,0,1.357-1.2,9.726,9.726,0,0,0,.024-1.383,2.779,2.779,0,0,1,3-2.938.935.935,0,0,0,.793-.2" transform="translate(-179.717 -119.807)" fill="#efcfb3"/>
    <path id="Trazado_255654" data-name="Trazado 255654" d="M197.451,254.108c-1.163-1.159-2.31-2.333-3.579-3.617-.659,1.65-1.243,3.114-1.83,4.577a.864.864,0,0,0,.23,1.023.907.907,0,0,0,1.036.194c1.332-.542,2.665-1.083,4.008-1.6.4-.151.437-.278.135-.58" transform="translate(-147.564 -192.553)" fill="#a9b1bc"/>
    <path id="Trazado_255655" data-name="Trazado 255655" d="M266.372,271.351c-.774-.593-1.53-1.211-2.374-1.884a2.21,2.21,0,0,0-.061.29q0,2.339,0,4.678c0,2.2,0,2.188,2.26,2.092.424-.018.53-.141.523-.545-.023-1.3-.017-2.6,0-3.9a.815.815,0,0,0-.344-.733" transform="translate(-202.888 -207.14)" fill="#fee9a6"/>
    <path id="Trazado_255656" data-name="Trazado 255656" d="M143.9,31.628c-.009.574.157.705.715.7q18.725-.024,37.45,0c.566,0,.718-.144.71-.71-.033-2.282-.042-4.566,0-6.847.013-.658-.165-.8-.8-.8-6.212.027-12.426.016-18.638.016s-12.426.011-18.638-.016c-.649,0-.813.152-.8.8.044,2.282.038,4.565,0,6.847m4.757-4.856q15.2,0,30.4-.018c.748,0,.972.155.946.932-.064,1.859-.019,1.861-1.9,1.861H163.289c-5.255,0-10.51-.012-15.765.015-.667,0-.872-.15-.856-.842.044-1.947.011-1.948,1.986-1.948" transform="translate(-110.611 -18.434)"/>
    <path id="Trazado_255657" data-name="Trazado 255657" d="M144.77,74.769q17.988-.038,35.975-.018c2.012,0,1.982,0,2.02-1.99.012-.647-.149-.8-.8-.8-6.183.028-12.367.017-18.551.017h-17.6c-1.919,0-1.881,0-1.935,1.9-.021.721.165.891.888.89" transform="translate(-110.601 -55.316)"/>
    <path id="Trazado_255658" data-name="Trazado 255658" d="M144.7,98.754c6.212-.026,12.425-.015,18.638-.015h17.511c1.911,0,1.872,0,1.928-1.911.022-.735-.187-.882-.9-.881q-17.987.036-35.975.017c-2.006,0-1.973,0-2.013,2-.014.663.173.795.808.792" transform="translate(-110.606 -73.755)"/>
    <path id="Trazado_255659" data-name="Trazado 255659" d="M165.344,119.937c-6.471.028-12.943.017-19.415.017-2.03,0-2.009,0-2.02,2.073,0,.555.129.72.7.716,3.467-.029,6.934-.014,10.4-.014h9.1c2.015,0,1.986,0,2.023-1.986.012-.638-.136-.809-.794-.806" transform="translate(-110.624 -92.196)"/>
    <path id="Trazado_255660" data-name="Trazado 255660" d="M49.391,123.5c.946.506,1.218,1.086,1.033,1.858a8.114,8.114,0,0,1-.007,1.042c-.086.57.178.65.681.652,2.1.006,2.1.023,2.1-2.082a2.659,2.659,0,0,0,0-.346c-.052-.4.111-.587.49-.773a3.754,3.754,0,0,0,2.272-3.5,3.82,3.82,0,0,0-2.247-3.614c-.819-.422-1.647-.828-2.471-1.241a1.176,1.176,0,0,1-.759-1.467c.236-.773.88-.938,1.6-.849a1.185,1.185,0,0,1,1.118,1.213c.041.506-.243,1.195.147,1.468.352.247,1,.074,1.517.083.26,0,.52,0,.78,0,.2,0,.317-.062.329-.289.09-1.633.073-3.39-1.478-4.263-1.355-.762-1.391-1.744-1.3-2.958.011-.144-.011-.29,0-.433.031-.316-.137-.359-.411-.388-2.358-.255-2.363-.256-2.365,2.075a2.747,2.747,0,0,0,0,.346c.05.4-.11.585-.489.773a3.761,3.761,0,0,0-2.275,3.5,3.824,3.824,0,0,0,2.245,3.615c.819.424,1.648.829,2.472,1.242a1.176,1.176,0,0,1,.76,1.467c-.236.772-.879.94-1.6.85a1.187,1.187,0,0,1-1.117-1.214c-.041-.506.243-1.194-.148-1.467-.353-.246-1-.074-1.518-.082-.26,0-.52,0-.78,0-.2,0-.283.074-.333.289a4.288,4.288,0,0,0,1.747,4.5" transform="translate(-36.548 -82.638)"/>
    <path id="Trazado_255661" data-name="Trazado 255661" d="M40.487,263.944q-6.763-.012-13.526,0A2.784,2.784,0,0,0,24,266.936c-.007,2.225,0,4.45,0,6.675,0,2.283-.009,4.566,0,6.849a2.755,2.755,0,0,0,2.884,2.9q6.806.017,13.613,0a2.764,2.764,0,0,0,2.92-2.95q.012-6.762,0-13.524a2.761,2.761,0,0,0-2.93-2.94m-1.318,2.771c1.476,0,1.476,0,1.476,1.471,0,1.3,0,1.3-1.3,1.3-1.476,0-1.476,0-1.476-1.471,0-1.3,0-1.3,1.3-1.3M28.156,280.588c-1.385,0-1.385,0-1.385-1.39s0-1.385,1.39-1.385,1.385,0,1.385,1.39,0,1.385-1.39,1.385m0-5.549c-1.385,0-1.385,0-1.385-1.39s0-1.385,1.39-1.385,1.385,0,1.385,1.39,0,1.385-1.39,1.385m.047-5.549c-1.432,0-1.432,0-1.432-1.429,0-1.346,0-1.346,1.343-1.346,1.432,0,1.432,0,1.432,1.428,0,1.346,0,1.346-1.343,1.346m5.463,11.1c-1.346,0-1.346,0-1.346-1.342,0-1.432,0-1.432,1.429-1.432,1.346,0,1.346,0,1.346,1.343,0,1.432,0,1.432-1.429,1.432m.07-5.549c-1.416,0-1.416,0-1.416-1.445,0-1.33,0-1.33,1.359-1.33,1.416,0,1.416,0,1.416,1.445,0,1.33,0,1.33-1.359,1.33m-.064-5.549c-1.352,0-1.352,0-1.352-1.336,0-1.438,0-1.438,1.422-1.438,1.352,0,1.352,0,1.352,1.336,0,1.438,0,1.438-1.423,1.438M40.037,280.6c-2.168.038-2.167.056-2.167-2.1q0-1.037,0-2.074c0-1.21.014-2.42-.008-3.629-.008-.406.111-.526.529-.546,2.255-.108,2.254-.122,2.254,2.1,0,1.872-.015,3.745.01,5.617.006.479-.122.625-.618.634" transform="translate(-18.444 -202.89)"/>
    <path id="Trazado_255662" data-name="Trazado 255662" d="M156.741,38.776c5.255-.028,10.51-.015,15.765-.015h14.813c1.884,0,1.839,0,1.9-1.861.027-.777-.2-.934-.946-.932q-15.2.041-30.4.018c-1.976,0-1.942,0-1.986,1.948-.016.693.189.846.856.842" transform="translate(-119.829 -27.649)" fill="#fe816e"/>
    <path id="Trazado_255663" data-name="Trazado 255663" d="M86.737,301.86c0-2.219,0-2.206-2.254-2.1-.418.02-.536.14-.529.546.022,1.209.008,2.42.008,3.629v2.074c0,2.155,0,2.137,2.167,2.1.5-.009.624-.154.618-.634-.025-1.872-.01-3.744-.01-5.617" transform="translate(-64.535 -230.4)" fill="#fe816e"/>
    <path id="Trazado_255664" data-name="Trazado 255664" d="M37.346,275.946c-1.343,0-1.343,0-1.343,1.346,0,1.429,0,1.429,1.432,1.429,1.343,0,1.343,0,1.343-1.346,0-1.428,0-1.428-1.432-1.428" transform="translate(-27.676 -212.12)" fill="#fe816e"/>
    <path id="Trazado_255665" data-name="Trazado 255665" d="M61.418,275.946c-1.422,0-1.422,0-1.422,1.438,0,1.336,0,1.336,1.352,1.336,1.423,0,1.423,0,1.422-1.438,0-1.336,0-1.336-1.352-1.336" transform="translate(-46.119 -212.12)" fill="#fe816e"/>
    <path id="Trazado_255666" data-name="Trazado 255666" d="M85.464,278.72c1.3,0,1.3,0,1.3-1.3,0-1.471,0-1.471-1.476-1.471-1.3,0-1.3,0-1.3,1.3,0,1.471,0,1.471,1.476,1.471" transform="translate(-64.562 -212.12)" fill="#fe816e"/>
    <path id="Trazado_255667" data-name="Trazado 255667" d="M37.393,299.936c-1.39,0-1.39,0-1.39,1.385s0,1.39,1.385,1.39,1.39,0,1.39-1.385,0-1.39-1.385-1.39" transform="translate(-27.676 -230.562)" fill="#fe816e"/>
    <path id="Trazado_255668" data-name="Trazado 255668" d="M61.354,299.936c-1.359,0-1.359,0-1.359,1.33,0,1.445,0,1.445,1.416,1.445,1.359,0,1.359,0,1.359-1.329,0-1.445,0-1.445-1.416-1.445" transform="translate(-46.118 -230.562)" fill="#fe816e"/>
    <path id="Trazado_255669" data-name="Trazado 255669" d="M37.393,323.926c-1.39,0-1.39,0-1.39,1.385s0,1.39,1.385,1.39,1.39,0,1.39-1.385,0-1.39-1.385-1.39" transform="translate(-27.676 -249.003)" fill="#fe816e"/>
    <path id="Trazado_255670" data-name="Trazado 255670" d="M61.424,323.926c-1.429,0-1.429,0-1.429,1.432,0,1.342,0,1.342,1.346,1.342,1.429,0,1.429,0,1.429-1.432,0-1.343,0-1.343-1.346-1.343" transform="translate(-46.118 -249.003)" fill="#fe816e"/>
  </g>
</svg>
