<svg xmlns="http://www.w3.org/2000/svg" xmlns:xlink="http://www.w3.org/1999/xlink" width="399.899" height="402.123" viewBox="0 0 399.899 402.123">
  <defs>
    <clipPath id="clip-path">
      <rect id="Rectángulo_294606" data-name="Rectángulo 294606" width="399.899" height="402.123" transform="translate(0 11)" fill="none"/>
    </clipPath>
    <clipPath id="clip-path-2">
      <rect id="Rectángulo_294605" data-name="Rectángulo 294605" width="399.899" height="413.123" fill="none"/>
    </clipPath>
    <clipPath id="clip-path-3">
      <rect id="Rectángulo_294561" data-name="Rectángulo 294561" width="106.404" height="148.641" fill="none"/>
    </clipPath>
    <clipPath id="clip-path-4">
      <rect id="Rectángulo_294562" data-name="Rectángulo 294562" width="29.367" height="16.828" fill="none"/>
    </clipPath>
    <clipPath id="clip-path-5">
      <rect id="Rectángulo_294564" data-name="Rectángulo 294564" width="13.604" height="13.604" fill="none"/>
    </clipPath>
    <clipPath id="clip-path-7">
      <rect id="Rectángulo_294566" data-name="Rectángulo 294566" width="13.605" height="13.604" fill="none"/>
    </clipPath>
    <clipPath id="clip-path-9">
      <rect id="Rectángulo_294568" data-name="Rectángulo 294568" width="13.839" height="13.828" fill="none"/>
    </clipPath>
    <clipPath id="clip-path-10">
      <rect id="Rectángulo_294569" data-name="Rectángulo 294569" width="13.605" height="13.605" fill="none"/>
    </clipPath>
    <clipPath id="clip-path-14">
      <rect id="Rectángulo_294575" data-name="Rectángulo 294575" width="13.604" height="13.605" fill="none"/>
    </clipPath>
    <clipPath id="clip-path-19">
      <rect id="Rectángulo_294603" data-name="Rectángulo 294603" width="54.721" height="97.324" fill="none"/>
    </clipPath>
    <clipPath id="clip-path-20">
      <rect id="Rectángulo_294604" data-name="Rectángulo 294604" width="62.111" height="4.858" fill="none"/>
    </clipPath>
  </defs>
  <g id="Grupo_235930" data-name="Grupo 235930" transform="translate(0 -11)">
    <g id="Grupo_235929" data-name="Grupo 235929" clip-path="url(#clip-path)">
      <path id="Trazado_605271" data-name="Trazado 605271" d="M88.416,379.669l-1.453,1.555L43.523,433l96.324.059,26.486-53.117Z" transform="translate(-3.26 -28.439)" fill="#ebebeb"/>
      <path id="Trazado_605272" data-name="Trazado 605272" d="M67.9,382.286l-1.453,1.608L18.049,437.43l93.861.06,33.9-54.917Z" transform="translate(-1.352 -28.635)" fill="#fafafa"/>
      <g id="Grupo_235928" data-name="Grupo 235928">
        <g id="Grupo_235927" data-name="Grupo 235927" clip-path="url(#clip-path-2)">
          <path id="Trazado_605273" data-name="Trazado 605273" d="M67.859,382.283s.117-.009.354-.014l1.063-.011,4.159-.014H89.249l56.527.117h.372l-.2.317-33.876,54.933-.07.114h-.134l-12.863-.007-81-.087h-.463l.31-.343,36.23-39.952,10.15-11.144,2.687-2.926c.613-.661.932-.984.932-.984s-.3.364-.892,1.034-1.487,1.67-2.634,2.96L54.266,397.5l-36.1,40.068-.153-.343,81,.016,12.862.009-.2.114c12.357-19.995,23.927-38.716,33.929-54.9l.177.318-56.452-.3-15.839-.115-4.181-.045-1.075-.019c-.242-.006-.368-.017-.368-.017" transform="translate(-1.314 -28.632)" fill="#e0e0e0"/>
          <path id="Trazado_605274" data-name="Trazado 605274" d="M105.337,431.186a3.456,3.456,0,0,1-.661.043l-1.9.028-6.974.013L72.8,431.132l-23.011-.28-6.973-.14-1.9-.062a3.5,3.5,0,0,1-.661-.055,3.336,3.336,0,0,1,.661-.043l1.9-.029,6.974-.013,23.014.139,23.009.279,6.973.141,1.9.062a3.4,3.4,0,0,1,.661.055" transform="translate(-3.015 -32.247)" fill="#e0e0e0"/>
          <path id="Trazado_605275" data-name="Trazado 605275" d="M108.481,424.98a3.292,3.292,0,0,1-.646.043l-1.851.029-6.805.015-22.449-.133-22.452-.275-6.8-.139-1.849-.062a3.252,3.252,0,0,1-.646-.055,3.294,3.294,0,0,1,.646-.043l1.849-.029,6.805-.015,22.455.134,22.449.275,6.8.138,1.849.062a3.238,3.238,0,0,1,.645.055" transform="translate(-3.369 -31.783)" fill="#e0e0e0"/>
          <path id="Trazado_605276" data-name="Trazado 605276" d="M113.1,418.72a3.168,3.168,0,0,1-.634.043l-1.817.029-6.681.017-22.039-.13-22.041-.271-6.68-.137-1.816-.062a3.179,3.179,0,0,1-.633-.054,3.089,3.089,0,0,1,.633-.043l1.816-.029,6.681-.016,22.044.129,22.039.271,6.679.138,1.816.061a3.119,3.119,0,0,1,.633.055" transform="translate(-3.802 -31.315)" fill="#e0e0e0"/>
          <path id="Trazado_605277" data-name="Trazado 605277" d="M118.449,412.918a3.036,3.036,0,0,1-.621.043l-1.78.03-6.544.017-21.588-.126-21.59-.266-6.543-.136L58,412.417a3.012,3.012,0,0,1-.62-.055,3.023,3.023,0,0,1,.62-.043l1.78-.03,6.543-.017,21.593.126,21.588.266,6.543.136,1.778.061a2.992,2.992,0,0,1,.62.055" transform="translate(-4.298 -30.881)" fill="#e0e0e0"/>
          <path id="Trazado_605278" data-name="Trazado 605278" d="M122.315,406.825a3.038,3.038,0,0,1-.621.043l-1.78.03-6.544.017-21.588-.126-21.59-.266-6.543-.136-1.779-.061a3,3,0,0,1-.62-.055,3.024,3.024,0,0,1,.62-.043l1.779-.03,6.544-.017,21.593.126,21.588.266,6.543.136,1.778.061a2.987,2.987,0,0,1,.62.055" transform="translate(-4.588 -30.425)" fill="#e0e0e0"/>
          <path id="Trazado_605279" data-name="Trazado 605279" d="M128.027,400.767a3.039,3.039,0,0,1-.621.043l-1.78.03-6.544.017-21.588-.126-21.59-.266-6.543-.136-1.779-.061a3,3,0,0,1-.62-.055,3.032,3.032,0,0,1,.62-.043l1.779-.03,6.544-.017,21.593.126,21.588.266,6.542.136,1.779.061a2.986,2.986,0,0,1,.62.055" transform="translate(-5.016 -29.971)" fill="#e0e0e0"/>
          <path id="Trazado_605280" data-name="Trazado 605280" d="M132.218,394.833a3.041,3.041,0,0,1-.622.04l-1.779.021-6.544-.012-21.587-.222L80.1,394.3l-6.542-.166-1.778-.069a3.014,3.014,0,0,1-.621-.057,3.03,3.03,0,0,1,.621-.04l1.779-.021,6.543.012,21.592.223,21.587.364,6.541.165,1.778.069a3,3,0,0,1,.62.057" transform="translate(-5.33 -29.508)" fill="#e0e0e0"/>
          <path id="Trazado_605281" data-name="Trazado 605281" d="M138.665,389.195a3.042,3.042,0,0,1-.622.04l-1.78.021-6.543-.012-21.587-.222-21.588-.364L80,388.493l-1.779-.069a3.005,3.005,0,0,1-.62-.057,3.032,3.032,0,0,1,.621-.04L80,388.3l6.543.012,21.592.223,21.587.364,6.541.165,1.778.069a2.994,2.994,0,0,1,.62.057" transform="translate(-5.813 -29.086)" fill="#e0e0e0"/>
          <path id="Trazado_605282" data-name="Trazado 605282" d="M42.914,200.817c0-6.52,3.926-10.666,9.488-10.666s9.436,4.09,9.436,10.666-3.873,10.668-9.436,10.668-9.488-4.145-9.488-10.668m13.47,0c0-4.144-1.582-6.135-3.983-6.135-2.344,0-3.981,2.046-3.981,6.135s1.636,6.135,3.981,6.135c2.4,0,3.983-1.989,3.983-6.135m18.759-10.224h6.49l-26.067,38.69h-6.49Zm-6.271,28.465c0-6.523,3.926-10.668,9.434-10.668,5.563,0,9.49,4.145,9.49,10.668s-3.927,10.666-9.49,10.666c-5.508,0-9.434-4.145-9.434-10.666m13.415,0c0-4.092-1.582-6.135-3.981-6.135-2.344,0-3.981,1.99-3.981,6.135s1.636,6.135,3.981,6.135c2.4,0,3.981-2.045,3.981-6.135" transform="translate(-3.214 -14.243)" fill="#ebebeb"/>
          <path id="Trazado_605283" data-name="Trazado 605283" d="M371.843,35.994A42.405,42.405,0,1,1,323.606.48a42.359,42.359,0,0,1,48.237,35.514" transform="translate(-19.767 17.041)" fill="#f5f5f5"/>
          <path id="Trazado_605284" data-name="Trazado 605284" d="M362.683,38.314a32.316,32.316,0,1,1-36.76-27.065,32.279,32.279,0,0,1,36.76,27.065" transform="translate(-20.584 16.226)" fill="#ebebeb"/>
          <path id="Trazado_605285" data-name="Trazado 605285" d="M362.477,37.214c-.192.036-.54-1.346-1.424-3.715a34.328,34.328,0,0,0-5.163-9.239,33.18,33.18,0,0,0-5.1-5.169,32.335,32.335,0,0,0-7.085-4.328,31.687,31.687,0,0,0-8.8-2.483,31.4,31.4,0,0,0-4.835-.256,31.574,31.574,0,0,0-9.782,1.789,31.4,31.4,0,0,0-4.431,1.952A31.7,31.7,0,0,0,308.5,21.2a32.363,32.363,0,0,0-5.09,6.557,33.183,33.183,0,0,0-2.945,6.642,34.293,34.293,0,0,0-1.551,10.466c.015,2.528.179,3.944-.016,3.977-.142.03-.631-1.332-.946-3.921a29.905,29.905,0,0,1,.831-11,32.4,32.4,0,0,1,8.094-14.315,31.3,31.3,0,0,1,3.6-3.211,31.7,31.7,0,0,1,4.219-2.757,33.007,33.007,0,0,1,4.768-2.142,33.122,33.122,0,0,1,10.551-1.93,32.919,32.919,0,0,1,5.216.315,32.942,32.942,0,0,1,9.426,2.812,32.365,32.365,0,0,1,12.64,10.52,29.907,29.907,0,0,1,4.678,10c.623,2.534.647,3.98.5,4" transform="translate(-20.536 16.325)" fill="#e0e0e0"/>
          <path id="Trazado_605286" data-name="Trazado 605286" d="M338.668,62.431l.92,5.553-4.958.82-.895-5.4c-4.958.514-9.923-.242-13-1.923l1.724-6.5a20.312,20.312,0,0,0,10.2,1.928l-1.371-8.281c-5.725-.426-12.177-1.243-13.351-8.334-.87-5.256,2.2-10.4,9.887-12.588l-.911-5.505,4.958-.821.895,5.406a22.74,22.74,0,0,1,10.566,1.357l-1.468,6.51a20.622,20.622,0,0,0-8.014-1.324l1.4,8.431c5.716.377,12.07,1.211,13.227,8.2.853,5.157-2.177,10.244-9.805,12.474m-8.586-21.1-1.166-7.04c-2.528,1.03-3.331,2.64-3.061,4.277.288,1.735,1.931,2.431,4.228,2.763m10.507,10.539c-.288-1.736-1.881-2.439-4.137-2.832l1.132,6.843c2.39-.956,3.267-2.425,3-4.011" transform="translate(-22.036 15.44)" fill="#e0e0e0"/>
          <path id="Trazado_605287" data-name="Trazado 605287" d="M424.739,302.751a33.955,33.955,0,1,1-20.346-43.435,33.918,33.918,0,0,1,20.346,43.435" transform="translate(-26.881 -19.27)" fill="#f5f5f5"/>
          <path id="Trazado_605288" data-name="Trazado 605288" d="M417.8,300.645a25.876,25.876,0,1,1-15.5-33.1,25.847,25.847,0,0,1,15.5,33.1" transform="translate(-27.535 -19.923)" fill="#ebebeb"/>
          <path id="Trazado_605289" data-name="Trazado 605289" d="M418.172,299.8c-.15-.048.135-1.154.42-3.158a27.474,27.474,0,0,0-.1-8.474,26.47,26.47,0,0,0-1.614-5.589,25.924,25.924,0,0,0-3.328-5.754,25.329,25.329,0,0,0-5.239-5.112,25.022,25.022,0,0,0-3.3-2.031,25.3,25.3,0,0,0-7.564-2.484,25.243,25.243,0,0,0-3.865-.323,25.345,25.345,0,0,0-7.25,1.014,25.909,25.909,0,0,0-6.09,2.664,26.562,26.562,0,0,0-4.612,3.546,27.472,27.472,0,0,0-5.1,6.768c-.957,1.784-1.384,2.843-1.533,2.792-.111-.033.066-1.179.835-3.12a23.9,23.9,0,0,1,4.795-7.422,26.145,26.145,0,0,1,4.736-3.954,26.446,26.446,0,0,1,6.433-3.02,25.041,25.041,0,0,1,3.76-.883,25.4,25.4,0,0,1,4.022-.325,26.359,26.359,0,0,1,4.173.317,26.542,26.542,0,0,1,8.16,2.679,26.37,26.37,0,0,1,3.549,2.217,26.361,26.361,0,0,1,5.553,5.584,25.92,25.92,0,0,1,4.866,12.235,23.959,23.959,0,0,1-.533,8.822c-.531,2.02-1.068,3.045-1.178,3.008" transform="translate(-27.637 -19.845)" fill="#e0e0e0"/>
          <path id="Trazado_605290" data-name="Trazado 605290" d="M391.858,308.005l-1.477,4.258-3.8-1.32,1.438-4.144c-3.684-1.535-6.887-3.966-8.41-6.327l3.7-3.913a16.272,16.272,0,0,0,6.44,5.259l2.2-6.35c-3.864-2.489-8.09-5.533-6.2-10.97,1.4-4.031,5.527-6.474,11.77-5.073l1.465-4.22,3.8,1.319-1.439,4.145a18.19,18.19,0,0,1,6.912,5l-3.524,4.018a16.489,16.489,0,0,0-5.131-4l-2.243,6.465c3.877,2.452,8.027,5.47,6.167,10.829-1.373,3.955-5.45,6.373-11.669,5.024m2.031-18.124,1.872-5.4c-2.173-.243-3.353.583-3.789,1.837-.462,1.33.427,2.45,1.917,3.561m3.359,11.433c.462-1.331-.39-2.436-1.827-3.575l-1.821,5.247c2.045.241,3.225-.456,3.648-1.673" transform="translate(-28.434 -20.614)" fill="#e0e0e0"/>
          <rect id="Rectángulo_294559" data-name="Rectángulo 294559" width="210.297" height="137.037" transform="translate(25.494 21.853)" fill="#f5f5f5"/>
          <rect id="Rectángulo_294560" data-name="Rectángulo 294560" width="210.297" height="136.738" transform="translate(15.098 14.443)" fill="#ebebeb"/>
          <path id="Trazado_605291" data-name="Trazado 605291" d="M393.649,369.74c0,.133-88.128.241-196.815.241C88.11,369.98,0,369.873,0,369.74s88.11-.241,196.834-.241c108.687,0,196.815.107,196.815.241" transform="translate(0 -27.677)" fill="#263238"/>
          <path id="Trazado_605292" data-name="Trazado 605292" d="M392.629,429.532,310.1,432.205l-63.991-59.376H326.3Z" transform="translate(-18.435 -27.926)" fill="#f5f5f5"/>
          <path id="Trazado_605293" data-name="Trazado 605293" d="M360.7,439.092l-82.528,2.673-63.991-59.376h80.187Z" transform="translate(-16.043 -28.643)" fill="#f5f5f5"/>
          <path id="Trazado_605294" data-name="Trazado 605294" d="M375.706,432.73,293.177,435.4l-63.99-59.376h80.187Z" transform="translate(-17.167 -28.166)" fill="#e0e0e0"/>
          <path id="Trazado_605295" data-name="Trazado 605295" d="M298.327,372.829H218.139L282.13,432.2l85.169-2.759Z" transform="translate(-16.34 -27.926)" fill="#f5f5f5"/>
          <path id="Trazado_605296" data-name="Trazado 605296" d="M298.284,372.812s.112.079.327.248l.956.765,3.717,3.012,14.073,11.477,50.032,40.952.435.356-.562.019-81.68,2.674-3.489.114-.1,0-.072-.067-63.966-59.4-.381-.354h.52l58.226.09,16.24.056,4.266.03c.964.009,1.455.03,1.455.03s-.506.02-1.476.03l-4.284.03-16.259.056-58.168.09.139-.354c18.482,17.136,40.439,37.491,64.016,59.349l-.172-.064,3.49-.113,81.681-2.616-.128.375L317.253,388.54l-14.015-11.58-3.693-3.071-.945-.8c-.211-.18-.315-.28-.315-.28" transform="translate(-16.297 -27.91)" fill="#263238"/>
          <path id="Trazado_605297" data-name="Trazado 605297" d="M331.275,409.845c0,.133-12.788.641-28.567,1.135s-28.582.786-28.586.653,12.785-.641,28.57-1.135,28.578-.786,28.583-.653" transform="translate(-20.533 -30.697)" fill="#263238"/>
          <path id="Trazado_605298" data-name="Trazado 605298" d="M338.574,415.321c0,.133-12.991.638-29.021,1.13s-29.034.781-29.039.647,12.988-.638,29.024-1.13,29.032-.781,29.036-.648" transform="translate(-21.012 -31.107)" fill="#263238"/>
          <path id="Trazado_605299" data-name="Trazado 605299" d="M346.33,420.811c0,.133-13.082.664-29.225,1.187s-29.239.838-29.242.7,13.078-.664,29.227-1.187,29.236-.838,29.24-.7" transform="translate(-21.562 -31.518)" fill="#263238"/>
          <path id="Trazado_605300" data-name="Trazado 605300" d="M326.877,404.886c0,.133-13.159.659-29.4,1.175s-29.413.826-29.418.693,13.158-.659,29.4-1.175,29.411-.826,29.414-.693" transform="translate(-20.079 -30.325)" fill="#263238"/>
          <path id="Trazado_605301" data-name="Trazado 605301" d="M297.824,384.36c0,.133-12.211.475-27.277.764s-27.288.416-27.29.283,12.209-.475,27.281-.764,27.284-.416,27.287-.283" transform="translate(-18.221 -28.786)" fill="#263238"/>
          <path id="Trazado_605302" data-name="Trazado 605302" d="M305.06,389.836c0,.133-12.587.483-28.116.781s-28.125.432-28.128.3,12.584-.483,28.118-.781,28.123-.432,28.126-.3" transform="translate(-18.637 -29.196)" fill="#263238"/>
          <path id="Trazado_605303" data-name="Trazado 605303" d="M312.207,395.313c0,.133-13.208.495-29.5.808s-29.512.458-29.514.325,13.2-.494,29.5-.807,29.508-.459,29.511-.326" transform="translate(-18.965 -29.607)" fill="#263238"/>
          <path id="Trazado_605304" data-name="Trazado 605304" d="M319.579,400.79c0,.133-13.208.495-29.5.808s-29.512.458-29.514.326,13.2-.495,29.505-.808,29.508-.459,29.511-.326" transform="translate(-19.517 -30.017)" fill="#263238"/>
          <path id="Trazado_605305" data-name="Trazado 605305" d="M293.421,379.4a2.533,2.533,0,0,1-.571.056l-1.638.069-6.03.164-19.9.358-19.9.217-6.031.011-1.639-.022a2.569,2.569,0,0,1-.572-.04,2.551,2.551,0,0,1,.571-.057l1.64-.068,6.03-.164,19.9-.358,19.9-.217,6.032-.011,1.641.021a2.608,2.608,0,0,1,.573.041" transform="translate(-17.763 -28.414)" fill="#263238"/>
          <path id="Trazado_605306" data-name="Trazado 605306" d="M268.464,393.252l-21.04-19.269,72.855-2.89,21.413,11.853Z" transform="translate(-18.533 -27.796)" fill="#455a64"/>
          <path id="Trazado_605307" data-name="Trazado 605307" d="M256.584,376.95l4.092,3.508-.018-2.5-4.328-3.234Z" transform="translate(-19.2 -28.068)" fill="#263238"/>
          <path id="Trazado_605308" data-name="Trazado 605308" d="M260.617,378.1l5.9-.2-4.748-3.446-5.439.251Z" transform="translate(-19.2 -28.048)" fill="#ff725e"/>
          <path id="Trazado_605309" data-name="Trazado 605309" d="M260.964,378.377l.058,2.341,5.763-.374.079-2.167Z" transform="translate(-19.547 -28.327)" fill="#263238"/>
          <path id="Trazado_605310" data-name="Trazado 605310" d="M266.517,377.878a33.227,33.227,0,0,1-4.75-3.057l-.28-.2.15.044a30.639,30.639,0,0,1-5.306.015,30.61,30.61,0,0,1,5.283-.5l.082,0,.068.048.28.2a33.326,33.326,0,0,1,4.473,3.45" transform="translate(-19.2 -28.028)" fill="#263238"/>
          <path id="Trazado_605311" data-name="Trazado 605311" d="M260.984,380.735c-.133,0-.254-.513-.271-1.154s.078-1.164.211-1.167.253.512.271,1.154-.078,1.163-.211,1.167" transform="translate(-19.528 -28.345)" fill="#455a64"/>
          <path id="Trazado_605312" data-name="Trazado 605312" d="M267.257,376.75l4.092,3.508-.018-2.5L267,374.522Z" transform="translate(-20 -28.053)" fill="#263238"/>
          <path id="Trazado_605313" data-name="Trazado 605313" d="M271.289,377.9l5.9-.2-4.748-3.446L267,374.5Z" transform="translate(-20 -28.033)" fill="#e0e0e0"/>
          <path id="Trazado_605314" data-name="Trazado 605314" d="M271.637,378.177l.058,2.341,5.763-.374.079-2.167Z" transform="translate(-20.347 -28.312)" fill="#263238"/>
          <path id="Trazado_605315" data-name="Trazado 605315" d="M277.19,377.677a33.276,33.276,0,0,1-4.75-3.056l-.28-.2.15.043a30.575,30.575,0,0,1-5.306.016,30.607,30.607,0,0,1,5.283-.5l.082,0,.068.048.28.2a33.32,33.32,0,0,1,4.473,3.45" transform="translate(-20 -28.013)" fill="#263238"/>
          <path id="Trazado_605316" data-name="Trazado 605316" d="M271.657,380.534c-.133,0-.254-.513-.271-1.154s.078-1.164.211-1.167.254.513.271,1.154-.078,1.163-.211,1.167" transform="translate(-20.328 -28.33)" fill="#455a64"/>
          <path id="Trazado_605317" data-name="Trazado 605317" d="M277.475,376.614l4.092,3.508-.018-2.5-4.328-3.234Z" transform="translate(-20.765 -28.043)" fill="#263238"/>
          <path id="Trazado_605318" data-name="Trazado 605318" d="M281.508,377.762l5.9-.2-4.749-3.446-5.439.251Z" transform="translate(-20.765 -28.023)" fill="#455a64"/>
          <path id="Trazado_605319" data-name="Trazado 605319" d="M281.855,378.041l.058,2.34,5.763-.374.079-2.167Z" transform="translate(-21.112 -28.302)" fill="#263238"/>
          <path id="Trazado_605320" data-name="Trazado 605320" d="M287.408,377.542a33.231,33.231,0,0,1-4.75-3.057l-.28-.2.15.043a30.581,30.581,0,0,1-5.306.016,30.607,30.607,0,0,1,5.283-.5l.082,0,.067.048.281.2a33.3,33.3,0,0,1,4.473,3.45" transform="translate(-20.765 -28.003)" fill="#263238"/>
          <path id="Trazado_605321" data-name="Trazado 605321" d="M281.875,380.4c-.133,0-.254-.513-.271-1.154s.078-1.164.211-1.167.254.512.271,1.154-.078,1.163-.211,1.167" transform="translate(-21.093 -28.32)" fill="#455a64"/>
          <path id="Trazado_605322" data-name="Trazado 605322" d="M288.116,376.31l4.092,3.508-.018-2.5-4.328-3.234Z" transform="translate(-21.562 -28.02)" fill="#263238"/>
          <path id="Trazado_605323" data-name="Trazado 605323" d="M292.149,377.457l5.9-.2-4.749-3.447-5.438.252Z" transform="translate(-21.562 -28)" fill="#455a64"/>
          <path id="Trazado_605324" data-name="Trazado 605324" d="M292.5,377.737l.058,2.341,5.763-.374.079-2.167Z" transform="translate(-21.909 -28.279)" fill="#263238"/>
          <path id="Trazado_605325" data-name="Trazado 605325" d="M298.049,377.237a33.266,33.266,0,0,1-4.75-3.056l-.28-.2.15.043a30.586,30.586,0,0,1-5.306.016,30.6,30.6,0,0,1,5.283-.5l.082,0,.069.047.28.2a33.315,33.315,0,0,1,4.473,3.45" transform="translate(-21.562 -27.98)" fill="#263238"/>
          <path id="Trazado_605326" data-name="Trazado 605326" d="M292.516,380.1c-.133,0-.254-.513-.271-1.154s.078-1.164.211-1.167.254.512.271,1.154-.078,1.163-.211,1.167" transform="translate(-21.89 -28.297)" fill="#455a64"/>
          <path id="Trazado_605327" data-name="Trazado 605327" d="M298.908,376.042,303,379.55l-.018-2.5-4.328-3.235Z" transform="translate(-22.37 -28)" fill="#263238"/>
          <path id="Trazado_605328" data-name="Trazado 605328" d="M302.941,377.19l5.9-.2-4.749-3.446-5.438.251Z" transform="translate(-22.37 -27.98)" fill="#455a64"/>
          <path id="Trazado_605329" data-name="Trazado 605329" d="M303.289,377.469l.058,2.34,5.763-.374.079-2.167Z" transform="translate(-22.718 -28.259)" fill="#263238"/>
          <path id="Trazado_605330" data-name="Trazado 605330" d="M308.842,376.97a33.277,33.277,0,0,1-4.75-3.056l-.28-.2.15.043a30.594,30.594,0,0,1-5.306.016,30.6,30.6,0,0,1,5.283-.5l.082,0,.068.048.281.2a33.317,33.317,0,0,1,4.473,3.45" transform="translate(-22.37 -27.96)" fill="#263238"/>
          <path id="Trazado_605331" data-name="Trazado 605331" d="M303.309,379.827c-.133,0-.254-.513-.271-1.154s.078-1.164.211-1.167.254.512.271,1.154-.078,1.163-.211,1.167" transform="translate(-22.699 -28.277)" fill="#455a64"/>
          <path id="Trazado_605332" data-name="Trazado 605332" d="M309.214,375.56l4.092,3.508-.018-2.5-4.328-3.235Z" transform="translate(-23.142 -27.964)" fill="#263238"/>
          <path id="Trazado_605333" data-name="Trazado 605333" d="M313.247,376.708l5.9-.2-4.749-3.446-5.439.251Z" transform="translate(-23.142 -27.944)" fill="#455a64"/>
          <path id="Trazado_605334" data-name="Trazado 605334" d="M313.594,376.987l.058,2.34,5.763-.374.079-2.167Z" transform="translate(-23.489 -28.223)" fill="#263238"/>
          <path id="Trazado_605335" data-name="Trazado 605335" d="M319.147,376.487a33.208,33.208,0,0,1-4.75-3.055l-.28-.2.15.043a30.584,30.584,0,0,1-5.306.016,30.606,30.606,0,0,1,5.283-.5l.082,0,.068.048c.089.061.184.129.28.2a33.358,33.358,0,0,1,4.473,3.449" transform="translate(-23.142 -27.924)" fill="#263238"/>
          <path id="Trazado_605336" data-name="Trazado 605336" d="M313.614,379.345c-.133,0-.254-.513-.271-1.154s.078-1.164.211-1.167.254.513.271,1.154-.078,1.163-.211,1.167" transform="translate(-23.471 -28.241)" fill="#455a64"/>
          <path id="Trazado_605337" data-name="Trazado 605337" d="M319.289,374.979l4.092,3.508-.018-2.5-4.328-3.234Z" transform="translate(-23.897 -27.921)" fill="#263238"/>
          <path id="Trazado_605338" data-name="Trazado 605338" d="M323.322,376.127l5.9-.2-4.749-3.447-5.438.252Z" transform="translate(-23.897 -27.9)" fill="#455a64"/>
          <path id="Trazado_605339" data-name="Trazado 605339" d="M323.669,376.406l.058,2.341,5.763-.374.079-2.167Z" transform="translate(-24.244 -28.179)" fill="#263238"/>
          <path id="Trazado_605340" data-name="Trazado 605340" d="M329.222,375.907a33.339,33.339,0,0,1-4.75-3.057l-.28-.2.15.043a30.589,30.589,0,0,1-5.306.016,30.6,30.6,0,0,1,5.283-.5l.082,0,.068.047.28.2a33.234,33.234,0,0,1,4.473,3.45" transform="translate(-23.897 -27.88)" fill="#263238"/>
          <path id="Trazado_605341" data-name="Trazado 605341" d="M323.689,378.764c-.133,0-.254-.513-.271-1.154s.078-1.164.211-1.167.254.512.271,1.154-.078,1.163-.211,1.167" transform="translate(-24.225 -28.197)" fill="#455a64"/>
          <path id="Trazado_605342" data-name="Trazado 605342" d="M263.7,384.07l4.092,3.508-.018-2.5-4.328-3.235Z" transform="translate(-19.733 -28.602)" fill="#263238"/>
          <path id="Trazado_605343" data-name="Trazado 605343" d="M267.737,385.218l5.9-.2-4.749-3.447-5.438.252Z" transform="translate(-19.733 -28.581)" fill="#455a64"/>
          <path id="Trazado_605344" data-name="Trazado 605344" d="M268.084,385.5l.058,2.341,5.763-.374.079-2.167Z" transform="translate(-20.081 -28.86)" fill="#263238"/>
          <path id="Trazado_605345" data-name="Trazado 605345" d="M273.637,385a33.266,33.266,0,0,1-4.75-3.056l-.28-.2.15.043a30.585,30.585,0,0,1-5.306.016,30.6,30.6,0,0,1,5.283-.5l.082,0,.068.048.28.2a33.316,33.316,0,0,1,4.473,3.45" transform="translate(-19.733 -28.561)" fill="#263238"/>
          <path id="Trazado_605346" data-name="Trazado 605346" d="M268.1,387.855c-.133,0-.254-.513-.271-1.154s.078-1.164.211-1.167.254.512.271,1.154-.078,1.163-.211,1.167" transform="translate(-20.062 -28.878)" fill="#455a64"/>
          <path id="Trazado_605347" data-name="Trazado 605347" d="M274.376,383.869l4.092,3.508-.018-2.5-4.328-3.234Z" transform="translate(-20.533 -28.586)" fill="#263238"/>
          <path id="Trazado_605348" data-name="Trazado 605348" d="M278.409,385.017l5.9-.2-4.749-3.446-5.438.251Z" transform="translate(-20.533 -28.566)" fill="#455a64"/>
          <path id="Trazado_605349" data-name="Trazado 605349" d="M278.756,385.3l.058,2.34,5.763-.374.079-2.167Z" transform="translate(-20.88 -28.845)" fill="#263238"/>
          <path id="Trazado_605350" data-name="Trazado 605350" d="M284.309,384.8a33.276,33.276,0,0,1-4.75-3.056l-.28-.2.15.043a30.586,30.586,0,0,1-5.306.016,30.606,30.606,0,0,1,5.283-.5l.082,0,.068.048.28.2a33.314,33.314,0,0,1,4.473,3.45" transform="translate(-20.533 -28.546)" fill="#263238"/>
          <path id="Trazado_605351" data-name="Trazado 605351" d="M278.777,387.654c-.133,0-.254-.513-.271-1.154s.078-1.164.211-1.167.254.512.271,1.154-.078,1.163-.211,1.167" transform="translate(-20.861 -28.863)" fill="#455a64"/>
          <path id="Trazado_605352" data-name="Trazado 605352" d="M284.6,383.734l4.092,3.508-.018-2.5-4.328-3.235Z" transform="translate(-21.298 -28.576)" fill="#263238"/>
          <path id="Trazado_605353" data-name="Trazado 605353" d="M288.628,384.882l5.9-.2-4.749-3.447-5.439.252Z" transform="translate(-21.298 -28.556)" fill="#455a64"/>
          <path id="Trazado_605354" data-name="Trazado 605354" d="M288.975,385.161l.058,2.34,5.763-.374.079-2.167Z" transform="translate(-21.645 -28.835)" fill="#263238"/>
          <path id="Trazado_605355" data-name="Trazado 605355" d="M294.528,384.662a33.227,33.227,0,0,1-4.75-3.057l-.28-.2.15.043a30.578,30.578,0,0,1-5.306.016,30.614,30.614,0,0,1,5.283-.5l.082,0,.068.048.28.2a33.23,33.23,0,0,1,4.473,3.45" transform="translate(-21.298 -28.536)" fill="#263238"/>
          <path id="Trazado_605356" data-name="Trazado 605356" d="M288.995,387.519c-.133,0-.254-.513-.271-1.154s.078-1.164.211-1.166.254.512.271,1.154-.078,1.163-.211,1.167" transform="translate(-21.626 -28.853)" fill="#455a64"/>
          <path id="Trazado_605357" data-name="Trazado 605357" d="M295.236,383.43l4.092,3.508-.018-2.5-4.328-3.235Z" transform="translate(-22.095 -28.554)" fill="#263238"/>
          <path id="Trazado_605358" data-name="Trazado 605358" d="M299.269,384.577l5.9-.2-4.748-3.446-5.439.251Z" transform="translate(-22.095 -28.533)" fill="#455a64"/>
          <path id="Trazado_605359" data-name="Trazado 605359" d="M299.616,384.856l.058,2.34,5.763-.374.079-2.167Z" transform="translate(-22.442 -28.812)" fill="#263238"/>
          <path id="Trazado_605360" data-name="Trazado 605360" d="M305.169,384.357a33.236,33.236,0,0,1-4.75-3.056l-.28-.2.15.043a30.59,30.59,0,0,1-5.306.016,30.606,30.606,0,0,1,5.283-.5l.082,0,.068.047.281.2a33.32,33.32,0,0,1,4.473,3.45" transform="translate(-22.095 -28.513)" fill="#263238"/>
          <path id="Trazado_605361" data-name="Trazado 605361" d="M299.636,387.214c-.133,0-.254-.513-.271-1.154s.078-1.164.211-1.167.254.513.271,1.154-.078,1.163-.211,1.167" transform="translate(-22.424 -28.83)" fill="#455a64"/>
          <path id="Trazado_605362" data-name="Trazado 605362" d="M306.028,383.162l4.092,3.508-.018-2.5-4.328-3.234Z" transform="translate(-22.904 -28.534)" fill="#263238"/>
          <path id="Trazado_605363" data-name="Trazado 605363" d="M310.061,384.31l5.9-.2-4.749-3.446-5.439.251Z" transform="translate(-22.904 -28.513)" fill="#455a64"/>
          <path id="Trazado_605364" data-name="Trazado 605364" d="M310.409,384.589l.058,2.34,5.763-.374.079-2.167Z" transform="translate(-23.251 -28.792)" fill="#263238"/>
          <path id="Trazado_605365" data-name="Trazado 605365" d="M315.961,384.09a33.289,33.289,0,0,1-4.75-3.056l-.28-.2.15.043a30.592,30.592,0,0,1-5.306.016,30.61,30.61,0,0,1,5.283-.5l.082,0,.068.047.281.2a33.312,33.312,0,0,1,4.473,3.45" transform="translate(-22.904 -28.493)" fill="#263238"/>
          <path id="Trazado_605366" data-name="Trazado 605366" d="M310.429,386.947c-.133,0-.254-.513-.271-1.154s.078-1.164.211-1.167.254.513.271,1.154-.078,1.163-.211,1.167" transform="translate(-23.232 -28.81)" fill="#455a64"/>
          <path id="Trazado_605367" data-name="Trazado 605367" d="M316.334,382.68l4.092,3.508-.018-2.5-4.328-3.234Z" transform="translate(-23.676 -28.497)" fill="#263238"/>
          <path id="Trazado_605368" data-name="Trazado 605368" d="M320.367,383.828l5.9-.2-4.749-3.447-5.439.252Z" transform="translate(-23.676 -28.477)" fill="#455a64"/>
          <path id="Trazado_605369" data-name="Trazado 605369" d="M320.714,384.107l.058,2.341,5.763-.374.079-2.167Z" transform="translate(-24.023 -28.756)" fill="#263238"/>
          <path id="Trazado_605370" data-name="Trazado 605370" d="M326.267,383.607a33.323,33.323,0,0,1-4.75-3.057l-.28-.2.15.043a30.588,30.588,0,0,1-5.306.016,30.606,30.606,0,0,1,5.283-.5l.082,0,.068.047.28.2a33.24,33.24,0,0,1,4.473,3.45" transform="translate(-23.676 -28.457)" fill="#263238"/>
          <path id="Trazado_605371" data-name="Trazado 605371" d="M320.734,386.464c-.133,0-.254-.513-.271-1.154s.078-1.164.211-1.167.254.512.271,1.154-.078,1.163-.211,1.167" transform="translate(-24.004 -28.774)" fill="#455a64"/>
          <path id="Trazado_605372" data-name="Trazado 605372" d="M326.408,382.1l4.092,3.508-.018-2.5-4.328-3.235Z" transform="translate(-24.43 -28.454)" fill="#263238"/>
          <path id="Trazado_605373" data-name="Trazado 605373" d="M330.441,383.247l5.9-.2-4.749-3.446-5.438.251Z" transform="translate(-24.43 -28.434)" fill="#455a64"/>
          <path id="Trazado_605374" data-name="Trazado 605374" d="M330.789,383.526l.058,2.34,5.763-.374.079-2.167Z" transform="translate(-24.777 -28.713)" fill="#263238"/>
          <path id="Trazado_605375" data-name="Trazado 605375" d="M336.342,383.027a33.183,33.183,0,0,1-4.751-3.056l-.28-.2.151.043a30.6,30.6,0,0,1-5.307.016,30.605,30.605,0,0,1,5.283-.5l.082,0,.068.048.281.2a33.37,33.37,0,0,1,4.474,3.45" transform="translate(-24.43 -28.413)" fill="#263238"/>
          <path id="Trazado_605376" data-name="Trazado 605376" d="M330.809,385.884c-.133,0-.254-.513-.271-1.154s.078-1.164.211-1.167.254.513.271,1.154-.078,1.163-.211,1.167" transform="translate(-24.759 -28.73)" fill="#455a64"/>
          <path id="Trazado_605377" data-name="Trazado 605377" d="M362.151,377.886l-82.615,4.5-10.969,10.373-21.144-18.537V379.6l21.9,20.992,12.091-11.758,82-4.89Z" transform="translate(-18.533 -28.03)" fill="#263238"/>
          <path id="Trazado_605378" data-name="Trazado 605378" d="M271.1,401.375l74.645-4.367,19.442-12.281-83.968,3.294Z" transform="translate(-20.306 -28.818)" fill="#263238"/>
          <path id="Trazado_605379" data-name="Trazado 605379" d="M365.185,384.726a1.041,1.041,0,0,1-.253.04l-.747.068-2.877.217-10.586.708-34.935,2.154L283.2,389.8l.115-.05-8.895,8.539-2.443,2.309-.646.592a1.237,1.237,0,0,1-.232.189,1.269,1.269,0,0,1,.2-.227l.61-.629,2.376-2.378,8.784-8.654.047-.047.068,0,32.579-2,34.944-2.013,10.6-.555,2.882-.127.751-.02a1.035,1.035,0,0,1,.256.009" transform="translate(-20.306 -28.817)" fill="#455a64"/>
          <path id="Trazado_605380" data-name="Trazado 605380" d="M284.014,389.49a23.479,23.479,0,0,1-1.879-6.448,23.572,23.572,0,0,1,1.879,6.448" transform="translate(-21.131 -28.691)" fill="#455a64"/>
          <path id="Trazado_605381" data-name="Trazado 605381" d="M376.452,228.827l-74.147-14.193a4.181,4.181,0,0,1-3.321-4.892L322.845,85.084a5.938,5.938,0,0,1,6.949-4.716L400.489,93.9a5.939,5.939,0,0,1,4.716,6.949l-23.86,124.658a4.182,4.182,0,0,1-4.893,3.32" transform="translate(-22.389 -6.012)" fill="#455a64"/>
          <g id="Grupo_235875" data-name="Grupo 235875" transform="translate(276.461 74.23)" opacity="0.4">
            <g id="Grupo_235874" data-name="Grupo 235874">
              <g id="Grupo_235873" data-name="Grupo 235873" clip-path="url(#clip-path-3)">
                <path id="Trazado_605382" data-name="Trazado 605382" d="M376.389,228.806l-74.147-14.193a4.18,4.18,0,0,1-3.321-4.892L322.782,85.063a5.938,5.938,0,0,1,6.949-4.716l70.695,13.531a5.939,5.939,0,0,1,4.716,6.949l-23.86,124.658a4.182,4.182,0,0,1-4.893,3.32" transform="translate(-298.846 -80.24)"/>
              </g>
            </g>
          </g>
          <path id="Trazado_605383" data-name="Trazado 605383" d="M369.476,227.461l-74.147-14.193a4.18,4.18,0,0,1-3.32-4.892l23.86-124.658A5.939,5.939,0,0,1,322.818,79l70.695,13.532a5.938,5.938,0,0,1,4.716,6.949l-23.86,124.658a4.182,4.182,0,0,1-4.893,3.32" transform="translate(-21.867 -5.91)" fill="#455a64"/>
          <path id="Trazado_605384" data-name="Trazado 605384" d="M332.676,210.133l-23.381-4.476a2.237,2.237,0,0,1-1.778-2.618l1.507-7.875a2.237,2.237,0,0,1,2.62-1.778l23.381,4.476a2.237,2.237,0,0,1,1.778,2.62l-1.507,7.874a2.239,2.239,0,0,1-2.62,1.778" transform="translate(-23.031 -14.482)" fill="#455a64"/>
          <g id="Grupo_235878" data-name="Grupo 235878" transform="translate(284.445 178.863)" opacity="0.2">
            <g id="Grupo_235877" data-name="Grupo 235877">
              <g id="Grupo_235876" data-name="Grupo 235876" clip-path="url(#clip-path-4)">
                <path id="Trazado_605385" data-name="Trazado 605385" d="M332.676,210.133l-23.381-4.476a2.237,2.237,0,0,1-1.778-2.618l1.507-7.875a2.237,2.237,0,0,1,2.62-1.778l23.381,4.476a2.237,2.237,0,0,1,1.778,2.62l-1.507,7.874a2.239,2.239,0,0,1-2.62,1.778" transform="translate(-307.476 -193.345)"/>
              </g>
            </g>
          </g>
          <rect id="Rectángulo_294563" data-name="Rectángulo 294563" width="28.122" height="71.692" transform="translate(293.72 114.234) rotate(-79.164)" fill="#fafafa"/>
          <path id="Trazado_605386" data-name="Trazado 605386" d="M387.9,134.713s.027-.17.086-.494.149-.8.265-1.43c.236-1.258.582-3.106,1.03-5.49.9-4.763,2.2-11.661,3.824-20.222l.067.1L322.759,93.734h0l.142-.1c-1.85,9.66-3.638,18.993-5.292,27.621l-.092-.136,50.454,9.713,14.652,2.837,3.922.766,1.016.2c.228.046.348.074.348.074s-.112-.017-.337-.057l-1-.185-3.9-.732-14.638-2.769-50.553-9.621-.114-.021.022-.115c1.649-8.627,3.434-17.961,5.281-27.622l.023-.119.119.023h0l70.4,13.513.083.016-.017.083c-1.661,8.575-3,15.484-3.923,20.255-.464,2.372-.822,4.211-1.067,5.464L388,134.239c-.064.316-.1.474-.1.474" transform="translate(-23.771 -7.001)" fill="#263238"/>
          <path id="Trazado_605387" data-name="Trazado 605387" d="M327.1,150.127l-8.186-1.567a1.925,1.925,0,0,1-1.529-2.253l1.567-8.186a1.926,1.926,0,0,1,2.254-1.529l8.185,1.566a1.926,1.926,0,0,1,1.53,2.254l-1.567,8.186a1.926,1.926,0,0,1-2.254,1.529" transform="translate(-23.771 -10.229)" fill="#455a64"/>
          <g id="Grupo_235881" data-name="Grupo 235881" transform="translate(293.584 126.328)" opacity="0.2">
            <g id="Grupo_235880" data-name="Grupo 235880">
              <g id="Grupo_235879" data-name="Grupo 235879" clip-path="url(#clip-path-5)">
                <path id="Trazado_605388" data-name="Trazado 605388" d="M327.1,150.127l-8.186-1.567a1.925,1.925,0,0,1-1.529-2.253l1.567-8.186a1.926,1.926,0,0,1,2.254-1.529l8.185,1.566a1.926,1.926,0,0,1,1.53,2.254l-1.567,8.186a1.926,1.926,0,0,1-2.254,1.529" transform="translate(-317.355 -136.557)"/>
              </g>
            </g>
          </g>
          <path id="Trazado_605389" data-name="Trazado 605389" d="M325.108,149.744l-8.185-1.567a1.925,1.925,0,0,1-1.53-2.254l1.567-8.185a1.925,1.925,0,0,1,2.254-1.529l8.185,1.566a1.926,1.926,0,0,1,1.53,2.254l-1.567,8.186a1.926,1.926,0,0,1-2.254,1.529" transform="translate(-23.622 -10.2)" fill="#263238"/>
          <path id="Trazado_605390" data-name="Trazado 605390" d="M323.962,140.913l-.955,4.988-1.155-.221.778-4.061-1-.191.178-.926Z" transform="translate(-24.092 -10.524)" fill="#fff"/>
          <path id="Trazado_605391" data-name="Trazado 605391" d="M345.146,153.58l-8.185-1.567a1.925,1.925,0,0,1-1.53-2.254L337,141.574a1.925,1.925,0,0,1,2.253-1.529l8.185,1.566a1.927,1.927,0,0,1,1.53,2.254l-1.567,8.186a1.926,1.926,0,0,1-2.254,1.529" transform="translate(-25.122 -10.487)" fill="#455a64"/>
          <g id="Grupo_235884" data-name="Grupo 235884" transform="translate(310.273 129.523)" opacity="0.2">
            <g id="Grupo_235883" data-name="Grupo 235883">
              <g id="Grupo_235882" data-name="Grupo 235882" clip-path="url(#clip-path-5)">
                <path id="Trazado_605392" data-name="Trazado 605392" d="M345.146,153.58l-8.185-1.567a1.925,1.925,0,0,1-1.53-2.254L337,141.574a1.925,1.925,0,0,1,2.253-1.529l8.185,1.566a1.927,1.927,0,0,1,1.53,2.254l-1.567,8.186a1.926,1.926,0,0,1-2.254,1.529" transform="translate(-335.396 -140.01)"/>
              </g>
            </g>
          </g>
          <path id="Trazado_605393" data-name="Trazado 605393" d="M343.148,153.2l-8.185-1.567a1.925,1.925,0,0,1-1.53-2.254L335,141.191a1.925,1.925,0,0,1,2.254-1.529l8.185,1.566a1.927,1.927,0,0,1,1.53,2.254l-1.567,8.186a1.926,1.926,0,0,1-2.254,1.529" transform="translate(-24.973 -10.459)" fill="#263238"/>
          <path id="Trazado_605394" data-name="Trazado 605394" d="M342.983,148.778l-.18.941L339.034,149l.143-.748,2.272-1.449c.522-.336.648-.577.7-.82.075-.392-.153-.672-.679-.772a1.244,1.244,0,0,0-1.13.3l-.736-.7a2.357,2.357,0,0,1,2.158-.548c1.111.213,1.743.925,1.57,1.83a2.026,2.026,0,0,1-1.135,1.415l-1.354.863Z" transform="translate(-25.395 -10.801)" fill="#fff"/>
          <path id="Trazado_605395" data-name="Trazado 605395" d="M363.849,157.16l-8.186-1.567a1.926,1.926,0,0,1-1.529-2.254l1.567-8.185a1.925,1.925,0,0,1,2.254-1.529l8.185,1.566a1.926,1.926,0,0,1,1.53,2.254l-1.567,8.186a1.926,1.926,0,0,1-2.254,1.529" transform="translate(-26.523 -10.755)" fill="#455a64"/>
          <g id="Grupo_235887" data-name="Grupo 235887" transform="translate(327.575 132.835)" opacity="0.2">
            <g id="Grupo_235886" data-name="Grupo 235886">
              <g id="Grupo_235885" data-name="Grupo 235885" clip-path="url(#clip-path-7)">
                <path id="Trazado_605396" data-name="Trazado 605396" d="M363.849,157.16l-8.186-1.567a1.926,1.926,0,0,1-1.529-2.254l1.567-8.185a1.925,1.925,0,0,1,2.254-1.529l8.185,1.566a1.926,1.926,0,0,1,1.53,2.254l-1.567,8.186a1.926,1.926,0,0,1-2.254,1.529" transform="translate(-354.098 -143.59)"/>
              </g>
            </g>
          </g>
          <path id="Trazado_605397" data-name="Trazado 605397" d="M361.851,156.777l-8.186-1.567a1.925,1.925,0,0,1-1.529-2.254l1.567-8.185a1.925,1.925,0,0,1,2.254-1.529l8.185,1.566a1.926,1.926,0,0,1,1.53,2.254l-1.567,8.186a1.926,1.926,0,0,1-2.254,1.529" transform="translate(-26.374 -10.727)" fill="#263238"/>
          <path id="Trazado_605398" data-name="Trazado 605398" d="M361.742,151.749c-.161.842-.957,1.488-2.374,1.216a3.49,3.49,0,0,1-1.8-.9l.618-.8a2.468,2.468,0,0,0,1.34.722c.577.11.979-.057,1.056-.463.072-.377-.161-.666-.817-.792l-.527-.1.146-.762,1.249-.965-2.124-.407.178-.926,3.492.668-.143.747-1.372,1.068a1.441,1.441,0,0,1,1.08,1.69" transform="translate(-26.783 -11.054)" fill="#fff"/>
          <path id="Trazado_605399" data-name="Trazado 605399" d="M382.551,160.739l-8.185-1.567a1.925,1.925,0,0,1-1.53-2.254l1.567-8.185a1.925,1.925,0,0,1,2.254-1.529l8.185,1.566a1.926,1.926,0,0,1,1.53,2.254L384.8,159.21a1.926,1.926,0,0,1-2.254,1.529" transform="translate(-27.924 -11.024)" fill="#455a64"/>
          <g id="Grupo_235890" data-name="Grupo 235890" transform="translate(344.877 136.146)" opacity="0.2">
            <g id="Grupo_235889" data-name="Grupo 235889">
              <g id="Grupo_235888" data-name="Grupo 235888" clip-path="url(#clip-path-5)">
                <path id="Trazado_605400" data-name="Trazado 605400" d="M382.551,160.739l-8.185-1.567a1.925,1.925,0,0,1-1.53-2.254l1.567-8.185a1.925,1.925,0,0,1,2.254-1.529l8.185,1.566a1.926,1.926,0,0,1,1.53,2.254L384.8,159.21a1.926,1.926,0,0,1-2.254,1.529" transform="translate(-372.801 -147.17)"/>
              </g>
            </g>
          </g>
          <path id="Trazado_605401" data-name="Trazado 605401" d="M380.6,160.361l-8.185-1.567a1.925,1.925,0,0,1-1.53-2.254l1.567-8.185a1.925,1.925,0,0,1,2.254-1.529l8.185,1.566a1.926,1.926,0,0,1,1.53,2.254l-1.567,8.186a1.926,1.926,0,0,1-2.254,1.529" transform="translate(-27.778 -10.995)" fill="#263238"/>
          <path id="Trazado_605402" data-name="Trazado 605402" d="M380.572,154.6l-5.344-1.023.087-.457,5.344,1.023Z" transform="translate(-28.106 -11.47)" fill="#fff"/>
          <path id="Trazado_605403" data-name="Trazado 605403" d="M379.44,151.5a.882.882,0,1,1-.7-1.032.882.882,0,0,1,.7,1.032" transform="translate(-28.291 -11.269)" fill="#fff"/>
          <path id="Trazado_605404" data-name="Trazado 605404" d="M378.476,156.537a.882.882,0,1,1-.7-1.032.882.882,0,0,1,.7,1.032" transform="translate(-28.218 -11.647)" fill="#fff"/>
          <g id="Grupo_235893" data-name="Grupo 235893" transform="translate(290.117 143.749)" opacity="0.2">
            <g id="Grupo_235892" data-name="Grupo 235892">
              <g id="Grupo_235891" data-name="Grupo 235891" clip-path="url(#clip-path-9)">
                <path id="Trazado_605405" data-name="Trazado 605405" d="M324.114,169.194l-9.478-1.814a1.269,1.269,0,0,1-1.007-1.484l1.814-9.478a1.27,1.27,0,0,1,1.485-1.007l9.477,1.814a1.252,1.252,0,0,1,1.007,1.485l-1.814,9.477a1.268,1.268,0,0,1-1.484,1.007" transform="translate(-313.607 -155.388)"/>
              </g>
            </g>
          </g>
          <path id="Trazado_605406" data-name="Trazado 605406" d="M321.48,168.7l-8.185-1.567a1.925,1.925,0,0,1-1.53-2.254l1.567-8.185a1.925,1.925,0,0,1,2.254-1.529l8.185,1.566a1.927,1.927,0,0,1,1.53,2.254l-1.567,8.186a1.926,1.926,0,0,1-2.254,1.529" transform="translate(-23.35 -11.62)" fill="#263238"/>
          <path id="Trazado_605407" data-name="Trazado 605407" d="M320.907,164.106l-.813-.155-.2,1.047-1.126-.216.2-1.047-2.687-.514.148-.776,2.958-2.714,1.211.232-2.754,2.582,1.34.256.179-.932,1.09.208-.179.933.813.155Z" transform="translate(-23.691 -11.964)" fill="#fff"/>
          <path id="Trazado_605408" data-name="Trazado 605408" d="M341.518,172.532l-8.186-1.567a1.925,1.925,0,0,1-1.529-2.254l1.567-8.185A1.925,1.925,0,0,1,335.623,159l8.185,1.566a1.927,1.927,0,0,1,1.53,2.254L343.771,171a1.926,1.926,0,0,1-2.254,1.529" transform="translate(-24.851 -11.907)" fill="#455a64"/>
          <g id="Grupo_235896" data-name="Grupo 235896" transform="translate(306.917 147.055)" opacity="0.2">
            <g id="Grupo_235895" data-name="Grupo 235895">
              <g id="Grupo_235894" data-name="Grupo 235894" clip-path="url(#clip-path-10)">
                <path id="Trazado_605409" data-name="Trazado 605409" d="M341.518,172.532l-8.186-1.567a1.925,1.925,0,0,1-1.529-2.254l1.567-8.185A1.925,1.925,0,0,1,335.623,159l8.185,1.566a1.927,1.927,0,0,1,1.53,2.254L343.771,171a1.926,1.926,0,0,1-2.254,1.529" transform="translate(-331.768 -158.962)"/>
              </g>
            </g>
          </g>
          <path id="Trazado_605410" data-name="Trazado 605410" d="M339.521,172.15l-8.186-1.567a1.925,1.925,0,0,1-1.529-2.253l1.567-8.186a1.925,1.925,0,0,1,2.253-1.529l8.186,1.566a1.926,1.926,0,0,1,1.529,2.254l-1.567,8.186a1.926,1.926,0,0,1-2.253,1.529" transform="translate(-24.701 -11.878)" fill="#263238"/>
          <path id="Trazado_605411" data-name="Trazado 605411" d="M338.87,166.98c-.169.883-.965,1.529-2.39,1.256a3.513,3.513,0,0,1-1.8-.9l.625-.8a2.439,2.439,0,0,0,1.331.72c.577.111.981-.063,1.057-.469s-.132-.7-1.037-.871l-1.275-.244.794-2.758,3.043.583-.178.926-2.081-.4-.26.932.406.078c1.476.283,1.933,1.057,1.763,1.941" transform="translate(-25.069 -12.203)" fill="#fff"/>
          <path id="Trazado_605412" data-name="Trazado 605412" d="M360.221,176.112l-8.185-1.567a1.925,1.925,0,0,1-1.53-2.254l1.567-8.185a1.925,1.925,0,0,1,2.254-1.529l8.185,1.566a1.926,1.926,0,0,1,1.53,2.254l-1.567,8.186a1.926,1.926,0,0,1-2.253,1.529" transform="translate(-26.252 -12.175)" fill="#455a64"/>
          <g id="Grupo_235899" data-name="Grupo 235899" transform="translate(324.219 150.367)" opacity="0.2">
            <g id="Grupo_235898" data-name="Grupo 235898">
              <g id="Grupo_235897" data-name="Grupo 235897" clip-path="url(#clip-path-5)">
                <path id="Trazado_605413" data-name="Trazado 605413" d="M360.221,176.112l-8.185-1.567a1.925,1.925,0,0,1-1.53-2.254l1.567-8.185a1.925,1.925,0,0,1,2.254-1.529l8.185,1.566a1.926,1.926,0,0,1,1.53,2.254l-1.567,8.186a1.926,1.926,0,0,1-2.253,1.529" transform="translate(-350.471 -162.542)"/>
              </g>
            </g>
          </g>
          <path id="Trazado_605414" data-name="Trazado 605414" d="M358.223,175.729l-8.185-1.566a1.926,1.926,0,0,1-1.53-2.254l1.567-8.186a1.924,1.924,0,0,1,2.254-1.528l8.185,1.566a1.927,1.927,0,0,1,1.53,2.253l-1.567,8.186a1.925,1.925,0,0,1-2.254,1.528" transform="translate(-26.102 -12.146)" fill="#263238"/>
          <path id="Trazado_605415" data-name="Trazado 605415" d="M357.964,170.64a1.746,1.746,0,0,1-2.206,1.3c-1.375-.264-2.065-1.289-1.757-2.9a2.472,2.472,0,0,1,3.058-2.2,2.738,2.738,0,0,1,1.324.609l-.59.766a1.665,1.665,0,0,0-.885-.428,1.347,1.347,0,0,0-1.68,1.178,1.711,1.711,0,0,1,1.316-.206,1.611,1.611,0,0,1,1.42,1.883m-1.129-.157a.765.765,0,0,0-.7-.91.794.794,0,0,0-1.006.583c-.081.428.179.8.735.908a.759.759,0,0,0,.976-.581" transform="translate(-26.511 -12.493)" fill="#fff"/>
          <path id="Trazado_605416" data-name="Trazado 605416" d="M378.924,179.692l-8.186-1.567a1.925,1.925,0,0,1-1.529-2.254l1.567-8.185a1.925,1.925,0,0,1,2.254-1.529l8.185,1.566a1.926,1.926,0,0,1,1.53,2.254l-1.567,8.186a1.926,1.926,0,0,1-2.254,1.529" transform="translate(-27.653 -12.443)" fill="#455a64"/>
          <g id="Grupo_235902" data-name="Grupo 235902" transform="translate(341.521 153.679)" opacity="0.2">
            <g id="Grupo_235901" data-name="Grupo 235901">
              <g id="Grupo_235900" data-name="Grupo 235900" clip-path="url(#clip-path-7)">
                <path id="Trazado_605417" data-name="Trazado 605417" d="M378.924,179.692l-8.186-1.567a1.925,1.925,0,0,1-1.529-2.254l1.567-8.185a1.925,1.925,0,0,1,2.254-1.529l8.185,1.566a1.926,1.926,0,0,1,1.53,2.254l-1.567,8.186a1.926,1.926,0,0,1-2.254,1.529" transform="translate(-369.173 -166.122)"/>
              </g>
            </g>
          </g>
          <path id="Trazado_605418" data-name="Trazado 605418" d="M376.926,179.309l-8.185-1.567a1.925,1.925,0,0,1-1.53-2.254l1.567-8.185a1.925,1.925,0,0,1,2.253-1.529l8.185,1.566a1.927,1.927,0,0,1,1.53,2.254l-1.567,8.186a1.926,1.926,0,0,1-2.254,1.529" transform="translate(-27.503 -12.415)" fill="#263238"/>
          <rect id="Rectángulo_294572" data-name="Rectángulo 294572" width="5.441" height="0.465" transform="translate(344.074 161.427) rotate(-33.312)" fill="#fff"/>
          <rect id="Rectángulo_294573" data-name="Rectángulo 294573" width="0.465" height="5.442" transform="matrix(0.827, -0.562, 0.562, 0.827, 344.755, 158.007)" fill="#fff"/>
          <path id="Trazado_605419" data-name="Trazado 605419" d="M319.88,187.877l-8.186-1.567a1.926,1.926,0,0,1-1.529-2.254l1.567-8.185a1.925,1.925,0,0,1,2.254-1.529l8.185,1.566a1.926,1.926,0,0,1,1.529,2.254l-1.566,8.186a1.926,1.926,0,0,1-2.254,1.529" transform="translate(-23.23 -13.056)" fill="#455a64"/>
          <g id="Grupo_235905" data-name="Grupo 235905" transform="translate(286.899 161.251)" opacity="0.2">
            <g id="Grupo_235904" data-name="Grupo 235904">
              <g id="Grupo_235903" data-name="Grupo 235903" clip-path="url(#clip-path-10)">
                <path id="Trazado_605420" data-name="Trazado 605420" d="M319.88,187.877l-8.186-1.567a1.926,1.926,0,0,1-1.529-2.254l1.567-8.185a1.925,1.925,0,0,1,2.254-1.529l8.185,1.566a1.926,1.926,0,0,1,1.529,2.254l-1.566,8.186a1.926,1.926,0,0,1-2.254,1.529" transform="translate(-310.129 -174.307)"/>
              </g>
            </g>
          </g>
          <path id="Trazado_605421" data-name="Trazado 605421" d="M317.882,187.5l-8.186-1.567a1.925,1.925,0,0,1-1.529-2.254l1.567-8.185a1.926,1.926,0,0,1,2.254-1.529l8.185,1.566a1.927,1.927,0,0,1,1.53,2.254l-1.567,8.186a1.926,1.926,0,0,1-2.254,1.529" transform="translate(-23.08 -13.028)" fill="#263238"/>
          <path id="Trazado_605422" data-name="Trazado 605422" d="M317.432,178.8l-.143.748-2.664,3.884-1.254-.24,2.563-3.7-1.653-.316-.155.812-1.026-.2.336-1.753Z" transform="translate(-23.452 -13.335)" fill="#fff"/>
          <path id="Trazado_605423" data-name="Trazado 605423" d="M337.92,191.33l-8.185-1.567a1.925,1.925,0,0,1-1.53-2.254l1.567-8.185a1.925,1.925,0,0,1,2.254-1.529l8.185,1.566a1.926,1.926,0,0,1,1.53,2.254l-1.567,8.186a1.926,1.926,0,0,1-2.254,1.529" transform="translate(-24.581 -13.315)" fill="#455a64"/>
          <g id="Grupo_235908" data-name="Grupo 235908" transform="translate(303.589 164.445)" opacity="0.2">
            <g id="Grupo_235907" data-name="Grupo 235907">
              <g id="Grupo_235906" data-name="Grupo 235906" clip-path="url(#clip-path-14)">
                <path id="Trazado_605424" data-name="Trazado 605424" d="M337.92,191.33l-8.185-1.567a1.925,1.925,0,0,1-1.53-2.254l1.567-8.185a1.925,1.925,0,0,1,2.254-1.529l8.185,1.566a1.926,1.926,0,0,1,1.53,2.254l-1.567,8.186a1.926,1.926,0,0,1-2.254,1.529" transform="translate(-328.17 -177.76)"/>
              </g>
            </g>
          </g>
          <path id="Trazado_605425" data-name="Trazado 605425" d="M335.923,190.948l-8.185-1.567a1.926,1.926,0,0,1-1.53-2.254l1.567-8.185a1.925,1.925,0,0,1,2.254-1.529l8.185,1.566a1.926,1.926,0,0,1,1.53,2.254l-1.567,8.186a1.926,1.926,0,0,1-2.254,1.529" transform="translate(-24.432 -13.286)" fill="#263238"/>
          <path id="Trazado_605426" data-name="Trazado 605426" d="M335.681,185.991c-.179.941-1.133,1.371-2.4,1.129s-1.982-.993-1.8-1.933a1.293,1.293,0,0,1,.981-1.031,1.175,1.175,0,0,1-.381-1.136c.168-.877,1.057-1.276,2.19-1.058,1.148.219,1.826.919,1.659,1.795a1.181,1.181,0,0,1-.781.914,1.285,1.285,0,0,1,.537,1.322m-1.161-.259c.085-.442-.227-.783-.8-.893s-.979.093-1.063.535.218.788.788.9.995-.1,1.079-.539m-1.305-2.444c-.072.377.182.671.652.76s.829-.085.9-.463-.192-.687-.663-.777-.815.087-.89.479" transform="translate(-24.827 -13.625)" fill="#fff"/>
          <path id="Trazado_605427" data-name="Trazado 605427" d="M356.623,194.91l-8.186-1.567a1.926,1.926,0,0,1-1.529-2.254l1.567-8.185a1.925,1.925,0,0,1,2.254-1.529l8.185,1.566a1.926,1.926,0,0,1,1.53,2.254l-1.567,8.186a1.926,1.926,0,0,1-2.254,1.529" transform="translate(-25.982 -13.583)" fill="#455a64"/>
          <g id="Grupo_235911" data-name="Grupo 235911" transform="translate(320.891 167.757)" opacity="0.2">
            <g id="Grupo_235910" data-name="Grupo 235910">
              <g id="Grupo_235909" data-name="Grupo 235909" clip-path="url(#clip-path-14)">
                <path id="Trazado_605428" data-name="Trazado 605428" d="M356.623,194.91l-8.186-1.567a1.926,1.926,0,0,1-1.529-2.254l1.567-8.185a1.925,1.925,0,0,1,2.254-1.529l8.185,1.566a1.926,1.926,0,0,1,1.53,2.254l-1.567,8.186a1.926,1.926,0,0,1-2.254,1.529" transform="translate(-346.873 -181.34)"/>
              </g>
            </g>
          </g>
          <path id="Trazado_605429" data-name="Trazado 605429" d="M354.625,194.528l-8.185-1.567a1.925,1.925,0,0,1-1.53-2.254l1.567-8.185a1.926,1.926,0,0,1,2.254-1.529l8.185,1.566a1.926,1.926,0,0,1,1.53,2.254L356.878,193a1.926,1.926,0,0,1-2.254,1.529" transform="translate(-25.832 -13.555)" fill="#263238"/>
          <path id="Trazado_605430" data-name="Trazado 605430" d="M354.4,188.376a2.467,2.467,0,0,1-3.057,2.2,2.724,2.724,0,0,1-1.317-.606l.59-.767a1.646,1.646,0,0,0,.885.428,1.354,1.354,0,0,0,1.682-1.185,1.739,1.739,0,0,1-1.326.212,1.611,1.611,0,0,1-1.42-1.883,1.747,1.747,0,0,1,2.206-1.3c1.382.265,2.065,1.29,1.757,2.9m-1.123-1.117a.777.777,0,0,0-.728-.908.764.764,0,1,0-.27,1.492.788.788,0,0,0,1-.585" transform="translate(-26.219 -13.889)" fill="#fff"/>
          <path id="Trazado_605431" data-name="Trazado 605431" d="M375.325,198.49l-8.187-1.567a1.926,1.926,0,0,1-1.529-2.254l1.567-8.185a1.925,1.925,0,0,1,2.254-1.529l8.185,1.566a1.927,1.927,0,0,1,1.53,2.254l-1.567,8.186a1.925,1.925,0,0,1-2.253,1.529" transform="translate(-27.383 -13.851)" fill="#455a64"/>
          <g id="Grupo_235914" data-name="Grupo 235914" transform="translate(338.192 171.069)" opacity="0.2">
            <g id="Grupo_235913" data-name="Grupo 235913">
              <g id="Grupo_235912" data-name="Grupo 235912" clip-path="url(#clip-path-7)">
                <path id="Trazado_605432" data-name="Trazado 605432" d="M375.325,198.49l-8.187-1.567a1.926,1.926,0,0,1-1.529-2.254l1.567-8.185a1.925,1.925,0,0,1,2.254-1.529l8.185,1.566a1.927,1.927,0,0,1,1.53,2.254l-1.567,8.186a1.925,1.925,0,0,1-2.253,1.529" transform="translate(-365.575 -184.92)"/>
              </g>
            </g>
          </g>
          <path id="Trazado_605433" data-name="Trazado 605433" d="M373.328,198.107l-8.185-1.566a1.926,1.926,0,0,1-1.53-2.254l1.567-8.185a1.925,1.925,0,0,1,2.254-1.529l8.185,1.566a1.925,1.925,0,0,1,1.53,2.253l-1.567,8.186a1.925,1.925,0,0,1-2.254,1.529" transform="translate(-27.233 -13.823)" fill="#263238"/>
          <rect id="Rectángulo_294578" data-name="Rectángulo 294578" width="0.466" height="5.441" transform="translate(340.43 177.235) rotate(-79.172)" fill="#fff"/>
          <path id="Trazado_605434" data-name="Trazado 605434" d="M352.993,213.872l-8.185-1.566a1.926,1.926,0,0,1-1.53-2.254l1.567-8.186a1.927,1.927,0,0,1,2.254-1.529l8.186,1.567a1.924,1.924,0,0,1,1.529,2.253l-1.567,8.186a1.925,1.925,0,0,1-2.254,1.529" transform="translate(-25.71 -15.003)" fill="#455a64"/>
          <g id="Grupo_235917" data-name="Grupo 235917" transform="translate(317.533 185.299)" opacity="0.2">
            <g id="Grupo_235916" data-name="Grupo 235916">
              <g id="Grupo_235915" data-name="Grupo 235915" clip-path="url(#clip-path-5)">
                <path id="Trazado_605435" data-name="Trazado 605435" d="M352.993,213.872l-8.185-1.566a1.926,1.926,0,0,1-1.53-2.254l1.567-8.186a1.927,1.927,0,0,1,2.254-1.529l8.186,1.567a1.924,1.924,0,0,1,1.529,2.253l-1.567,8.186a1.925,1.925,0,0,1-2.254,1.529" transform="translate(-343.243 -200.303)"/>
              </g>
            </g>
          </g>
          <path id="Trazado_605436" data-name="Trazado 605436" d="M351,213.49l-8.185-1.567a1.925,1.925,0,0,1-1.53-2.254l1.567-8.185a1.925,1.925,0,0,1,2.254-1.529l8.185,1.566a1.926,1.926,0,0,1,1.53,2.254l-1.567,8.186A1.926,1.926,0,0,1,351,213.49" transform="translate(-25.561 -14.975)" fill="#263238"/>
          <path id="Trazado_605437" data-name="Trazado 605437" d="M371.7,217.452l-8.186-1.567a1.925,1.925,0,0,1-1.529-2.254l1.567-8.185a1.925,1.925,0,0,1,2.254-1.529l8.185,1.566a1.926,1.926,0,0,1,1.53,2.254l-1.567,8.186a1.926,1.926,0,0,1-2.254,1.529" transform="translate(-27.111 -15.272)" fill="#ff725e"/>
          <g id="Grupo_235920" data-name="Grupo 235920" transform="translate(334.835 188.61)" opacity="0.4">
            <g id="Grupo_235919" data-name="Grupo 235919">
              <g id="Grupo_235918" data-name="Grupo 235918" clip-path="url(#clip-path-14)">
                <path id="Trazado_605438" data-name="Trazado 605438" d="M371.7,217.452l-8.186-1.567a1.925,1.925,0,0,1-1.529-2.254l1.567-8.185a1.925,1.925,0,0,1,2.254-1.529l8.185,1.566a1.926,1.926,0,0,1,1.53,2.254l-1.567,8.186a1.926,1.926,0,0,1-2.254,1.529" transform="translate(-361.946 -203.882)"/>
              </g>
            </g>
          </g>
          <path id="Trazado_605439" data-name="Trazado 605439" d="M369.7,217.07l-8.185-1.567a1.925,1.925,0,0,1-1.53-2.254l1.567-8.185a1.925,1.925,0,0,1,2.254-1.529l8.185,1.566a1.926,1.926,0,0,1,1.53,2.254l-1.567,8.186a1.926,1.926,0,0,1-2.254,1.529" transform="translate(-26.961 -15.243)" fill="#ff725e"/>
          <rect id="Rectángulo_294581" data-name="Rectángulo 294581" width="0.465" height="5.441" transform="translate(337.199 194.117) rotate(-79.172)" fill="#fff"/>
          <rect id="Rectángulo_294582" data-name="Rectángulo 294582" width="0.465" height="5.441" transform="translate(336.81 196.152) rotate(-79.172)" fill="#fff"/>
          <path id="Trazado_605440" data-name="Trazado 605440" d="M330.088,209.639l-24.346-4.66a2.314,2.314,0,0,1-1.837-2.707l1.479-7.729a2.314,2.314,0,0,1,2.707-1.837l24.346,4.661a2.312,2.312,0,0,1,1.837,2.707l-1.479,7.728a2.314,2.314,0,0,1-2.707,1.837" transform="translate(-22.761 -14.431)" fill="#263238"/>
          <path id="Trazado_605441" data-name="Trazado 605441" d="M319.178,201.2c.315-1.647,1.406-2.405,2.632-2.171s1.958,1.343,1.643,2.989-1.4,2.406-2.631,2.17-1.958-1.343-1.644-2.988m3.115.6c.216-1.133-.093-1.68-.671-1.79s-1.058.285-1.275,1.417.092,1.68.661,1.789,1.067-.284,1.284-1.416" transform="translate(-23.902 -14.905)" fill="#fff"/>
          <rect id="Rectángulo_294583" data-name="Rectángulo 294583" width="5.442" height="0.465" transform="matrix(0.203, -0.979, 0.979, 0.203, 321.707, 194.365)" fill="#fff"/>
          <rect id="Rectángulo_294584" data-name="Rectángulo 294584" width="0.465" height="5.442" transform="translate(319.771 191.465) rotate(-79.164)" fill="#fff"/>
          <path id="Trazado_605442" data-name="Trazado 605442" d="M350.792,114.53l-1.427,7.457-.352-.068,1.364-7.127-1.874-.359.063-.33Z" transform="translate(-26.104 -8.547)" fill="#263238"/>
          <path id="Trazado_605443" data-name="Trazado 605443" d="M356.5,123.059l-.063.33-5.05-.967.049-.255,3.812-2.606c1.092-.74,1.387-1.247,1.5-1.854.19-.992-.38-1.763-1.68-2.012a2.8,2.8,0,0,0-2.409.466l-.2-.28a3.206,3.206,0,0,1,2.682-.514c1.428.274,2.193,1.182,1.962,2.386-.134.7-.476,1.278-1.644,2.07L352,122.2Z" transform="translate(-26.321 -8.635)" fill="#263238"/>
          <path id="Trazado_605444" data-name="Trazado 605444" d="M363.042,122.485c-.237,1.236-1.278,1.942-2.918,1.628a3.416,3.416,0,0,1-2.391-1.529l.241-.218a3.146,3.146,0,0,0,2.2,1.415c1.427.273,2.307-.288,2.513-1.364s-.384-1.918-1.961-2.219l-.415-.08.049-.255,2.9-2.581-4.112-.787.063-.33,4.581.877-.049.255-2.914,2.59c1.747.334,2.447,1.352,2.208,2.6" transform="translate(-26.796 -8.701)" fill="#263238"/>
          <path id="Trazado_605445" data-name="Trazado 605445" d="M370.905,123.959l-1.619-.31-.413,2.152-.352-.068.412-2.152-4.282-.82.049-.255,5.09-4.261.415.08-5.024,4.207,3.814.73.363-1.9.352.068-.363,1.9,1.619.31Z" transform="translate(-27.314 -8.857)" fill="#263238"/>
          <path id="Trazado_605446" data-name="Trazado 605446" d="M372.834,126.73a2.058,2.058,0,0,1-.14.382l-.657,1.354-.277-.054.612-1.407a.361.361,0,0,1-.241-.411.353.353,0,0,1,.418-.284.361.361,0,0,1,.285.419" transform="translate(-27.846 -9.461)" fill="#263238"/>
          <path id="Trazado_605447" data-name="Trazado 605447" d="M380.578,125.81l-1.619-.31-.413,2.152-.352-.067.412-2.153-4.282-.82.049-.255,5.09-4.261.415.08-5.024,4.207,3.814.73.363-1.9.352.068-.363,1.9,1.619.31Z" transform="translate(-28.038 -8.996)" fill="#263238"/>
          <path id="Trazado_605448" data-name="Trazado 605448" d="M386.633,126.966c-.232,1.215-1.254,1.991-2.947,1.667a3.423,3.423,0,0,1-2.38-1.527l.251-.216a3.124,3.124,0,0,0,2.193,1.414c1.46.279,2.32-.352,2.523-1.406.22-1.151-.332-1.963-2.463-2.371l-1.449-.278,1.068-3.44,3.846.736-.064.33-3.547-.679-.867,2.794,1.151.22c2.279.437,2.939,1.435,2.686,2.756" transform="translate(-28.561 -9.049)" fill="#263238"/>
          <rect id="Rectángulo_294585" data-name="Rectángulo 294585" width="206.278" height="137.558" transform="translate(1.201 12.091)" fill="#fafafa"/>
          <rect id="Rectángulo_294586" data-name="Rectángulo 294586" width="33.937" height="13.614" transform="translate(39.482 61.307)" fill="#ff725e"/>
          <rect id="Rectángulo_294587" data-name="Rectángulo 294587" width="33.937" height="13.614" transform="translate(141.292 61.307)" fill="#ff725e"/>
          <rect id="Rectángulo_294588" data-name="Rectángulo 294588" width="33.937" height="13.614" transform="translate(141.292 88.346)" fill="#ff725e"/>
          <rect id="Rectángulo_294589" data-name="Rectángulo 294589" width="33.937" height="13.614" transform="translate(141.292 101.865)" fill="#ff725e"/>
          <rect id="Rectángulo_294590" data-name="Rectángulo 294590" width="33.937" height="13.614" transform="translate(73.418 88.59)" fill="#455a64"/>
          <rect id="Rectángulo_294591" data-name="Rectángulo 294591" width="33.937" height="13.614" transform="translate(107.3 102.369)" fill="#455a64"/>
          <rect id="Rectángulo_294592" data-name="Rectángulo 294592" width="33.937" height="14.165" transform="translate(73.418 129.375)" fill="#ebebeb"/>
          <rect id="Rectángulo_294593" data-name="Rectángulo 294593" width="33.937" height="13.614" transform="translate(141.292 129.564)" fill="#ff725e"/>
          <rect id="Rectángulo_294594" data-name="Rectángulo 294594" width="183.235" height="13.305" transform="translate(17.978 48.002)" fill="#e0e0e0"/>
          <rect id="Rectángulo_294595" data-name="Rectángulo 294595" width="32.125" height="95.823" transform="translate(7.357 48.002)" fill="#e0e0e0"/>
          <path id="Trazado_605449" data-name="Trazado 605449" d="M40.5,148.137H7.453V51.389H40.5Zm-32.125-.925h31.2v-94.9H8.378Z" transform="translate(-0.558 -3.849)" fill="#e0e0e0"/>
          <rect id="Rectángulo_294596" data-name="Rectángulo 294596" width="206.278" height="15.605" transform="translate(1.201 12.091)" fill="#ff725e"/>
          <rect id="Rectángulo_294597" data-name="Rectángulo 294597" width="31.759" height="8.931" transform="translate(7.723 33.384)" fill="#ebebeb"/>
          <rect id="Rectángulo_294598" data-name="Rectángulo 294598" width="30.628" height="8.931" transform="translate(43.201 33.384)" fill="#ebebeb"/>
          <rect id="Rectángulo_294599" data-name="Rectángulo 294599" width="30.628" height="8.931" transform="translate(76.792 33.384)" fill="#ebebeb"/>
          <rect id="Rectángulo_294600" data-name="Rectángulo 294600" width="30.628" height="8.931" transform="translate(110.383 33.384)" fill="#ebebeb"/>
          <rect id="Rectángulo_294601" data-name="Rectángulo 294601" width="30.628" height="8.931" transform="translate(143.975 33.384)" fill="#ebebeb"/>
          <rect id="Rectángulo_294602" data-name="Rectángulo 294602" width="25.176" height="8.931" transform="translate(177.567 33.384)" fill="#ebebeb"/>
          <path id="Trazado_605450" data-name="Trazado 605450" d="M7.939,147.407s.325-.009.948-.014l2.769-.014,10.716-.028,40.152-.063,139.27-.109-.228.228c0-29.547-.009-61.865-.014-95.524V51.87l.241.241L7.939,52.048l.179-.179c-.041,29.446-.073,53.309-.1,69.819-.019,8.262-.034,14.682-.044,19.046-.008,2.178-.015,3.84-.019,4.967s-.019,1.706-.019,1.706-.013-.56-.019-1.669-.011-2.772-.019-4.935c-.01-4.353-.026-10.761-.045-19.005-.022-16.536-.055-40.436-.1-69.928v-.178h.179l193.856-.062h.241v.254c0,33.659-.009,65.977-.014,95.524v.228h-.227l-139.422-.109-40.1-.062L11.6,147.435l-2.743-.014c-.614,0-.92-.014-.92-.014" transform="translate(-0.581 -3.867)" fill="#263238"/>
          <path id="Trazado_605451" data-name="Trazado 605451" d="M202.2,66.252c0,.133-43.4.241-96.923.241-53.542,0-96.932-.107-96.932-.241s43.391-.241,96.932-.241c53.524,0,96.923.107,96.923.241" transform="translate(-0.625 -4.944)" fill="#263238"/>
          <path id="Trazado_605452" data-name="Trazado 605452" d="M202.2,80.968c0,.133-43.4.241-96.923.241-53.542,0-96.932-.107-96.932-.241s43.391-.241,96.932-.241c53.524,0,96.923.107,96.923.241" transform="translate(-0.625 -6.047)" fill="#263238"/>
          <path id="Trazado_605453" data-name="Trazado 605453" d="M202.2,95.683c0,.133-43.4.241-96.923.241-53.542,0-96.932-.107-96.932-.241s43.391-.24,96.932-.24c53.524,0,96.923.107,96.923.24" transform="translate(-0.625 -7.149)" fill="#263238"/>
          <path id="Trazado_605454" data-name="Trazado 605454" d="M202.2,110.4c0,.133-43.4.241-96.923.241-53.542,0-96.932-.107-96.932-.241s43.391-.241,96.932-.241c53.524,0,96.923.107,96.923.241" transform="translate(-0.625 -8.251)" fill="#263238"/>
          <path id="Trazado_605455" data-name="Trazado 605455" d="M202.2,125.115c0,.133-43.4.241-96.923.241-53.542,0-96.932-.107-96.932-.241s43.391-.241,96.932-.241c53.524,0,96.923.107,96.923.241" transform="translate(-0.625 -9.354)" fill="#263238"/>
          <path id="Trazado_605456" data-name="Trazado 605456" d="M202.2,139.831c0,.133-43.4.24-96.923.24-53.542,0-96.932-.107-96.932-.24s43.391-.241,96.932-.241c53.524,0,96.923.107,96.923.241" transform="translate(-0.625 -10.456)" fill="#263238"/>
          <path id="Trazado_605457" data-name="Trazado 605457" d="M42.66,147.756c-.133,0-.241-21.333-.241-47.642s.107-47.646.241-47.646S42.9,73.8,42.9,100.114s-.107,47.642-.241,47.642" transform="translate(-3.177 -3.93)" fill="#263238"/>
          <path id="Trazado_605458" data-name="Trazado 605458" d="M79.345,147.47c-.133,0-.241-21.269-.241-47.5s.107-47.5.241-47.5.241,21.264.241,47.5-.107,47.5-.241,47.5" transform="translate(-5.925 -3.93)" fill="#263238"/>
          <path id="Trazado_605459" data-name="Trazado 605459" d="M116.029,147.756c-.133,0-.241-21.333-.241-47.642s.107-47.646.241-47.646.241,21.328.241,47.646-.107,47.642-.241,47.642" transform="translate(-8.673 -3.93)" fill="#263238"/>
          <path id="Trazado_605460" data-name="Trazado 605460" d="M152.714,147.756c-.133,0-.24-21.333-.24-47.642s.107-47.646.24-47.646.241,21.328.241,47.646-.107,47.642-.241,47.642" transform="translate(-11.421 -3.93)" fill="#263238"/>
          <path id="Trazado_605461" data-name="Trazado 605461" d="M189.4,147.756c-.133,0-.241-21.333-.241-47.642s.107-47.646.241-47.646.241,21.328.241,47.646-.107,47.642-.241,47.642" transform="translate(-14.169 -3.93)" fill="#263238"/>
          <path id="Trazado_605462" data-name="Trazado 605462" d="M14.015,21.34a1.969,1.969,0,1,1-1.968-2.026,2,2,0,0,1,1.968,2.026" transform="translate(-0.755 -1.447)" fill="#fff"/>
          <path id="Trazado_605463" data-name="Trazado 605463" d="M21.242,21.34a1.969,1.969,0,1,1-1.968-2.026,2,2,0,0,1,1.968,2.026" transform="translate(-1.296 -1.447)" fill="#fff"/>
          <path id="Trazado_605464" data-name="Trazado 605464" d="M28.468,21.34A1.969,1.969,0,1,1,26.5,19.314a2,2,0,0,1,1.968,2.026" transform="translate(-1.838 -1.447)" fill="#fff"/>
          <path id="Trazado_605465" data-name="Trazado 605465" d="M207.556,150.609c0-1.57-.075-53.756-.192-137.558l.192.192L1.3,13.291H1.279l.241-.241c-.007,48.988-.015,95.582-.02,137.558l-.221-.221,148.639.109,42.45.059,11.284.027,2.91.013c.655,0,.994.013.994.013s-.322.008-.969.013l-2.885.013-11.24.027-42.4.059L1.279,150.83h-.22v-.221c-.006-41.976-.013-88.57-.02-137.558v-.241H1.3l206.261.049h.192v.192c-.117,83.8-.191,135.989-.192,137.558" transform="translate(-0.078 -0.959)" fill="#263238"/>
          <path id="Trazado_605466" data-name="Trazado 605466" d="M202,188.933l-10.7,13.292-44.616,12.421,6.664,72.068c2.056,28.248,4.946,35.172,6.938,53.953V355.98H287.012l17.692-146.3L261,199.632l-9.4-10.7Z" transform="translate(-10.987 -14.152)" fill="#ff725e"/>
          <path id="Trazado_605467" data-name="Trazado 605467" d="M204.434,215.883l5.458,72.169,5.836,36.634,42.841-119.558L224.01,246.089Z" transform="translate(-15.313 -15.365)" fill="#fff"/>
          <path id="Trazado_605468" data-name="Trazado 605468" d="M215.973,329.492a2.319,2.319,0,0,1,.168-.351l.536-1.006,2.1-3.842c1.856-3.349,4.522-8.157,7.81-14.088l25.926-46.39,14.133-25.172.051.278-6.151-5.2-.227-.191.254-.15,8.764-5.168-.091.182c-.957-8.534-1.739-15.5-2.285-20.36-.257-2.4-.458-4.278-.6-5.583-.061-.622-.108-1.106-.143-1.458-.029-.329-.03-.5-.03-.5s.038.167.085.494c.048.351.113.833.2,1.452.164,1.3.4,3.176.7,5.571.585,4.855,1.422,11.815,2.448,20.342l.015.12-.1.062-8.742,5.206.029-.34,6.168,5.177.141.118-.09.161-14.1,25.19c-10.167,18.079-19.372,34.447-26.048,46.321l-7.944,14.013c-.938,1.632-1.67,2.908-2.181,3.8l-.578.982a2.3,2.3,0,0,1-.211.327" transform="translate(-16.177 -15.018)" fill="#263238"/>
          <path id="Trazado_605469" data-name="Trazado 605469" d="M213.8,329.7a1.942,1.942,0,0,1-.123-.339c-.078-.249-.181-.583-.315-1.008-.273-.915-.663-2.22-1.162-3.889-1-3.409-2.427-8.3-4.191-14.326-1.737-6.061-3.892-13.234-6.107-21.286-2.064-8.082-4.033-17.029-6.117-26.417-2.825-12.876-5.38-24.933-7.5-35.138l-.037-.178.17-.059,5.837-2.043-.026.351-7.106-3.767-.132-.07.055-.138,5.287-13.279,1.451-3.582.388-.924a1.862,1.862,0,0,1,.147-.309,1.842,1.842,0,0,1-.1.326c-.086.234-.2.546-.344.943-.323.85-.782,2.062-1.37,3.613-1.22,3.161-2.972,7.7-5.146,13.333l-.078-.208,7.129,3.723.389.2-.414.147-5.827,2.069.132-.237c2.165,10.195,4.744,22.246,7.568,35.119,2.082,9.385,4.04,18.337,6.076,26.41,2.18,8.021,4.311,15.234,6,21.3,1.7,6.047,3.082,10.951,4.044,14.37.463,1.679.823,2.993,1.077,3.913.113.431.2.769.267,1.021a1.952,1.952,0,0,1,.076.352" transform="translate(-14.007 -15.228)" fill="#263238"/>
          <path id="Trazado_605470" data-name="Trazado 605470" d="M140.351,216.729s-9.813,4.775-16.727,26.771c-5.023,15.982-25.453,71.018-25.453,71.018l-22.625-6.6s-16.655,20.739-12.884,27.966S94,358.061,94,358.061h32.277a26.5,26.5,0,0,0,9.226-13.447l18.456-62.149Z" transform="translate(-4.652 -16.234)" fill="#ff725e"/>
          <path id="Trazado_605471" data-name="Trazado 605471" d="M315.977,211.361a39.76,39.76,0,0,1,14.2,14.591c5.637,10.021,50.618,83.23,54.347,100.589,5.566,25.927-5.556,31.094-5.556,31.094H363.427l-38.475-.218L320.1,327.305l17.1-3.649L305.5,288.5l-2.1,3.585L297.2,241.9Z" transform="translate(-22.261 -15.832)" fill="#ff725e"/>
          <path id="Trazado_605472" data-name="Trazado 605472" d="M151.095,249.406c.132-.011,1.278,12.439,2.56,27.8s2.213,27.835,2.081,27.846-1.278-12.436-2.561-27.807-2.212-27.832-2.08-27.844" transform="translate(-11.317 -18.682)" fill="#263238"/>
          <path id="Trazado_605473" data-name="Trazado 605473" d="M314.368,234.346c.132.016-1.64,15.55-3.958,34.691s-4.305,34.653-4.437,34.637,1.639-15.546,3.959-34.694,4.3-34.649,4.436-34.634" transform="translate(-22.918 -17.553)" fill="#263238"/>
          <path id="Trazado_605474" data-name="Trazado 605474" d="M327.537,366.587c-.012-.012.15-.191.436-.552s.692-.9,1.155-1.646a26.954,26.954,0,0,0,2.978-6.735,32.85,32.85,0,0,0,1.071-4.981,23.372,23.372,0,0,0,.253-5.806,13.7,13.7,0,0,0-2.144-5.961,16.181,16.181,0,0,0-4.877-4.773c-.139-.087-.286-.173-.412-.241l-.514-.281.559-.164a120.942,120.942,0,0,1,23.763-4.435c3.08-.263,5.576-.379,7.3-.433.862-.031,1.532-.035,1.985-.041a3.967,3.967,0,0,1,.694.02,3.721,3.721,0,0,1-.69.076l-1.98.13c-1.72.111-4.209.279-7.278.585a129,129,0,0,0-23.66,4.561l.044-.445c.149.081.294.166.442.259a16.542,16.542,0,0,1,5.02,4.925,14.07,14.07,0,0,1,2.189,6.169,23.41,23.41,0,0,1-.3,5.914,32.3,32.3,0,0,1-1.142,5.021,25.579,25.579,0,0,1-3.147,6.739,15.307,15.307,0,0,1-1.238,1.6,2.674,2.674,0,0,1-.51.49" transform="translate(-24.38 -24.759)" fill="#263238"/>
          <path id="Trazado_605475" data-name="Trazado 605475" d="M216.075,367.264c-.133,0-.24-6.2-.24-13.843s.107-13.845.24-13.845.241,6.2.241,13.845-.107,13.843-.241,13.843" transform="translate(-16.167 -25.436)" fill="#263238"/>
          <path id="Trazado_605476" data-name="Trazado 605476" d="M291.016,302.343a6.523,6.523,0,0,1-.029-.657c-.009-.454-.02-1.068-.035-1.848-.019-1.631-.045-3.951-.079-6.872l.142.142-38.338.1c.106-.107-.242.24.239-.241v2.393q0,1.189,0,2.364,0,2.346,0,4.62l-.237-.236,27.288.106,8.082.067,2.19.031.575.015a1.185,1.185,0,0,1,.205.016,6.127,6.127,0,0,1-.721.031l-2.139.031-8.027.068-27.454.106h-.236v-.237q0-2.272,0-4.62,0-1.174,0-2.364v-2.393c.482-.482.135-.133.243-.241l38.338.1h.144l0,.142c-.033,2.957-.06,5.305-.079,6.957-.015.766-.026,1.369-.035,1.816a4.759,4.759,0,0,1-.029.6" transform="translate(-18.908 -21.925)" fill="#263238"/>
          <path id="Trazado_605477" data-name="Trazado 605477" d="M150.679,243c-.13.028-1.388-5.32-2.808-11.944s-2.466-12.019-2.336-12.047,1.387,5.319,2.807,11.945,2.467,12.018,2.337,12.046" transform="translate(-10.9 -16.405)" fill="#263238"/>
          <g id="Grupo_235923" data-name="Grupo 235923" transform="translate(201.921 213.36)" opacity="0.3">
            <g id="Grupo_235922" data-name="Grupo 235922">
              <g id="Grupo_235921" data-name="Grupo 235921" clip-path="url(#clip-path-19)">
                <path id="Trazado_605478" data-name="Trazado 605478" d="M218.27,327.959l54.721-83.93-7.9-7.629,4.514-5.764-8.753,5.187,6.159,5.187Z" transform="translate(-218.27 -230.636)"/>
              </g>
            </g>
          </g>
          <g id="Grupo_235926" data-name="Grupo 235926" transform="translate(66.745 313.498)" opacity="0.3">
            <g id="Grupo_235925" data-name="Grupo 235925">
              <g id="Grupo_235924" data-name="Grupo 235924" clip-path="url(#clip-path-20)">
                <path id="Trazado_605479" data-name="Trazado 605479" d="M72.149,338.882v4.662l62.11.2v-4.858Z" transform="translate(-72.149 -338.882)"/>
              </g>
            </g>
          </g>
          <path id="Trazado_605480" data-name="Trazado 605480" d="M153.943,146.906a9.2,9.2,0,0,0,8.646-3.861c-2.23.342-4.633.66-6.642-.366s-3.147-3.985-1.573-5.6c1.23-1.26,3.256-1.043,5.013-1.172a10.84,10.84,0,0,0,9.22-7.077c1.487-4.271.128-8.929-.407-13.419A36.961,36.961,0,0,1,183.673,81.3L211.8,65.036C222,78.093,225.185,95.69,223.07,112.124S213.983,144.006,205.6,158.3a54.839,54.839,0,0,1-8.488,11.679c-3.445,3.381-7.841,5.987-12.641,6.486a13.038,13.038,0,0,1,2.081-11.772,28.39,28.39,0,0,1-20.919-7.493l6.029-4.624a22.017,22.017,0,0,1-17.722-5.671" transform="translate(-11.508 -4.871)" fill="#263238"/>
          <path id="Trazado_605481" data-name="Trazado 605481" d="M264.28,101.1c-.495-11.755-7.815-21.595-19.128-24.827L209.888,66.2c-15.3-2.1-26.1,16.5-27.54,31.875-1.605,17.087-2.809,35.131-1.174,47.967,3.29,25.811,22.876,29.685,22.876,29.685,0-.038-.653,23.262-.855,30.765l17.938,37.505,34.759-47.974,8.47-94.607c.022-.439-.056.272-.081-.315" transform="translate(-13.512 -4.946)" fill="#af7e69"/>
          <path id="Trazado_605482" data-name="Trazado 605482" d="M189.831,123.441a3.3,3.3,0,0,0,3.074,3.422A3.152,3.152,0,0,0,196.392,124a3.3,3.3,0,0,0-3.07-3.423,3.154,3.154,0,0,0-3.49,2.867" transform="translate(-14.219 -9.031)" fill="#263238"/>
          <path id="Trazado_605483" data-name="Trazado 605483" d="M186.36,111.4c.4.442,2.947-1.328,6.492-1.209,3.542.067,6.087,1.97,6.486,1.549.194-.187-.2-.975-1.305-1.834a9.04,9.04,0,0,0-5.175-1.772,8.672,8.672,0,0,0-5.183,1.5c-1.117.8-1.51,1.568-1.315,1.767" transform="translate(-13.956 -8.099)" fill="#263238"/>
          <path id="Trazado_605484" data-name="Trazado 605484" d="M222.232,123.442a3.3,3.3,0,0,0,3.074,3.421A3.152,3.152,0,0,0,228.793,124a3.3,3.3,0,0,0-3.071-3.423,3.155,3.155,0,0,0-3.489,2.868" transform="translate(-16.646 -9.031)" fill="#263238"/>
          <path id="Trazado_605485" data-name="Trazado 605485" d="M222.752,112.437c.4.442,2.952-1.328,6.494-1.209,3.541.068,6.087,1.97,6.485,1.549.194-.186-.193-.974-1.305-1.834a9.044,9.044,0,0,0-5.175-1.772,8.694,8.694,0,0,0-5.184,1.5c-1.113.8-1.508,1.569-1.315,1.767" transform="translate(-16.681 -8.177)" fill="#263238"/>
          <path id="Trazado_605486" data-name="Trazado 605486" d="M209.192,140.069c.022-.2-2.169-.648-5.725-1.216-.9-.121-1.753-.327-1.887-.949a4.607,4.607,0,0,1,.687-2.665q1.378-3.246,2.888-6.81c4.019-9.7,6.959-17.686,6.567-17.843s-3.969,7.574-7.987,17.273q-1.454,3.587-2.778,6.854c-.375,1.018-1,2.167-.578,3.538a2.27,2.27,0,0,0,1.447,1.369,6.143,6.143,0,0,0,1.531.261c3.588.3,5.816.389,5.836.187" transform="translate(-14.999 -8.283)" fill="#263238"/>
          <path id="Trazado_605487" data-name="Trazado 605487" d="M240.282,175.776s-8.863,17.406-34.5,14.21l.166-6.043a64.734,64.734,0,0,0,34.331-8.168" transform="translate(-15.414 -13.166)" fill="#7c5142"/>
          <path id="Trazado_605488" data-name="Trazado 605488" d="M224.353,100.143c.319.974,3.872.626,8.016,1.255,4.156.547,7.472,1.867,8.05,1.019.26-.406-.3-1.331-1.624-2.305a14.109,14.109,0,0,0-12.241-1.735c-1.546.569-2.337,1.3-2.2,1.765" transform="translate(-16.804 -7.317)" fill="#263238"/>
          <path id="Trazado_605489" data-name="Trazado 605489" d="M187.942,99.7c.6.823,3.066.064,6,.115,2.941-.053,5.407.708,6-.117.264-.4-.1-1.219-1.167-2.016a8.691,8.691,0,0,0-9.676,0c-1.064.8-1.429,1.614-1.166,2.016" transform="translate(-14.071 -7.206)" fill="#263238"/>
          <path id="Trazado_605490" data-name="Trazado 605490" d="M223.552,149.643a4.625,4.625,0,0,0-4.679-3.649,4.837,4.837,0,0,0-3.794,2.538,5.947,5.947,0,0,0-.343,4.621l.065.334a5.27,5.27,0,0,0,5.893,1.431,4.926,4.926,0,0,0,2.859-5.276" transform="translate(-16.061 -10.935)" fill="#7c5142"/>
          <path id="Trazado_605491" data-name="Trazado 605491" d="M212.051,153.3c.011-.538,3.59-.265,6.371-3.129s2.687-6.707,3.19-6.695c.228-.032.628.9.546,2.518a8.939,8.939,0,0,1-2.459,5.6,7.789,7.789,0,0,1-5.325,2.394c-1.508.019-2.364-.45-2.323-.693" transform="translate(-15.883 -10.747)" fill="#263238"/>
          <path id="Trazado_605492" data-name="Trazado 605492" d="M251.362,58.516c-3.968-6.3-13.34-12.883-20.677-14.165-8.363-1.463-13.4-.029-18.9,4.993,0,0-4.28,4.13-8.291,4.909s-7.364.118-12.149,2.566c-6.536,3.343-9.4,12.083-12.43,18.77-3.763,8.31-9.126,15.958-11.58,24.744s-1.149,19.582,6.256,24.913c-1.27-6.732-2.328-14.139.446-20.233a17.668,17.668,0,0,0,.449,7.293c1.386-3.955,2.846-8.034,5.716-11.086,2.708-2.879,6.451-4.6,9.241-7.4,4.1-4.113,5.985-10.382,10.965-13.367,5.181-3.1,11.733-1.556,17.773-1.527a34.052,34.052,0,0,0,26.476-12.756l-1.5-.127a42.157,42.157,0,0,0,8.21-7.529" transform="translate(-12.449 -3.281)" fill="#263238"/>
          <path id="Trazado_605493" data-name="Trazado 605493" d="M294.43,122.382c-2.305-7.554-6.354-14.47-8.886-21.952-2.467-7.287-3.486-15.075-6.762-22.036C274.376,69.03,266.139,56.9,253.3,57.569l-.876.771a27.43,27.43,0,0,0-12.935,1.544l-.2,10-2.46,2.163c1.031,1.985,2.007,3.906,2.953,5.791a63.2,63.2,0,0,0,3.272,11.011,28.538,28.538,0,0,0,6.157,9.362c22.108,52.926,2.056,56.27,12.015,86.6l6.265-17.366a30.948,30.948,0,0,0,12.391-13.347l1.1,5.5A31.908,31.908,0,0,0,289.63,139.9l2.873,5.28c4.547-6.458,4.232-15.24,1.926-22.794" transform="translate(-17.74 -4.31)" fill="#263238"/>
          <path id="Trazado_605494" data-name="Trazado 605494" d="M258.268,125.425c.344-.861,16.323-6.118,16.053,10.7-.263,16.338-16.65,12.653-16.67,12.183s.617-22.882.617-22.882" transform="translate(-19.299 -9.286)" fill="#af7e69"/>
          <path id="Trazado_605495" data-name="Trazado 605495" d="M263.227,142.651c.073-.05.281.205.758.434a2.84,2.84,0,0,0,2.127.085c1.737-.6,3.243-3.312,3.379-6.256a9.393,9.393,0,0,0-.719-4.089,3.287,3.287,0,0,0-2.1-2.226,1.447,1.447,0,0,0-1.694.747c-.228.452-.13.781-.217.808-.047.04-.346-.281-.2-.953a1.807,1.807,0,0,1,.662-1.011,2.142,2.142,0,0,1,1.581-.386,4,4,0,0,1,2.924,2.589,9.655,9.655,0,0,1,.9,4.573c-.167,3.29-1.912,6.338-4.286,6.975a3.05,3.05,0,0,1-2.595-.482c-.5-.414-.577-.781-.52-.809" transform="translate(-19.716 -9.721)" fill="#7c5142"/>
          <path id="Trazado_605496" data-name="Trazado 605496" d="M264.926,146.868a3.215,3.215,0,1,1-.77.22" transform="translate(-19.642 -10.998)" fill="#fff"/>
          <path id="Trazado_605497" data-name="Trazado 605497" d="M264.134,147.078a4.4,4.4,0,0,0-1.531,2.152,2.767,2.767,0,0,0,.565,2.582,2.857,2.857,0,0,0,5.068-1.456,2.771,2.771,0,0,0-.892-2.489,4.389,4.389,0,0,0-2.441-1.009c-.008-.041.255-.162.771-.159a3.34,3.34,0,0,1,2.018.772,3.266,3.266,0,0,1,1.226,2.983,3.51,3.51,0,0,1-6.275,1.8,3.271,3.271,0,0,1-.545-3.179,3.345,3.345,0,0,1,1.3-1.724c.435-.277.723-.314.736-.275" transform="translate(-19.618 -10.988)" fill="#263238"/>
          <path id="Trazado_605498" data-name="Trazado 605498" d="M238.24,76.17c.325.129,1.834-5.408,6.385-10.546,4.478-5.206,9.761-7.448,9.589-7.752-.047-.117-1.424.274-3.445,1.38a26.487,26.487,0,0,0-11.627,13.318c-.823,2.153-1.024,3.569-.9,3.6" transform="translate(-17.843 -4.333)" fill="#455a64"/>
          <path id="Trazado_605499" data-name="Trazado 605499" d="M76.03,338.1,63.838,323.773s-8.555,0-12.833-4.064-12.192-7.913-8.984-15.185c0,0-3.846-4.492-.746-9.411l.1-1.284s-9.626-4.064-6.845-8.983,8.128-2.781,8.128-2.781-10.511-7.1-12.406-9.047c-5.065-5.2.38-8.7,6.015-5.589,9.319,5.153,40.826,19.984,42.965,30.679v4.659s8.769,10.74,8.769,11.382S87.366,331.473,76.03,338.1" transform="translate(-2.116 -19.943)" fill="#af7e69"/>
          <path id="Trazado_605500" data-name="Trazado 605500" d="M13.275,227.071c-.386-.482,47.846,77.262,47.846,77.262l2.189,26.085h75.267l-6.983-29.694s-13.011-34.878-12.864-35.285c.287-.792-24.349-39.551-24.349-39.551Z" transform="translate(-0.994 -16.92)" fill="#fff"/>
          <path id="Trazado_605501" data-name="Trazado 605501" d="M13.275,227.055s.505-.025,1.476-.048l4.287-.089,16.335-.29,59-.95.109,0,.058.093c6.448,10.167,13.538,21.309,20.885,33.345.911,1.51,1.829,3.031,2.713,4.593.219.393.438.784.639,1.2a2.7,2.7,0,0,1,.144.342.394.394,0,0,1,.026.167c-.019.122.006.078.012.087s.009,0,.008,0l.023.078.2.634q.443,1.274.889,2.558l3.773,10.376,7.96,21.475.006.014,0,.015c2.119,9.007,4.342,18.454,6.6,28.068.128.545.256,1.09.382,1.624l.069.3h-.3l-75.267-.019h-.2l-.017-.2q-1.139-13.689-2.172-26.087l.03.091c-14.382-23.266-26.325-42.588-34.681-56.1-4.153-6.759-7.413-12.064-9.641-15.69-1.1-1.808-1.941-3.2-2.516-4.141l-.634-1.067a2.428,2.428,0,0,1-.2-.369l48.019,77.154.026.042,0,.049q1.048,12.382,2.206,26.084l-.22-.2,75.267-.02-.234.3c-.126-.535-.254-1.08-.382-1.624-2.26-9.615-4.481-19.063-6.6-28.069l.008.029-7.949-21.482q-1.908-5.259-3.766-10.383-.447-1.289-.89-2.569l-.205-.655-.025-.084a.922.922,0,0,1-.02-.164v-.082c-.169-.073.246.056.145.024a.342.342,0,0,0-.129-.019c-.064.006-.014.039-.028.031l-.011-.03a2.537,2.537,0,0,0-.118-.278c-.191-.392-.408-.784-.624-1.173-.877-1.553-1.793-3.075-2.7-4.583-7.33-12.036-14.406-23.19-20.834-33.366l.168.091-59.08.771-16.312.185-4.265.036c-.962.006-1.451-.006-1.451-.006" transform="translate(-0.994 -16.904)" fill="#263238"/>
          <path id="Trazado_605502" data-name="Trazado 605502" d="M114.639,270.635a3.465,3.465,0,0,1-.673.03l-1.926-.008-7.08-.134c-5.977-.136-14.233-.363-23.351-.51s-17.38-.13-23.351.059c-2.986.08-5.4.2-7.069.3l-1.921.111a3.515,3.515,0,0,1-.673.006,3.475,3.475,0,0,1,.664-.1l1.916-.2c1.666-.153,4.082-.328,7.071-.452,5.978-.277,14.245-.338,23.372-.2s17.38.428,23.354.651l7.075.287,1.923.1a3.574,3.574,0,0,1,.67.068" transform="translate(-3.64 -20.184)" fill="#263238"/>
          <path id="Trazado_605503" data-name="Trazado 605503" d="M126.142,307.693c-.016.132-10.661-1.031-23.773-2.6s-23.735-2.943-23.719-3.075,10.658,1.031,23.775,2.6,23.732,2.943,23.717,3.075" transform="translate(-5.891 -22.622)" fill="#263238"/>
          <path id="Trazado_605504" data-name="Trazado 605504" d="M55.02,312.919l14.083-.9c1.481-.094,3.108-.253,4.14-1.32,1.284-1.327.656-4.339-.964-5.228l-16.136-3.888" transform="translate(-4.121 -22.59)" fill="#af7e69"/>
          <path id="Trazado_605505" data-name="Trazado 605505" d="M56.141,301.587a7.218,7.218,0,0,1,1.247.215l3.408.749,11.537,2.7.032.007.026.015a3.35,3.35,0,0,1,1.353,1.559,4.562,4.562,0,0,1,.417,2.056,2.931,2.931,0,0,1-.832,2.066,4.19,4.19,0,0,1-1.892,1,23.127,23.127,0,0,1-3.877.4l-6.524.364-4.4.2a10.452,10.452,0,0,1-1.618.009,10.293,10.293,0,0,1,1.606-.2l4.391-.356,6.517-.467a23.641,23.641,0,0,0,3.785-.412A3.727,3.727,0,0,0,73,310.6a2.457,2.457,0,0,0,.683-1.737,3.624,3.624,0,0,0-1.515-3.184l.058.023-11.5-2.857-3.375-.885a7.221,7.221,0,0,1-1.208-.377" transform="translate(-4.121 -22.59)" fill="#7c5142"/>
          <path id="Trazado_605506" data-name="Trazado 605506" d="M61.066,296.124a69.353,69.353,0,0,1,12.51,3.526,2.775,2.775,0,0,1,1.849,3.227A2.239,2.239,0,0,1,74.5,304.6a4.456,4.456,0,0,1-1.974.546,51.013,51.013,0,0,1-11.971-.727c-4.033-.558-9.623,0-11.96,1.233" transform="translate(-3.64 -22.181)" fill="#af7e69"/>
          <path id="Trazado_605507" data-name="Trazado 605507" d="M48.595,305.65a1.667,1.667,0,0,1,.4-.241,9.12,9.12,0,0,1,1.241-.479,22.769,22.769,0,0,1,4.807-.83,30.08,30.08,0,0,1,3.373-.07,37.43,37.43,0,0,1,3.847.4,51.47,51.47,0,0,0,8.752.579,18.926,18.926,0,0,0,2.27-.208,2.133,2.133,0,0,0,1.657-1.042,2.878,2.878,0,0,0-.751-3.543,9.2,9.2,0,0,0-1.764-.763l-1.756-.628c-1.137-.394-2.2-.735-3.185-1.028-1.961-.585-3.572-.978-4.687-1.24a15.39,15.39,0,0,1-1.73-.429,1.657,1.657,0,0,1,.462.036c.3.038.741.108,1.306.21,1.13.205,2.76.549,4.743,1.1.992.273,2.071.6,3.219.975l1.772.61a9.336,9.336,0,0,1,1.87.794,2.735,2.735,0,0,1,1.191,1.849,3.933,3.933,0,0,1-.266,2.272,2.055,2.055,0,0,1-.849.9,3.811,3.811,0,0,1-1.137.4,18.994,18.994,0,0,1-2.343.218,49.285,49.285,0,0,1-8.832-.621c-1.349-.191-2.609-.389-3.806-.437a31.345,31.345,0,0,0-3.333.012,25.642,25.642,0,0,0-4.778.67c-1.107.279-1.669.579-1.689.539" transform="translate(-3.64 -22.18)" fill="#7c5142"/>
          <path id="Trazado_605508" data-name="Trazado 605508" d="M44.468,283.51l11.1,6.193A11.294,11.294,0,0,1,60,293.281c1,1.638.92,4.108-.688,5.158-1.261.824-2.922.514-4.382.144a107.438,107.438,0,0,1-12.21-3.88" transform="translate(-3.2 -21.236)" fill="#af7e69"/>
          <path id="Trazado_605509" data-name="Trazado 605509" d="M42.717,294.7a11.475,11.475,0,0,1,1.56.486c1,.334,2.434.822,4.227,1.373s3.938,1.171,6.343,1.772a6.854,6.854,0,0,0,3.705.209,2.576,2.576,0,0,0,1.431-1.167,3.546,3.546,0,0,0,.423-1.913,4.908,4.908,0,0,0-1.785-3.451,17.212,17.212,0,0,0-3.189-2.131l-5.738-3.26-3.847-2.234a10.573,10.573,0,0,1-1.379-.876,10.391,10.391,0,0,1,1.47.712l3.923,2.1,5.788,3.169a17.252,17.252,0,0,1,3.29,2.17,6.538,6.538,0,0,1,1.349,1.647,4.816,4.816,0,0,1,.6,2.132,3.993,3.993,0,0,1-.489,2.173A3.045,3.045,0,0,1,58.7,298.99a7.18,7.18,0,0,1-3.967-.226c-2.408-.626-4.553-1.28-6.338-1.877s-3.209-1.133-4.187-1.521c-.488-.2-.865-.353-1.118-.467a1.416,1.416,0,0,1-.377-.2" transform="translate(-3.2 -21.236)" fill="#7c5142"/>
          <path id="Trazado_605510" data-name="Trazado 605510" d="M327.681,364.415l-5.276-1.492-16.766-1.564-4.688-6.232,3.267-13.45,20.951-4.983c9.677,6.882,7.064,18.353,2.513,27.721" transform="translate(-22.542 -25.22)" fill="#af7e69"/>
          <path id="Trazado_605511" data-name="Trazado 605511" d="M276.2,330.157a14.44,14.44,0,0,0-5.885.462,7.81,7.81,0,0,0-4.661,6.1c-.542,4.314-.712,7.811-1.021,11.826a3.778,3.778,0,0,0,1.1,2.837c1.318,1.347,3.715.9,5.077-.406s1.975-3.177,2.631-4.944,1.352-6,2.376-6.366c2.919-1.052,6.89,3.975,9.085,1.509l3.982-9.712c-6.169-.6-6.512-.708-12.679-1.312" transform="translate(-19.822 -24.723)" fill="#af7e69"/>
          <path id="Trazado_605512" data-name="Trazado 605512" d="M276.187,330.151a.808.808,0,0,1,.227,0l.659.041,2.528.209,9.282.891.234.022-.089.219c-1.145,2.828-2.479,6.121-3.941,9.727l-.013.033-.026.03a2.269,2.269,0,0,1-1.911.746,6.046,6.046,0,0,1-1.97-.595,21.53,21.53,0,0,0-3.735-1.624l-.493-.079-.49,0a3.772,3.772,0,0,0-.474.1c-.17.031-.208.1-.326.216a6.524,6.524,0,0,0-.824,1.9c-.435,1.385-.713,2.847-1.238,4.3a17.518,17.518,0,0,1-1.715,3.773,5.876,5.876,0,0,1-1.428,1.513,4.8,4.8,0,0,1-1.9.8,3.672,3.672,0,0,1-2.036-.177,3.29,3.29,0,0,1-1.5-1.337,3.983,3.983,0,0,1-.614-1.856c-.015-.677.078-1.234.109-1.846.178-2.389.335-4.663.544-6.788q.154-1.593.339-3.07a8.277,8.277,0,0,1,.727-2.792,7.466,7.466,0,0,1,6.926-4.5,17.409,17.409,0,0,1,2.341.044c.266.023.469.046.605.068a.655.655,0,0,1,.2.043,6.763,6.763,0,0,1-.814-.013,21.623,21.623,0,0,0-2.325.045,7.961,7.961,0,0,0-3.484.935,7.738,7.738,0,0,0-3.144,3.519,7.952,7.952,0,0,0-.668,2.694q-.169,1.472-.311,3.064c-.19,2.12-.332,4.391-.5,6.784-.028.585-.118,1.235-.1,1.785a3.536,3.536,0,0,0,.552,1.639,2.821,2.821,0,0,0,1.291,1.15,3.194,3.194,0,0,0,1.775.143,4.577,4.577,0,0,0,3.014-2.113,17.235,17.235,0,0,0,1.661-3.671c.5-1.389.788-2.863,1.231-4.271a6.774,6.774,0,0,1,.919-2.063,1.133,1.133,0,0,1,.241-.227.793.793,0,0,1,.308-.138,4.288,4.288,0,0,1,.572-.115c.191,0,.385-.009.574,0l.553.09a21.391,21.391,0,0,1,3.823,1.668,5.674,5.674,0,0,0,1.811.563,1.819,1.819,0,0,0,1.552-.59l-.039.062c1.49-3.595,2.852-6.877,4.02-9.7l.145.242c-3.918-.4-7.082-.793-9.269-1.047l-2.518-.3-.654-.09a.752.752,0,0,1-.221-.047" transform="translate(-19.804 -24.717)" fill="#7c5142"/>
          <path id="Trazado_605513" data-name="Trazado 605513" d="M312.025,331.076s-2.079-.648-4.89,1.4c0,0-1.051-4.625-4.745-5.535-2.68-.661-6.09,2.09-6.09,2.09s-2.314-4.627-8.484-2.7c-5.1,1.595-15.811,33.25-16.731,35.373-1.053,2.429,3.277,5.473,5.664,3.021,2.5-2.571,10.915-16.631,10.915-16.631l-5.593,19.72a3.783,3.783,0,0,0,.055,1.948,4.112,4.112,0,0,0,7.338.576c3.471-4.7,7.008-14.392,7.008-14.392l3.411-7.436s-6.366,19.7-4.053,21.5,5.284,1.1,7.4-3.527,9.834-19.281,9.834-19.281l3.663-1.928-1.35,4.627s-7.016,3.663-5.436,6.941,4.888,2.3,8.135.772,6.077-9.145,7.812-12.276c1.552-2.8,1.7-11.038-4.952-11.352a5.082,5.082,0,0,0-3.809,1.518l-.332.332s-1.09-4.1-4.776-4.759" transform="translate(-20.293 -24.408)" fill="#af7e69"/>
          <path id="Trazado_605514" data-name="Trazado 605514" d="M312.009,331.065s.149.023.441.088a2.676,2.676,0,0,1,.536.164,4.075,4.075,0,0,1,.713.324,7.136,7.136,0,0,1,3.158,4.164l-.125-.034a5.467,5.467,0,0,1,3.41-1.862,6.188,6.188,0,0,1,4.516,1.383,7.43,7.43,0,0,1,2.2,5.077,11.621,11.621,0,0,1-.2,3.1,7.479,7.479,0,0,1-.49,1.564c-.228.521-.508.972-.746,1.486-.986,2.008-1.934,4.181-3.15,6.353a20.849,20.849,0,0,1-2.124,3.184,7.629,7.629,0,0,1-1.459,1.372,11.907,11.907,0,0,1-1.831.895,8.932,8.932,0,0,1-4.09.846,3.479,3.479,0,0,1-2.01-.89,4.269,4.269,0,0,1-.714-.866l-.275-.489c-.067-.181-.124-.371-.184-.557a3.161,3.161,0,0,1,.448-2.235,7.905,7.905,0,0,1,1.461-1.756,19.175,19.175,0,0,1,3.78-2.664l-.1.12c.414-1.423.875-3.014,1.344-4.629l.291.238-3.662,1.932.087-.087-5.672,10.941q-1.431,2.841-2.9,5.764l-1.431,2.97a10.178,10.178,0,0,1-1.937,2.8,4.4,4.4,0,0,1-3.181,1.378,4.031,4.031,0,0,1-1.724-.5,4.407,4.407,0,0,1-.755-.5,1.63,1.63,0,0,1-.442-.883,11.564,11.564,0,0,1,.068-3.526c.155-1.158.371-2.31.612-3.46.99-4.6,2.311-9.2,3.77-13.841l.446.173-3.41,7.436.007-.018c-.777,2.092-1.687,4.3-2.675,6.5-.733,1.618-1.505,3.211-2.358,4.756q-.642,1.157-1.359,2.267a8.987,8.987,0,0,1-1.712,2.056,4.234,4.234,0,0,1-2.522.979,4.546,4.546,0,0,1-2.574-.779,3.839,3.839,0,0,1-1.64-2.122,4.018,4.018,0,0,1-.11-1.349,6.477,6.477,0,0,1,.291-1.279l5.4-19.025.419.18q-3.212,5.329-6.432,10.334c-1.082,1.661-2.166,3.294-3.318,4.857a7.1,7.1,0,0,1-2.072,2.1,3.468,3.468,0,0,1-2.924.025,4.179,4.179,0,0,1-2.136-1.945,2.609,2.609,0,0,1-.229-1.471c.133-.519.316-.891.471-1.329q.942-2.568,1.855-5.057c1.226-3.315,2.439-6.51,3.661-9.565s2.447-5.971,3.7-8.724a68.765,68.765,0,0,1,3.993-7.677,12.2,12.2,0,0,1,2.547-3.114,2.8,2.8,0,0,1,.885-.476l.929-.238a9.713,9.713,0,0,1,1.864-.2,6.508,6.508,0,0,1,5.755,3.245l-.186-.041a11.393,11.393,0,0,1,4.039-2.045,4.61,4.61,0,0,1,2.043-.066,5.138,5.138,0,0,1,1.728.747,7.034,7.034,0,0,1,2.176,2.427,10.248,10.248,0,0,1,.987,2.463l-.1-.037a7.211,7.211,0,0,1,3.664-1.459,3.105,3.105,0,0,1,1.263.11s-.1-.02-.308-.044a4.621,4.621,0,0,0-.95,0,7.276,7.276,0,0,0-3.595,1.5l-.074.055-.024-.092a10.206,10.206,0,0,0-1-2.413,6.9,6.9,0,0,0-2.143-2.35,4.977,4.977,0,0,0-1.667-.706,4.419,4.419,0,0,0-1.951.078,11.228,11.228,0,0,0-3.935,2.026l-.114.087-.072-.127A6.253,6.253,0,0,0,290.639,326a9.444,9.444,0,0,0-1.8.2l-.9.236a2.5,2.5,0,0,0-.792.433,11.991,11.991,0,0,0-2.458,3.043,69.1,69.1,0,0,0-3.944,7.654c-1.241,2.75-2.457,5.664-3.666,8.719s-2.416,6.249-3.634,9.565l-1.845,5.061c-.15.422-.355.883-.448,1.257a2.194,2.194,0,0,0,.2,1.219,3.772,3.772,0,0,0,1.92,1.732,3.039,3.039,0,0,0,2.566-.017,6.8,6.8,0,0,0,1.917-1.973c1.138-1.548,2.217-3.18,3.294-4.838,2.146-3.325,4.277-6.779,6.411-10.328l.889-1.478-.47,1.659c-1.738,6.138-3.538,12.494-5.386,19.02a6.205,6.205,0,0,0-.277,1.2,3.544,3.544,0,0,0,.1,1.188,3.371,3.371,0,0,0,1.443,1.844,4.079,4.079,0,0,0,2.294.7,3.752,3.752,0,0,0,2.233-.873,8.527,8.527,0,0,0,1.613-1.947q.7-1.091,1.34-2.236c.844-1.529,1.612-3.112,2.341-4.722.982-2.183,1.891-4.39,2.662-6.463l0-.01,0-.007c1.17-2.552,2.332-5.084,3.411-7.436l.446.174c-1.456,4.624-2.779,9.223-3.765,13.79-.24,1.143-.454,2.285-.609,3.426a11.244,11.244,0,0,0-.078,3.361,1.222,1.222,0,0,0,.293.636,3.941,3.941,0,0,0,.669.443,3.557,3.557,0,0,0,1.525.444,3.946,3.946,0,0,0,2.845-1.247c1.574-1.526,2.261-3.709,3.283-5.635l2.917-5.765,5.693-10.936.031-.057.057-.031,3.665-1.923.427-.224-.135.462c-.473,1.613-.939,3.2-1.355,4.625l-.023.079-.076.042a18.9,18.9,0,0,0-3.7,2.594,7.5,7.5,0,0,0-1.4,1.665,2.791,2.791,0,0,0-.413,1.962,3.384,3.384,0,0,0,2.859,2.526,8.628,8.628,0,0,0,3.919-.808,11.759,11.759,0,0,0,1.772-.856,7.322,7.322,0,0,0,1.4-1.305,20.7,20.7,0,0,0,2.1-3.125c1.214-2.15,2.169-4.313,3.168-6.325.236-.5.539-1,.749-1.475a7.208,7.208,0,0,0,.478-1.5,11.337,11.337,0,0,0,.208-3.029,7.2,7.2,0,0,0-2.09-4.929,6,6,0,0,0-4.346-1.364,5.321,5.321,0,0,0-3.326,1.783l-.086.094-.04-.129a6.265,6.265,0,0,0-4.7-4.777" transform="translate(-20.277 -24.398)" fill="#7c5142"/>
          <path id="Trazado_605515" data-name="Trazado 605515" d="M305.621,339.937a22.874,22.874,0,0,1-1.765,6.169c-.639,1.654-1.27,3.126-1.736,4.187a7.735,7.735,0,0,1-.839,1.685,40.485,40.485,0,0,1,2.127-6.045c.636-1.646,1.183-3.144,1.555-4.237a9.1,9.1,0,0,1,.659-1.759" transform="translate(-22.566 -25.463)" fill="#7c5142"/>
          <path id="Trazado_605516" data-name="Trazado 605516" d="M293.743,337.792c.127.062-1.048,2.652-2.347,5.9a39.206,39.206,0,0,1-2.55,5.828,7.7,7.7,0,0,1,.533-1.791c.381-1.085.913-2.584,1.57-4.217s1.323-3.083,1.846-4.111a6.865,6.865,0,0,1,.948-1.613" transform="translate(-21.635 -25.302)" fill="#7c5142"/>
        </g>
      </g>
    </g>
  </g>
</svg>
